<?xml version="1.0" encoding="utf-8"?>
<!-- Generator: Adobe Illustrator 16.0.3, SVG Export Plug-In . SVG Version: 6.00 Build 0)  -->
<!DOCTYPE svg PUBLIC "-//W3C//DTD SVG 1.1//EN" "http://www.w3.org/Graphics/SVG/1.1/DTD/svg11.dtd">
<svg version="1.1" id="Layer_1" xmlns="http://www.w3.org/2000/svg" xmlns:xlink="http://www.w3.org/1999/xlink" x="0px" y="0px"
	 width="234px" height="234px" viewBox="0 0 234 234" enable-background="new 0 0 234 234" xml:space="preserve">
<circle opacity="0.8" fill="#00A651" cx="117" cy="117" r="107"/>
<circle opacity="0.8" fill="none" stroke="#FFFFFF" stroke-miterlimit="10" cx="117" cy="117" r="100"/>
<g>
	<path fill="#FFFFFF" d="M173.579,111.415c0,23.445-11.916,36-36,36c-11.018,0-22.291-1.922-31.26-9.096l10.633-15.887
		c5.895,4.998,12.428,8.072,20.242,8.072c11.658,0,17.168-6.406,17.168-15.246v-6.021h-0.258
		c-4.355,6.021-11.785,8.199-17.551,8.199c-18.447,0-30.619-13.324-30.619-32.156c0-16.526,10.762-32.413,28.441-32.413
		c10.889,0,18.32,5.253,21.268,9.737h0.256v-8.199h17.68V111.415z M140.524,100.525c8.713,0,15.375-7.303,15.375-15.373
		c0-8.071-6.662-15.374-15.375-15.374c-8.711,0-15.373,7.303-15.373,15.374C125.151,93.222,131.813,100.525,140.524,100.525z"/>
	<path fill="#FFFFFF" d="M60.42,145.133c0,23.443,11.915,36,35.999,36c11.018,0,22.291-1.922,31.26-9.098l-10.633-15.885
		c-5.895,4.996-12.428,8.07-20.242,8.07c-11.658,0-17.167-6.404-17.167-15.244v-6.021h0.257c4.355,6.021,11.785,8.199,17.551,8.199
		c18.447,0,30.619-13.324,30.619-32.156c0-16.527-10.762-32.414-28.441-32.414c-10.889,0-18.32,5.253-21.267,9.737H78.1v-8.199
		H60.42V145.133z M93.474,134.242c-8.713,0-15.374-7.303-15.374-15.373c0-8.071,6.661-15.374,15.374-15.374
		c8.711,0,15.373,7.303,15.373,15.374C108.847,126.939,102.185,134.242,93.474,134.242z"/>
</g>
</svg>
