<?xml version="1.0" encoding="utf-8"?>
<!-- Generator: Adobe Illustrator 16.0.3, SVG Export Plug-In . SVG Version: 6.00 Build 0)  -->
<!DOCTYPE svg PUBLIC "-//W3C//DTD SVG 1.1//EN" "http://www.w3.org/Graphics/SVG/1.1/DTD/svg11.dtd">
<svg version="1.1" id="Icons" xmlns="http://www.w3.org/2000/svg" xmlns:xlink="http://www.w3.org/1999/xlink" x="0px" y="0px"
	 viewBox="-21 -21 114 114" enable-background="new -21 -21 114 114" xml:space="preserve">
<path fill="#020202" d="M36-17.5C6.453-17.5-17.5,6.453-17.5,36c0,29.547,23.953,53.5,53.5,53.5
	c29.547,0,53.5-23.953,53.5-53.5C89.5,6.453,65.547-17.5,36-17.5z M52.5,13.037c-3.082,0-6.407,0-7.983,0
	c-1.579,0-3.177,1.637-3.177,2.853c0,1.214,0,8.14,0,8.14s9.865,0,11.145,0c-0.446,6.242-1.367,11.95-1.367,11.95h-9.832v35.377
	H26.633V35.979H19.5V24.074h7.133c0,0,0-7.954,0-9.736c0-1.779-0.362-13.696,15.013-13.695c2.063,0,6.741,0,10.854,0
	C52.5,5.816,52.5,11.416,52.5,13.037z"/>
</svg>
