<?xml version="1.0" encoding="utf-8"?>
<!-- Generator: Adobe Illustrator 16.0.3, SVG Export Plug-In . SVG Version: 6.00 Build 0)  -->
<!DOCTYPE svg PUBLIC "-//W3C//DTD SVG 1.1//EN" "http://www.w3.org/Graphics/SVG/1.1/DTD/svg11.dtd">
<svg version="1.1" id="Layer_1" xmlns="http://www.w3.org/2000/svg" xmlns:xlink="http://www.w3.org/1999/xlink" x="0px" y="0px"
	 width="812px" height="770px" viewBox="0 0 812 770" enable-background="new 0 0 812 770" xml:space="preserve">
<g>
	<path fill-rule="evenodd" clip-rule="evenodd" d="M333.626,121.292c-1.763-26.935,6.789-55.641,7.275-85.082
		c0.143-8.669-5.111-19.219,7.626-24.551c7.18-3.005,12.185-0.767,14.91,5.266c10.22,22.621,24.921,42.569,37.287,63.899
		c8.384,14.462,16.997,28.792,25.624,43.111c1.332,2.209,3.289,4.041,4.957,6.047c0.986-2.019,1.965-4.04,2.959-6.055
		c6.633-13.444,11.072-28.016,17.641-41.193c7.656-15.355,12.305-31.784,20.109-46.893c3.877-7.507,7.648-15.677,13.58-21.33
		c5.133-4.891,9.566,1.994,11.359,6.111c13.18,30.251,22.551,61.813,31.303,93.577c2.23,8.097,7.219,15.288,7.932,23.99
		c0.209,2.557,2.32,2.841,4.479,1.175c24.873-19.219,51.525-36.226,73.404-59.17c5.107-5.355,12.309-8.025,18.873-9.239
		c8.641-1.597,11.266,5.639,9.537,12.79c-7.967,32.982-16.34,65.345-24.434,97.77c-0.76,3.044-1.168,6.231-1.27,9.368
		c-0.127,3.859-3.154,9.165,0.236,11.059c1.982,1.107,7.289-2.818,10.609-5.173c25.453-18.053,51.115-35.825,73.518-57.812
		c5.016-4.922,11.217-8.698,17.125-12.623c3.453-2.294,7.785-2.882,11.449-0.907c4.455,2.399,6.598,7.062,6.602,11.894
		c0.01,8.903-4.783,15.998-8.484,23.922c-10.428,22.324-20.367,45.046-27.377,68.855c-3.668,12.464-7.752,24.857-12.592,36.903
		c-2.477,6.166-0.242,6.772,4.555,5.957c10.768-1.833,21.428-4.405,32.244-5.824c20.354-2.671,40.752-4.999,61.357-4.995
		c8.254,0.002,15.637,0.762,18.416,10.053c2.777,9.28-5.193,13.847-10.035,18.471c-27.211,25.99-55.283,51.08-82.563,77.002
		c-3.789,3.602-5.619,10.28-11.529,4.622c-5.865-5.615-2.402-10.814,2.695-15.789c15.145-14.777,30.205-29.668,44.709-45.067
		c9.793-10.398,20.318-19.896,31.139-29.138c0.646-0.553,0.816-1.665,1.207-2.517c-0.881-0.265-1.793-0.834-2.641-0.748
		c-18.584,1.886-37.213,3.462-55.727,5.905c-15.508,2.046-30.83,5.504-46.338,7.532c-5.439,0.711-8.41-3.696-8.119-9.134
		c0.908-17.084,7.398-32.692,13.195-48.475c6.727-18.313,13.443-36.629,20.088-54.973c2.301-6.356,4.396-12.789,6.531-19.205
		c0.377-1.13,0.477-2.353,0.703-3.532c-1.137,0.645-2.451,1.098-3.385,1.962c-24.631,22.797-52.809,40.884-79.998,60.278
		c-5.057,3.606-9.85,7.858-15.404,10.42c-5.916,2.728-8.803-1.708-10.365-6.944c-6.129-20.54,1.623-40.128,5.279-59.651
		c3.576-19.098,6.105-38.784,14.754-56.708c0.635-1.316,0.299-3.101,0.414-4.667c-1.148,0.396-2.527,0.509-3.412,1.229
		c-23.713,19.328-47.549,38.514-70.893,58.278c-4.426,3.746-8.514,6.592-13.943,5.096c-3.1-0.854-6.543-5.055-5.094-7.67
		c4.516-8.153,0.033-15.061-2.17-21.902c-10.334-32.098-21.285-63.997-32.068-95.951c-0.271-0.805-1.139-1.41-1.727-2.108
		c-0.928,1.148-2.201,2.156-2.73,3.465c-9.486,23.506-19.285,46.896-28.152,70.636c-5.406,14.475-9.307,29.511-14.055,44.239
		c-0.287,0.893-2.068,1.767-3.189,1.812c-1.434,0.058-4.17-0.741-4.168-1.162c0.027-6.693-4.494-4.735-8.098-4.445
		c-3.473,0.28-6.363-0.6-7.791-4.049c-10.582-25.588-28.357-46.824-42.445-70.289c-6.41-10.677-12.588-21.494-18.905-32.228
		c-0.539-0.917-1.333-1.685-2.009-2.521c-0.273,0.944-0.539,1.891-0.822,2.832c-1.715,5.698,0.103,10.804,1.378,16.363
		c0.701,3.056-2.706,7.876-3.084,12.493c-2.135,26.056-4.645,52.063-2.727,78.279c0.407,5.561,1.302,12.603-6.096,14.773
		c-7.511,2.205-14.067,0.384-18.826-6.806c-16.36-24.723-35.885-47.004-54.505-69.983c-7.29-8.998-14.252-18.261-21.488-27.303
		c-1.043-1.304-2.787-2.045-4.206-3.047c-0.247,1.56-0.819,3.147-0.69,4.675c1.528,18.143,3.634,36.251,4.613,54.421
		c0.738,13.69,0.008,27.457,0.079,41.189c0.013,2.581-0.1,5.776,1.278,7.615c3.311,4.42,2.44,7.997-1.455,10.69
		c-3.951,2.731-8.112,2.669-12.383-0.632c-15.172-11.727-30.555-23.182-45.899-34.686c-7.7-5.771-15.479-11.438-23.252-17.111
		c-0.608-0.443-1.446-0.572-2.177-0.847c0.007,0.608-0.106,1.248,0.039,1.822c5.906,23.301,11.685,46.635,17.878,69.859
		c1.371,5.141,4.191,9.898,6.391,14.812c1.338,2.989,0.366,5.515-1.864,7.403c-2.778,2.353-4.262,7.077-9.619,4.99
		c-28.275-11.018-58.902-12.118-87.79-20.615c-2.131-0.627-4.563-0.234-6.854-0.315c1.124,2.302,1.986,4.783,3.414,6.878
		c13.216,19.395,26.793,38.548,39.709,58.139c6.852,10.393-1.855,12.922-9.179,14.391c-23.666,4.744-47.442,8.934-71.166,13.395
		c-0.688,0.129-1.257,0.894-1.881,1.362c0.842,0.938,1.525,2.129,2.551,2.775c17.545,11.059,35.33,21.751,52.599,33.224
		c5.729,3.806,15,2.421,17.219,11.86c0.554,2.358,2.988,4.691-0.065,6.112c-3.626,1.688-9.136,4.362-11.514,2.884
		c-15.108-9.394-29.188-20.454-44.372-29.708c-13.63-8.306-28.248-14.99-42.42-22.407c-4.767-2.494-11.093-4.226-9.867-11.284
		c1.189-6.849,6.958-4.801,12.005-5.618c28.005-4.538,55.861-9.993,83.754-15.211c2.85-0.533,3.429-2.251,1.671-4.733
		c-12.284-17.346-24.316-34.876-36.897-52.002c-5.333-7.259-8.021-16.517-16.327-21.644c-1.788-1.104-1.26-3.681-0.044-5.492
		c2.435-3.629,6.088-5.799,10.233-4.905c12.619,2.719,25.061,6.267,37.686,8.958c20.948,4.466,41.994,8.478,62.976,12.785
		c3.083,0.633,4.361-0.422,3.566-3.268c-7.187-25.737-14.188-51.532-21.922-77.105c-2.265-7.487-2.137-15.02-0.936-22
		c1.001-5.818,8.005-6.035,12.416-2.972c12.64,8.775,24.858,18.165,37.117,27.479c12.008,9.124,23.855,18.46,35.799,27.67
		c0.714,0.551,1.66,0.801,2.498,1.19c0.127-0.929,0.388-1.861,0.362-2.786c-0.641-22.274-0.016-44.69-2.43-66.773
		c-1.63-14.91-2.223-29.87-3.789-44.762c-0.629-5.984,1.942-11.636,6.935-14.923c5.124-3.374,9.313,0.674,11.657,4.551
		c12.801,21.186,31.292,37.927,44.878,58.604c8.627,13.128,20.618,24.046,31.102,35.953c0.439,0.498,0.892,0.986,1.347,1.47
		c2.492,2.647,1.485,9.723,5.865,8.442C335.084,134.378,332.704,128.067,333.626,121.292z"/>
	<path fill-rule="evenodd" clip-rule="evenodd" d="M302.776,336.324c7.114,1.714,6.546-7.432,11.812-8.387
		c0.574-0.104,1.024-1.123,1.563-1.152c9.78-0.532,12.13-11.826,17.661-14.229c11.617-5.049,24.285-10.979,38.318-8.452
		c6.935,1.248,14.184,0.645,21.241,1.363c3.321,0.338,7.853,1.171,7.316,5.672c-0.511,4.281-4.875,3.573-8.156,3.599
		c-6.077,0.045-13.65-1.449-8.769,9.218c0.437,0.954-0.68,3.611-1.622,3.948c-1.118,0.401-2.88-0.754-4.259-1.444
		c-0.496-0.248-0.677-1.109-1.021-1.679c-10.385-17.182-10.406-17.202-24.898-2.165c-1.132,1.174-2.748,3.699-2.324,4.284
		c8.515,11.779-2.043,4.442-5.226,5.998c-10.448,5.107-25.018-5.671-32.717,8.711c-0.554,1.033-0.878,2.189-1.309,3.289
		c1.562-0.133,3.197-0.011,4.673-0.439c8.358-2.423,16.532-4.994,24.451,1.665c2.1,1.767,1.531,3.32,0.834,4.559
		c-0.813,1.442-2.313,2.397-4.632,1.635c-8.235-2.708-15.036-2.786-18.905,7.503c-2.591,6.893-10.376,9.267-16.426,12.877
		c-0.262,0.156-1.737-0.898-1.675-1.15c0.63-2.564-3.743-4.397-0.657-7.472c8.084-8.054,13.478-16.807,4.813-27.857L302.776,336.324
		z"/>
	<path fill-rule="evenodd" clip-rule="evenodd" d="M302.864,336.217c-1.809-1.922-3.858-1.067-5.464-0.01
		c-2.214,1.458,0.675,2.359,0.763,3.623c0.073,1.052,0.023,2.111,0.028,3.168c-2.565-0.111-5.129-0.256-7.695-0.324
		c-2.301-0.062-5.021-4.683-6.501-0.718c-1.081,2.895-6.629,6.169-0.741,10.517c2.852,2.105,7.372,6.344,3.045,10.377
		c-3.795,3.537-7.976,1.271-11.553-2.383c-2.141-2.186-4.126-6.638-7.845-5.062c-3.829,1.624-2.599,6.249-3.157,9.769
		c-0.577,3.638,0.213,8.359-3.651,10.304c-3.076,1.548-4.814-2.341-6.463-4.166c-3.83-4.241-2.051-9.466-1.254-14.387
		c0.048-0.293,0.314-0.604,0.563-0.804c10.823-8.685,18.612-21.084,32.142-26.426c3.071-1.213,3.896-2.896,3.083-6.065
		c-1.416-5.531,0.975-9.407,6.146-11.392c2.687-1.031,6.035-3.095,8.351-0.229c2.248,2.782-1.254,5.078-2.463,7.204
		c-3.757,6.601,3.332,11.2,2.585,17.104C302.776,336.324,302.864,336.217,302.864,336.217z"/>
	<path fill-rule="evenodd" clip-rule="evenodd" d="M324.955,305.546c-9.235-1.073-10.337,4.263-6.421,12.945
		c0.909,2.015,0.918,4.14-1.4,5.083c-3.589,1.46-6.601,0.303-8.438-3.099c-4.586-8.489-1.599-15.588,5.013-21.17
		c8.058-6.806,14.856-2.675,20.823,3.744c1.591,1.712,0.152,2.862-3.645,2.787C329.562,305.811,328.237,305.71,324.955,305.546z"/>
	<path fill-rule="evenodd" clip-rule="evenodd" d="M449.849,331.622c3.434,1.025,9.91,0.094,9.197,4.229
		c-0.827,4.791-7.487,4.647-12.167,5.173c-3.303,0.371-5.893-1.054-5.563-4.538C441.804,331.334,446.443,332.436,449.849,331.622z"
		/>
	<g>
		<path d="M691.411,385.276c-5.908-1.938-10.428-6.977-17.143-7.147c-4.127-0.104-8.525-0.27-12.296-1.721
			c-13.613-5.236-21.714-19.032-36.191-23.34c-10.832-3.223-16.204-13.859-24.544-20.57c-11.585-9.32-26.55-10.813-37.78-19.646
			c-8.536-6.715-15.399-15.988-24.638-21.269c-10.932-6.247-19.606-17.492-33.953-17.271c-2.671,0.041-0.348-1.86-0.465-2.856
			c-0.628-5.373,1.82-12.142-3.973-15.457c-6.073-3.477-12.791-4.841-17.509,3.174c-1.92,3.262-4.786,1.567-6.019-0.629
			c-5.682-10.127-13.346-6.801-20.947-3.318c-2.631,1.204-6.461,3.264-4.512,6.511c2.117,3.525,5.883,1.373,8.828-0.306
			c4.515-2.574,8.168-4.973,11.995,2.014c2.83,5.166,9.072,6.021,15.028,3.786c2.296-0.861,3.984-5.79,6.855-2.111
			c2.329,2.984-1.387,5.565-2.486,8.379c-2.91,7.445-7.644,3.79-10.62,1.32c-7.058-5.858-13.344-5.194-20.186-0.046
			c-2.299,1.73-5.464,0.214-5.974-1.739c-4.408-16.891-15.895-9.93-25.917-8.015c-4.488,0.857-7.912-1.839-11.649-3.489
			c3.781-2.56-0.541-8.485,4.594-10.664c5.288-2.243,9.001-0.971,11.46,4.127c1.274,2.641,2.548,5.4,6.211,4.237
			c2.057-0.652,3.932-1.881,5.889-2.851c-1.876-2.641-3.395-5.652-5.688-7.86c-12.777-12.308-28.024-4.851-39.192-0.19
			c-18.194,7.594-30.595,0.826-43.611-8.618c-3.07-2.229-5.279-4.223-9.134-2.802c-3.588,1.322-5.527,3.92-5.321,7.597
			c0.648,11.575-6.956,19.233-12.893,27.662c-1.146,1.627-3.333,3.188-4.484-0.057c-1.407-3.966-5.084-4.927-7.93-7.104
			c-2.448-1.873-8.201-0.855-6.894-6.146c1.189-4.812,5.58-5.113,9.75-4.669c2.627,0.28,5.209,1.106,7.835,1.249
			c1.66,0.09,4.229-0.118,4.82-1.119c0.672-1.138,0.075-3.623-0.807-4.977c-3.629-5.567-9.459-6.725-15.388-5.938
			c-6.419,0.852-14.097,3.22-14.059,10.435c0.069,13.224-6.913,13.924-14.844,12.19c-3.173,0-4.507-0.042-5.839,0.008
			c-4.8,0.178-6.709,3.989-8.555,7.4c-1.407,2.601,0.007,5.343,1.999,7.201c3.797,3.542,4.977-1.583,7.166-2.717
			c7.541-3.905,11.375,0.862,13.904,6.252c0.791,1.684-0.021,3.527,2.767,3.277c3.538-0.318,3.505-2.843,2.576-5.078
			c-1.858-4.473,0.029-6.955,3.847-8.759c3.224-1.523,7.088-1.355,8.617,1.371c2.058,3.669-2.756,4.62-4.552,6.815
			c-3.062,3.742-2.292,8.223-1.418,12.361c0.288,1.364,2.811,3.096,4.397,3.189c4.938,0.291,3.109-4.529,4.433-6.954
			c2.871-5.263,7.234-4.006,11.763-3.653c4.499,0.35,5.396,3.243,5.79,6.73c0.342,3.022,1.791,5.024,4.857,5.309
			c6.96,0.646,5.591-6.729,8.897-9.748c1.666-1.521-0.849-3.298-2.935-3.989c-5.783-1.916-6.491-7.239-5.073-11.362
			c1.33-3.869,5.8-1.006,8.281,0.063c11.647,5.017,20.853,6.758,24.153-9.98c1.067-5.414,6.448-10.141,13.795-4.105
			c2.531,2.08,7.2,1.581,10.913,2.113c0.141,0.02,0.925-1.654,0.696-2.276c-3.208-8.714,5.169-4.989,7.902-7.002
			c2.986-2.199,5.104,0.721,6.243,3.544c0.674,1.669,0.885,3.4-1.699,3.631c-3.474,0.312-8.252,0.195-7.188,5.102
			c0.986,4.555,5.381,2.881,8.799,2.098c1.18-0.271,2.577,0.16,3.824,0.473c6.945,1.741,13.629,9.564,21.07,0.09
			c1.187-1.511,7.073-1.195,9.235,0.392c2.755,2.022-0.383,5.311-1.362,8.038c-0.66,1.841-0.925,6.018-0.264,5.557
			c6.13-4.271,11.729-6.93,17.529,0.244c5.725-9.155,12.631-4.982,19.521-1.803c1.979,0.913,4.705,1.452,3.639,4.268
			c-1.066,2.813-3.028,0.471-4.553-0.022c-5.594-1.808-10.81-0.807-15.92,1.812c-1.348,0.69-3.34,1.571-4.442,1.067
			c-13.31-6.085-17.575-3.727-19.939,11.311c-0.116,0.741-0.434,1.45-0.657,2.175c-0.097-0.45-0.243-0.896-0.283-1.351
			c-1.009-11.63-24.148-27.174-36.029-20.813c-1.043,0.558-3.013,1.13-3.553,0.625c-11.453-10.687-20.259-4.565-28.309,4.552
			c-3.374,3.822-4.042,8.729-2.274,13.61c0.931,2.572,3.351,4.25,5.901,3.752c4.981-0.973,3.818-5.776,5.055-9.18
			c1.208-3.324,3.602-7.039,7.494-6.008c4.183,1.108,0.892,4.755,0.722,7.238c-0.198,2.905,0.006,5.455,3.205,6.462
			c2.971,0.936,4.889-0.806,5.979-3.227c3.211-7.121,9.327-8.703,16.054-7.845c6.916,0.883,11.977,4.504,13.22,12.152
			c0.685,4.213,3.183,6.335,7.852,5.37c1.564-0.323,3.88-0.163,4.921,0.791c2.125,1.95,4.949,4.537,5.043,6.955
			c0.123,3.188-4.249,2.014-6.453,3.234c-4.952,2.743-11.866,8.851-14.653,7.36c-10.16-5.43-18.368-4.496-24.659,5.864
			c-1.051,1.729-1.769,4.896-4.383,3.795c-6.983-2.941-14.105-1.394-21.2-1.627c-12.604-0.415-14.308,8.654-14.507,17.559
			c-0.108,4.834-1.601,5.95-5.455,6.756c-3.125,0.652-6.611,1.183-9.087,2.955c-3.66,2.621-8.213,6.477-5.682,11.315
			c2.77,5.294,7.358,2.826,11.458,0.105c4.976-3.302,10.39-6.854,16.553-3.293c3.862,2.23,7.641,7.131,11.636,2.07
			c4.592-5.814-1.124-10.205-4.955-13.041c-4.409-3.264-3.72-7.044-3.327-10.934c0.439-4.358,4.158-5.375,7.773-5.493
			c5.822-0.191,11.851-1.941,17.195,2.374c2.065,1.666,4.339,1.374,5.414-1.72c2.237-6.438,7.79-10.183,12.973-13.452
			c2.426-1.53,9.618-0.438,10.398,1.336c1.891,4.296,3.472,11.465,1.208,14.254c-4.068,5.012-10.525,9.759-18.311,6.23
			c-1.826-0.827-2.867-3.388-4.269-5.15c-4.446,4.714-12.342,6.63-12.574,14.726c-0.112,3.902,3.176,8.348,6.149,5.848
			c9.236-7.765,13.73-1.121,19.17,4.494c2.425,2.503,5.758,2.694,8.814,1.603c0.777-0.278,1.554-3.524,0.982-4.126
			c-3.354-3.53-4.097-6.475,0.565-9.434c4.539-2.881,6.795,1.354,10.016,2.887c3.298,1.569,7.94,4.814,9.494-1.145
			c1.295-4.967-3.719-9.104-5.619-13.495c-2.597-6.002-7.166-10.579-0.322-15.909c6.393-4.979,12.912-11.275,21.666-3.631
			c7.058,6.162,19.595,7.751,17.632,21.386c-0.067,0.47,0.853,1.014,1.094,1.611c0.497,1.229,0.846,2.519,1.256,3.784
			c-1.408,0.271-3.132,1.207-4.177,0.711c-15.11-7.173-18.762,3.998-22.979,14.218c-1.358,3.293-0.254,5.653,2.902,7.432
			c3.566,2.009,4.541-0.75,5.532-2.879c2.837-6.092,5.822-10.836,14.001-7.167c2.522,1.132,7.515,0.997,9.085-0.69
			c8.911-9.572,16.938-4.896,25.501,0.213c2.709,1.617,6.12,0.561,8.122-2.021c2.194-2.83-0.642-4.609-2.282-6.238
			c-5.583-5.545-11.726-9.87-20.302-8.058c-1.942,0.41-4.114,0.819-4.904-1.927c-0.998-3.471-1.972-6.948-2.956-10.423
			c2.07,0.638,4.173,1.186,6.202,1.933c3.155,1.163,6.244,1.441,8.947-0.873c7.029-6.019,12.532-4.896,16.953,3.186
			c1.712,3.13,2.034,9.886,7.273,7.062c6.58-3.547,2.449-8.603-0.86-12.869c-5.555-7.16-9.839-17.408-21.354-7.317
			c-2.313,2.026-4.435,5.274-8.567,2.7c-4.951-3.083-5.093-7.275-3.809-12.236c1.214-4.686,4.436-0.841,6.584-1.713
			c2.442-0.991,5.771-0.994,4.826-4.846c-0.818-3.334-2.167-6.66,1.798-8.674c4.155-2.109,7.448-0.957,10.302,2.95
			c1.88,2.574,5.37,4.679,8.279,2.593c3.131-2.244-0.828-4.493-1.487-6.788c-0.456-1.588-1.397-3.282-1.117-4.735
			c0.146-0.756,3.584-1.662,3.649-1.533c2.797,5.455,17.619,4.165,8.706,16.687c-2.818,3.959-5.241,13.149,0.668,16.39
			c7.768,4.258,7.268-4.584,9.029-9.005c0.778-1.951,1.871-3.23,4.104-2.576c3.247,0.952,4.211,4.114,3.454,6.402
			c-2.608,7.887,2.118,7.442,7.544,8.725c3.767,0.891,11.16-2.693,11.252,5.4c0.045,3.951-5.589,9.035,1.018,11.41
			c6.543,2.352,6.969-4.908,9.654-8.46c1.114-1.475,0.495-5.722,3.54-3.985c3.584,2.043,7.126,5.2,9.06,8.758
			c1.454,2.677-2.754,3.209-4.709,3.63c-5.354,1.152-9.984,3.593-14.375,6.69c-2.987,2.106-5.2,2.357-8.527-0.592
			c-13.037-11.553-22.005-8.809-25.684,7.387c-0.756,3.325-2.249,7.512,2.562,8.8c4.392,1.177,5.178-3.307,6.729-6.011
			c1.258-2.191,3.581-6.54,3.856-6.001c4.676,9.14,21.796-0.674,22.137,14.632c0.049,2.187,2.513,3.025,4.709,2.6
			c2.131-0.412,4.257-0.979,4.545-3.809c0.252-2.476,1.192-4.959,1.029-7.386c-0.877-13.108,10.916-10.046,16.128-10.044
			c6.735,0.003,2.61,7.888,2.48,12.205c-0.139,4.601,0.188,8.241,5.392,8.903c5.185,0.659,5.833-3.089,5.971-7.086
			c0.198-5.772,2.645-6.168,7.435-3.658c6.573,3.445,10.513,10.824,18.531,12.073c0.957,0.148,1.676,1.829,2.506,2.8
			c-1.031,0.258-2.143,0.905-3.083,0.714c-9.432-1.914-18.653,1.322-27.996,1.043c-15.86-0.475-31.716-1.499-47.575-1.524
			c-22.583-0.036-45.167,0.869-67.752,0.925c-34.145,0.084-68.293-0.511-102.436-0.285c-52.218,0.346-104.433,1.204-156.649,1.729
			c-32.666,0.328-65.333,0.463-98,0.597c-1.674,0.007-3.352-0.812-5.027-1.246c1.085-1.164,1.983-2.621,3.283-3.447
			c21.435-13.625,42.901-27.202,64.461-40.627c0.916-0.57,2.555-2.98,4.109-0.486c1.191,1.912,2.196,3.94,3.283,5.917
			c-1.573-0.323-3.174-0.999-4.713-0.882c-2.083,0.158-4.587,0.338-6.091,1.536c-5.249,4.185-8.466,10.14-17.462,9.721
			c-4.232-0.196-11.013,5.972-11.343,13.489c-0.116,2.634,1.764,4.7,3.647,4.726c6.006,0.082,7.476-5.946,11.023-9.229
			c1.679-1.553,3.752-4.568,5.626-2.917c2.297,2.025,3.701,5.526,4.486,8.644c0.533,2.112-5.214,4.292-0.968,6.91
			c3.659,2.256,7.521,0.447,11.423-0.77c8.937-2.788,17.955-6.547,27.037,0.385c2.969,2.266,6.851,1.688,9.089-1.913
			c2.344-3.771-0.748-5.714-3.172-7.729c-3.826-3.182-8.401-4.833-13.213-4.928c-4.215-0.083-6.045-1.158-5.583-5.68
			c0.43-4.2,1.948-6.54,6.517-6.229c7.065,0.481,13.955,0.776,17.566-7.459c1.132-2.582,4.141-3.271,6.901-1.886
			c3.199,1.604,8.114,4.46,9.486,1.38c1.465-3.287-4.098-5.968-6.59-8.936c-1.426-1.698-7.802,0.679-4.365-4.903
			c2.556-4.15,6.259-5.499,10.506-2.288c4.096,3.097,8.296,4.456,11.223-0.79c3.53-6.328,8.829-5.882,14.54-5.168
			c2.589,0.324,4.249-1.21,4.954-3.352c0.918-2.787-2.093-2.373-3.342-3.381c-6.59-5.315-13.341-3.384-20.114-0.391
			c-1.017,0.449-2.103,0.74-3.156,1.104c-0.187-0.774-0.778-1.894-0.475-2.251c0.637-0.75,1.756-1.56,2.659-1.539
			c5.893,0.134,6.941-3.365,5.488-7.851c-1.521-4.693,2.256-5.514,4.547-7.517c2.501-2.186,3.898-0.085,5.931,1.14
			c2.107,1.27,4.921,1.367,7.425,1.977c0.077-0.589,0.334-1.223,0.203-1.762c-2.012-8.256-14.322-12.976-21.151-7.896
			c-3.438,2.557-7.777,8.924-9.29,8.237c-10.249-4.652-17.492,0.247-24.959,5.756c-2.561,1.889-5.256,3.417-4.423,7.447
			c0.918,4.443,4.954,3.811,7.736,5.014c3.3,1.428,3.871-1.971,5.353-3.739c1.939-2.313,4.531-5.233,7.298-3.826
			c1.491,0.759,1.186,5.047,1.692,7.742c-5.918,1.098-9.339,7.859-16.3,6.876c-5.817-0.82-7.897-10.04-16.946-5.08
			c-10.916,5.981-20.321,13.935-30.962,20.196c-20.625,12.137-40.294,25.908-60.98,37.935c-19.988,11.62-25.178,22.372-17.355,40.52
			c12.116,28.108,18.854,57.988,28.418,86.94c11.984,36.279,23.685,72.655,35.213,109.083c7.645,24.155,15.505,48.283,21.884,72.783
			c4.542,17.446,10.465,33.401,14.653,52.223c0.236,7.895,5.291,18.991,15.63,20.481l99.683-0.303
			c35.231-0.604,70.314,2.262,105.478,0.864c31.915-1.269,63.792,0.385,95.64-1.295l67.383-1.569
			c5.403,1.175,9.713-4.158,11.057-8.157c3.614-10.753,7.117-21.59,9.781-32.606c5.361-22.161,9.728-44.565,15.242-66.686
			c9.359-37.535,19.433-74.893,28.933-112.394c7.15-28.227,13.773-56.587,20.819-84.84c4.638-18.6,9.645-37.107,14.398-55.679
			C695.792,388.971,694.325,386.232,691.411,385.276z M378.368,734.859c-20.201-0.075-40.405-0.108-60.602-0.49
			c-24.796-0.47-49.594-1.056-74.375-2.014c-11.782-0.455-18.69-9.008-21.295-18.733C211.85,675.365,198.387,637.858,187,600
			c-7.288-24.231-12.25-40.75-16.875-54.625c-1.31-3.929-0.886-4.999,2.208-5.011c22.93-0.083,45.86-0.014,68.79-0.185
			c7.945-0.059,15.905-0.438,23.821-1.11c3.854-0.327,5.13,1.563,5.306,4.598c0.712,12.338,1.083,25.834,2.083,36.667
			c-0.088,4.484,0.917,9.167-5.026,9.195c-13.308,1.138-19.002,0.452-33.974,0.804c-3.02-0.208-6.538,7.613-5.43,11.641
			c1.083,3.938,3.597,6.943,8.18,6.86c15.953-0.481,29.25,0.583,44.854-0.07c13.979-0.513,14.063-6.097,13.979-15.347
			c0.51-15.307,0.832-29.729,0.541-44.6c-0.163-8.339-1.916-16.172-3.889-23.958c-1.188-4.686-4.568-5.984-11.049-5.812
			c-15.02-0.173-41.52-0.173-47.583,0.741c-19.338,0.507-38.735,0.183-57.995,1.67c-11.646,0.898-16.424-3.525-19.516-14.152
			c-8.893-30.562-18.715-60.853-28.15-91.257c-1.458-4.697-2.806-9.429-4.184-14.15c-0.669-2.294,0.686-1.779,2.182-1.792
			c33.274-0.297,66.547-0.869,99.821-0.945c13.395-0.03,26.793,1.477,40.187,1.425c21.609-0.085,43.229-1.534,64.821-1.152
			c15.201,0.27,30.46-2.115,45.63,0.731c2.816,0.529,3.964,1.451,4.664,4.552l3.252,325.506
			C383.22,734.525,381.205,734.87,378.368,734.859z M666.548,406.699c-6.306,27.847-12.66,55.683-18.89,83.547
			c-0.563,2.518-0.415,5.206-0.485,7.818c-0.449,16.665-12.383,18.996-24.974,19.053c-32.371,0.147-64.755-0.897-97.114-0.326
			c-14.248,0.252-19.748,9.432-18.67,23.711c1.512,20.018-1.054,40.271,3.071,60.164c0.984,4.743,4.24,6.791,9.173,6.548
			c17.804-0.876,35.532-0.095,53.341-0.88c3.749-0.165,6.004-3.911,6.551-7.304c0.564-3.504-1.268-10.396-4.468-10.363
			c-11.654,0.118-22.25-0.167-34.612-0.459c-5.132,0.653-7.281-2.042-7.262-6.499c0.047-10.464-0.669-21.452-0.959-31.126
			c-0.75-15.583,5.104-14.781,15.059-14.803c27.191-0.058,54.383-0.44,81.574-0.404c6.786,0.009,9.504,2.27,7.06,10.529
			c-6.065,20.495-10.418,41.491-15.756,62.21c-7.018,27.242-14.682,54.322-21.338,81.65c-3.101,12.728-6.432,24.817-9.432,38.195
			c-0.622,2.773-2.952,3.115-5.751,3.315c-24.051,1.713-48.021,3.647-72.24,2.792c0,0-102.426,2.933-102.426-0.401l0.435-28.388
			c-0.041,0.356,0.565-22.445,0.194-33.964L414.333,403c1.851-5.879,18.202-2.263,22.999-3.536c37.96,0,74.317-1.366,110.525,0.375
			c38.114,1.833,76.36-3.897,114.326,2.594C664.873,402.893,667.396,402.954,666.548,406.699z"/>
	</g>
</g>
</svg>
