<?xml version="1.0" encoding="utf-8"?>
<!-- Generator: Adobe Illustrator 16.0.3, SVG Export Plug-In . SVG Version: 6.00 Build 0)  -->
<!DOCTYPE svg PUBLIC "-//W3C//DTD SVG 1.1//EN" "http://www.w3.org/Graphics/SVG/1.1/DTD/svg11.dtd">
<svg version="1.1" xmlns="http://www.w3.org/2000/svg" xmlns:xlink="http://www.w3.org/1999/xlink" x="0px" y="0px"
	 width="2112.855px" height="347.982px" viewBox="0 0 2112.855 347.982" enable-background="new 0 0 2112.855 347.982"
	 xml:space="preserve">
<g id="Layer_1">
	<rect x="-3186" y="-1072.815" fill="#00A14B" width="1190.549" height="841.147"/>
	<rect x="4.193" y="713.007" fill="#00A14B" width="2084.705" height="844.127"/>
	<rect x="20.194" y="-1072.815" fill="#00A14B" width="1190.549" height="841.147"/>
</g>
<g id="Layer_2">
	<g>
		<path fill="#FFFFFF" d="M-2438.674-851.616c0-9.634,7.014-17.071,15.381-17.071c6.762,0,12.297,4.184,12.297,12.085
			c0,9.634-7.014,17.071-15.381,17.071C-2433.139-839.53-2438.674-843.714-2438.674-851.616z M-2412.518-856.602
			c0-7.142-5.027-10.818-10.902-10.818c-7.268,0-13.732,6.507-13.732,15.804c0,7.142,4.986,10.818,10.859,10.818
			C-2419.066-840.798-2412.518-847.305-2412.518-856.602z"/>
		<path fill="#FFFFFF" d="M-2387.715-840.038l-13.227-26.157l-5.789,26.157h-1.352l6.211-28.185h1.354l13.268,25.903l5.748-25.903
			h1.352l-6.213,28.185H-2387.715z"/>
	</g>
	<g>
		<path fill="#FFFFFF" d="M-3147.098-839.509v-38.29l-15.424,38.29h-2.32l-15.494-38.29v38.29H-3186v-45.524h8.121l14.197,35.082
			l14.127-35.082h8.123v45.524H-3147.098z"/>
		<path fill="#FFFFFF" d="M-3098.299-839.509l-4.027-10.169h-22.66l-4.027,10.169h-6.482l18.359-45.524h7.031l18.291,45.524
			H-3098.299z M-3113.656-879.232l-9.623,24.571h19.316L-3113.656-879.232z"/>
		<path fill="#FFFFFF" d="M-3059.533-839.509l-11.535-18.087h-9.146v18.087h-5.664v-45.524h18.291
			c8.328,0,14.334,5.324,14.334,13.719c0,8.19-5.666,12.695-11.877,13.241l12.285,18.564H-3059.533z M-3059.125-871.315
			c0-5.187-3.754-8.668-9.145-8.668h-11.945v17.404h11.945C-3062.879-862.579-3059.125-866.196-3059.125-871.315z"/>
		<path fill="#FFFFFF" d="M-3046.158-862.237c0-13.992,10.307-23.547,23.41-23.547c8.055,0,13.65,3.822,17.268,9.009l-4.709,2.662
			c-2.594-3.891-7.371-6.621-12.559-6.621c-9.965,0-17.541,7.576-17.541,18.497c0,10.784,7.576,18.497,17.541,18.497
			c5.188,0,9.965-2.798,12.559-6.621l4.777,2.593c-3.822,5.256-9.281,9.078-17.336,9.078
			C-3035.852-838.69-3046.158-848.246-3046.158-862.237z"/>
		<path fill="#FFFFFF" d="M-2965.896-839.509v-20.885h-26.617v20.885h-5.666v-45.524h5.666v19.588h26.617v-19.588h5.666v45.524
			H-2965.896z"/>
		<path fill="#FFFFFF" d="M-2933.549-839.509v-4.573c16.381-12.832,25.322-20.408,25.322-28.257c0-5.87-4.846-8.327-9.555-8.327
			c-5.461,0-9.693,2.32-12.355,5.733l-3.48-3.618c3.48-4.641,9.42-7.167,15.836-7.167c7.574,0,15.287,4.3,15.287,13.377
			c0,9.282-9.418,17.746-22.113,27.779h22.318v5.051H-2933.549z"/>
		<path fill="#FFFFFF" d="M-2893.555-851.044c0-6.075,5.188-10.238,10.854-11.944c-5.256-1.501-10.104-4.982-10.104-10.92
			c0-8.19,7.986-11.808,15.563-11.808c7.508,0,15.631,3.617,15.631,11.808c0,5.938-4.914,9.419-10.17,10.92
			c5.664,1.707,10.852,5.87,10.852,11.944c0,7.712-7.371,12.354-16.313,12.354C-2886.252-838.69-2893.555-843.263-2893.555-851.044z
			 M-2866.662-851.658c0-5.938-7.781-8.463-10.58-8.805c-2.799,0.341-10.58,2.867-10.58,8.805c0,4.914,4.916,7.917,10.58,7.917
			C-2871.645-843.741-2866.662-846.744-2866.662-851.658z M-2867.346-873.158c0-4.709-4.436-7.508-9.896-7.508
			c-5.527,0-9.828,2.798-9.828,7.508c0,5.528,7.098,7.371,9.828,7.849C-2874.443-865.787-2867.346-867.629-2867.346-873.158z"/>
		<path fill="#FFFFFF" d="M-2855.336-860.531v-4.504h16.381v4.504H-2855.336z"/>
		<path fill="#FFFFFF" d="M-2834.93-846.198l3.344-3.549c2.662,3.549,7.305,6.006,12.695,6.006c6.621,0,10.648-3.345,10.648-8.532
			c0-5.665-4.643-8.054-11.33-8.054c-1.912,0-4.027,0-4.709,0.068v-5.187c0.75,0.068,2.865,0.068,4.709,0.068
			c5.732,0,10.578-2.252,10.578-7.508c0-5.051-4.641-7.781-10.17-7.781c-4.982,0-8.668,1.911-12.012,5.528l-3.139-3.549
			c3.275-4.027,8.531-7.03,15.629-7.03c8.736,0,15.357,4.437,15.357,12.081c0,6.621-5.529,9.897-9.76,10.579
			c4.094,0.41,10.51,3.891,10.51,11.262c0,7.576-6.143,13.104-16.176,13.104C-2826.467-838.69-2832.131-842.103-2834.93-846.198z"/>
		<path fill="#FFFFFF" d="M-2795.414-862.237c0-11.125,4.914-23.479,17.404-23.479c12.422,0,17.404,12.354,17.404,23.479
			c0,11.057-4.982,23.547-17.404,23.547C-2790.5-838.69-2795.414-851.181-2795.414-862.237z M-2766.406-862.237
			c0-9.078-2.936-18.428-11.604-18.428s-11.602,9.351-11.602,18.428s2.934,18.497,11.602,18.497S-2766.406-853.16-2766.406-862.237z
			"/>
		<path fill="#FFFFFF" d="M-2752.758-830.841l-2.592-2.116c2.184-1.433,4.162-4.095,4.436-6.348
			c-0.137,0.068-0.615,0.137-0.955,0.137c-1.844,0-3.277-1.501-3.277-3.481s1.57-3.686,3.617-3.686c2.322,0,4.301,1.911,4.301,5.187
			C-2747.229-836.984-2749.617-833.094-2752.758-830.841z"/>
		<path fill="#FFFFFF" d="M-2722.182-839.509v-4.573c16.381-12.832,25.32-20.408,25.32-28.257c0-5.87-4.846-8.327-9.555-8.327
			c-5.461,0-9.691,2.32-12.354,5.733l-3.48-3.618c3.48-4.641,9.418-7.167,15.834-7.167c7.576,0,15.289,4.3,15.289,13.377
			c0,9.282-9.42,17.746-22.113,27.779h22.318v5.051H-2722.182z"/>
		<path fill="#FFFFFF" d="M-2682.256-862.237c0-11.125,4.914-23.479,17.404-23.479c12.422,0,17.404,12.354,17.404,23.479
			c0,11.057-4.982,23.547-17.404,23.547C-2677.342-838.69-2682.256-851.181-2682.256-862.237z M-2653.25-862.237
			c0-9.078-2.934-18.428-11.602-18.428s-11.604,9.351-11.604,18.428s2.936,18.497,11.604,18.497S-2653.25-853.16-2653.25-862.237z"
			/>
		<path fill="#FFFFFF" d="M-2631.82-839.509v-38.085l-7.303,7.781l-3.412-3.481l11.398-11.739h4.982v45.524H-2631.82z"/>
		<path fill="#FFFFFF" d="M-2597.012-839.509v-11.535h-21.637v-4.709l19.52-29.28h7.781v29.007h6.416v4.982h-6.416v11.535H-2597.012
			z M-2597.012-879.778l-15.973,23.752h15.973V-879.778z"/>
	</g>
	<g>
		<path fill="#FFFFFF" d="M-2199.869-761.61l5.959-26.917h-9.508l0.254-1.268h20.408l-0.252,1.268h-9.551l-5.959,26.917H-2199.869z"
			/>
		<path fill="#FFFFFF" d="M-2163.064-761.61l3.041-13.86h-19.227l-3.041,13.86h-1.354l6.213-28.185h1.352l-2.873,13.057h19.227
			l2.873-13.057h1.352l-6.211,28.185H-2163.064z"/>
		<path fill="#FFFFFF" d="M-2154.277-761.61l6.211-28.185h17.242l-0.254,1.268h-15.889l-2.619,11.79h15.592l-0.295,1.268h-15.594
			l-2.789,12.592h15.889l-0.254,1.268H-2154.277z"/>
	</g>
	<g>
		<path fill="#FFFFFF" d="M-3186-784.338c0-14.333,10.646-23.547,23.887-23.547c8.873,0,14.676,4.232,18.293,9.419l-6.484,3.754
			c-2.457-3.413-6.758-6.074-11.809-6.074c-9.008,0-15.697,6.825-15.697,16.449c0,9.487,6.689,16.449,15.697,16.449
			c4.643,0,8.736-2.116,10.785-4.095v-7.03h-13.65v-7.03h21.566v16.995c-4.436,4.982-10.852,8.327-18.701,8.327
			C-3175.354-760.723-3186-770.073-3186-784.338z"/>
		<path fill="#FFFFFF" d="M-3109.082-761.61l-10.033-16.995h-7.986v16.995h-7.986v-45.524h19.998
			c9.012,0,14.949,5.801,14.949,14.265c0,8.054-5.324,12.49-10.854,13.377l11.193,17.882H-3109.082z M-3108.332-792.938
			c0-4.368-3.275-7.167-7.781-7.167h-10.988v14.47h10.988C-3111.607-785.635-3108.332-788.501-3108.332-792.938z"/>
		<path fill="#FFFFFF" d="M-3092.158-761.61v-45.524h31.191v7.03h-23.205v11.74h22.729v7.03h-22.729v12.695h23.205v7.03H-3092.158z"
			/>
		<path fill="#FFFFFF" d="M-3052.777-761.61v-45.524h31.191v7.03h-23.207v11.74h22.729v7.03h-22.729v12.695h23.207v7.03H-3052.777z"
			/>
		<path fill="#FFFFFF" d="M-2981.66-761.61l-23.752-32.557v32.557h-7.986v-45.524h8.191l23.273,31.533v-31.533h7.986v45.524
			H-2981.66z"/>
		<path fill="#FFFFFF" d="M-2948.631-784.338c0-14.333,10.648-23.547,23.889-23.547c8.873,0,14.674,4.232,18.291,9.419l-6.484,3.754
			c-2.457-3.413-6.756-6.074-11.807-6.074c-9.01,0-15.697,6.825-15.697,16.449c0,9.487,6.688,16.449,15.697,16.449
			c4.641,0,8.736-2.116,10.783-4.095v-7.03h-13.65v-7.03h21.568v16.995c-4.436,4.982-10.852,8.327-18.701,8.327
			C-2937.982-760.723-2948.631-770.073-2948.631-784.338z"/>
		<path fill="#FFFFFF" d="M-2871.713-761.61l-10.033-16.995h-7.984v16.995h-7.986v-45.524h19.998c9.01,0,14.947,5.801,14.947,14.265
			c0,8.054-5.322,12.49-10.852,13.377l11.193,17.882H-2871.713z M-2870.961-792.938c0-4.368-3.277-7.167-7.781-7.167h-10.988v14.47
			h10.988C-2874.238-785.635-2870.961-788.501-2870.961-792.938z"/>
		<path fill="#FFFFFF" d="M-2822.846-761.61l-3.344-8.805h-20.885l-3.346,8.805h-9.076l17.881-45.524h9.965l17.883,45.524H-2822.846
			z M-2836.633-799.149l-8.189,21.705h16.381L-2836.633-799.149z"/>
		<path fill="#FFFFFF" d="M-2799.096-761.61l-17.881-45.524h9.076l13.787,36.788l13.787-36.788h9.078l-17.883,45.524H-2799.096z"/>
		<path fill="#FFFFFF" d="M-2766.338-761.61v-45.524h31.191v7.03h-23.205v11.74h22.729v7.03h-22.729v12.695h23.205v7.03H-2766.338z"
			/>
		<path fill="#FFFFFF" d="M-2727.504-761.61v-45.524h7.986v38.495h20.066v7.03H-2727.504z"/>
		<path fill="#FFFFFF" d="M-2676.795-784.338c0-14.06,10.443-23.547,23.889-23.547c9.146,0,14.879,4.709,18.223,10.17l-6.756,3.549
			c-2.186-3.822-6.621-6.62-11.467-6.62c-9.01,0-15.697,6.825-15.697,16.449c0,9.487,6.688,16.449,15.697,16.449
			c4.846,0,9.281-2.867,11.467-6.621l6.824,3.413c-3.48,5.46-9.145,10.306-18.291,10.306
			C-2666.352-760.791-2676.795-770.346-2676.795-784.338z"/>
		<path fill="#FFFFFF" d="M-2630.25-784.338c0-13.583,9.625-23.547,23.275-23.547c13.582,0,23.273,9.965,23.273,23.547
			c0,13.582-9.691,23.547-23.273,23.547C-2620.625-760.791-2630.25-770.756-2630.25-784.338z M-2591.891-784.338
			c0-9.419-5.939-16.449-15.084-16.449c-9.215,0-15.084,7.03-15.084,16.449c0,9.351,5.869,16.449,15.084,16.449
			C-2597.83-767.889-2591.891-774.987-2591.891-784.338z"/>
		<path fill="#FFFFFF" d="M-2536.746-761.61v-35.15l-13.924,35.15h-3.412l-13.992-35.15v35.15h-7.984v-45.524h11.262l12.422,31.26
			l12.354-31.26h11.262v45.524H-2536.746z"/>
		<path fill="#FFFFFF" d="M-2519.072-761.61v-45.524h31.191v7.03h-23.205v11.74h22.729v7.03h-22.729v12.695h23.205v7.03H-2519.072z"
			/>
		<path fill="#FFFFFF" d="M-2479.691-761.61v-45.524h16.926c14.266,0,23.82,9.419,23.82,22.728c0,13.446-9.555,22.796-23.752,22.796
			H-2479.691z M-2447.135-784.406c0-8.736-5.461-15.698-15.563-15.698h-9.008v31.465h8.939
			C-2452.869-768.64-2447.135-775.738-2447.135-784.406z"/>
		<path fill="#FFFFFF" d="M-2420.996-761.61v-18.906l-17.678-26.619h9.146l12.49,19.452l12.49-19.452h9.145l-17.609,26.619v18.906
			H-2420.996z"/>
		<path fill="#FFFFFF" d="M-2372.883-761.61v-45.524h31.191v7.03h-23.205v11.74h22.729v7.03h-22.729v19.725H-2372.883z"/>
		<path fill="#FFFFFF" d="M-2334.459-761.61v-45.524h31.191v7.03h-23.205v11.74h22.729v7.03h-22.729v12.695h23.205v7.03H-2334.459z"
			/>
		<path fill="#FFFFFF" d="M-2298.014-768.025l4.506-6.211c3.07,3.345,8.053,6.348,14.4,6.348c6.553,0,9.078-3.208,9.078-6.279
			c0-9.555-26.482-3.617-26.482-20.339c0-7.576,6.553-13.377,16.586-13.377c7.029,0,12.832,2.321,16.994,6.416l-4.504,5.938
			c-3.617-3.618-8.463-5.255-13.242-5.255c-4.641,0-7.643,2.32-7.643,5.665c0,8.532,26.48,3.276,26.48,20.203
			c0,7.576-5.391,14.128-17.609,14.128C-2287.844-760.791-2293.918-763.794-2298.014-768.025z"/>
		<path fill="#FFFFFF" d="M-2244.369-761.61v-38.495h-13.787v-7.03h35.561v7.03h-13.787v38.495H-2244.369z"/>
	</g>
	<g>
		<path fill="#FFFFFF" d="M-3373.937-688.217l5.874-26.579l-16.86,26.579h-0.422l-5.113-26.579l-5.874,26.579h-1.352l6.211-28.185
			h2.071l4.817,25.227l15.973-25.227h2.239l-6.211,28.185H-3373.937z"/>
		<path fill="#FFFFFF" d="M-3344.359-688.217l-1.479-7.564h-15.719l-4.775,7.564h-1.648l17.958-28.185h1.606l5.536,28.185H-3344.359
			z M-3349.473-714.838l-11.282,17.79h14.706L-3349.473-714.838z"/>
		<path fill="#FFFFFF" d="M-3320.825-688.217l-9.549-13.987l-4.311,3.803l-2.239,10.184h-1.352l6.211-28.185h1.352l-3.549,16.057
			l18.085-16.057h1.944l-15.212,13.479l10.269,14.705H-3320.825z"/>
		<path fill="#FFFFFF" d="M-3314.149-688.217l6.211-28.185h17.241l-0.253,1.267h-15.888l-2.62,11.79h15.593l-0.296,1.268h-15.592
			l-2.789,12.592h15.888l-0.253,1.268H-3314.149z"/>
		<path fill="#FFFFFF" d="M-3290.698-692.569l1.226-0.888c1.944,2.789,5.071,4.479,9.127,4.479c5.62,0,7.944-3.845,7.944-7.015
			c0-6.887-14.198-5.662-14.198-13.437c0-4.141,4.184-7.438,9.085-7.438c4.226,0,7.733,1.775,9.254,4.353l-1.226,0.887
			c-1.69-2.704-4.775-3.972-8.028-3.972c-4.226,0-7.564,3-7.564,6.169c0,6.296,14.198,5.409,14.198,13.437
			c0,3.93-3.212,8.282-9.592,8.282C-3285.12-687.71-3289.134-689.865-3290.698-692.569z"/>
	</g>
	<g>
		<path fill="#FFFFFF" d="M-3186-687.71v-45.524h13.787v45.524H-3186z"/>
		<path fill="#FFFFFF" d="M-3167.301-710.438c0-13.992,10.854-23.547,24.912-23.547c14.061,0,24.912,9.556,24.912,23.547
			s-10.852,23.547-24.912,23.547C-3156.447-686.892-3167.301-696.447-3167.301-710.438z M-3131.467-710.438
			c0-6.348-4.301-11.398-10.922-11.398c-6.619,0-10.92,5.051-10.92,11.398c0,6.347,4.301,11.398,10.92,11.398
			C-3135.768-699.041-3131.467-704.091-3131.467-710.438z"/>
		<path fill="#FFFFFF" d="M-3079.188-687.71l-5.871-25.799l-5.869,25.799h-14.469l-13.037-45.524h15.426l5.869,27.847l6.893-27.847
			h10.375l6.895,27.847l5.801-27.847h15.494l-13.037,45.524H-3079.188z"/>
		<path fill="#FFFFFF" d="M-3021.176-687.71l-1.639-5.324h-16.381l-1.637,5.324h-15.631l16.791-45.524h17.336l16.789,45.524
			H-3021.176z M-3031.004-719.721l-4.506,14.674h9.01L-3031.004-719.721z"/>
		<path fill="#FFFFFF" d="M-2985.689-687.71v-45.524h13.787v33.512h17.268v12.013H-2985.689z"/>
		<path fill="#FFFFFF" d="M-2918.734-687.71l-1.639-5.324h-16.381l-1.639,5.324h-15.629l16.789-45.524h17.338l16.789,45.524
			H-2918.734z M-2928.564-719.721l-4.504,14.674h9.01L-2928.564-719.721z"/>
		<path fill="#FFFFFF" d="M-2903.381-706.412v-26.823h13.992v26.345c0,4.368,2.867,7.849,8.531,7.849
			c5.598,0,8.463-3.481,8.463-7.849v-26.345h13.992v26.755c0,11.33-7.098,19.588-22.455,19.588S-2903.381-695.15-2903.381-706.412z"
			/>
		<path fill="#FFFFFF" d="M-2853.49-710.438c0-14.606,11.262-23.547,25.049-23.547c10.852,0,17.131,6.006,19.998,11.876
			l-11.604,5.938c-1.297-2.798-4.299-5.665-8.395-5.665c-6.621,0-11.057,5.051-11.057,11.398c0,6.347,4.436,11.398,11.057,11.398
			c2.594,0,5.664-0.956,7.098-2.047v-1.638h-8.463v-12.012h22.182v18.633c-5.051,5.597-11.875,9.214-20.816,9.214
			C-2842.229-686.892-2853.49-695.901-2853.49-710.438z"/>
		<path fill="#FFFFFF" d="M-2771.385-687.71v-17.404h-16.313v17.404h-13.787v-45.524h13.787v16.107h16.313v-16.107h13.787v45.524
			H-2771.385z"/>
		<path fill="#FFFFFF" d="M-2702.727-687.71v-17.404h-16.313v17.404h-13.787v-45.524h13.787v16.107h16.313v-16.107h13.787v45.524
			H-2702.727z"/>
		<path fill="#FFFFFF" d="M-2651.199-687.71l-1.639-5.324h-16.379l-1.639,5.324h-15.631l16.791-45.524h17.336l16.791,45.524
			H-2651.199z M-2661.027-719.721l-4.504,14.674h9.008L-2661.027-719.721z"/>
		<path fill="#FFFFFF" d="M-2608.066-687.71l-6.279-14.333h-4.982v14.333h-13.787v-45.524h24.299
			c10.646,0,16.381,7.098,16.381,15.63c0,7.849-4.574,12.012-8.191,13.787l8.26,16.107H-2608.066z M-2606.428-717.673
			c0-2.457-2.184-3.549-4.506-3.549h-8.395v7.167h8.395C-2608.611-714.056-2606.428-715.148-2606.428-717.673z"/>
		<path fill="#FFFFFF" d="M-2586.842-687.71v-45.524h20.34c14.332,0,24.98,8.19,24.98,22.728s-10.648,22.796-24.912,22.796
			H-2586.842z M-2555.514-710.507c0-6.143-3.549-10.716-10.92-10.716h-6.621v21.5h6.553
			C-2559.609-699.723-2555.514-704.773-2555.514-710.507z"/>
		<path fill="#FFFFFF" d="M-2536.611-687.71v-45.524h34.535v12.012h-20.748v4.505h20.271v12.012h-20.271v4.982h20.748v12.013
			H-2536.611z"/>
		<path fill="#FFFFFF" d="M-2470.887-687.71l-6.279-14.333h-4.982v14.333h-13.787v-45.524h24.299
			c10.646,0,16.381,7.098,16.381,15.63c0,7.849-4.574,12.012-8.191,13.787l8.26,16.107H-2470.887z M-2469.248-717.673
			c0-2.457-2.184-3.549-4.504-3.549h-8.396v7.167h8.396C-2471.432-714.056-2469.248-715.148-2469.248-717.673z"/>
	</g>
	<g>
		<path fill="#FFFFFF" d="M-3171.6-620.588v-40.474h-14.4v-5.051h34.535v5.051h-14.469v40.474H-3171.6z"/>
		<path fill="#FFFFFF" d="M-3147.645-643.315c0-13.446,9.146-23.548,22.592-23.548s22.66,10.102,22.66,23.548
			c0,13.445-9.215,23.547-22.66,23.547S-3147.645-629.87-3147.645-643.315z M-3108.262-643.315c0-10.648-6.621-18.497-16.791-18.497
			c-10.238,0-16.723,7.849-16.723,18.497c0,10.578,6.484,18.496,16.723,18.496C-3114.883-624.819-3108.262-632.737-3108.262-643.315
			z"/>
		<path fill="#FFFFFF" d="M-3094.342-620.588v-45.524h5.666v40.474h21.158v5.051H-3094.342z"/>
		<path fill="#FFFFFF" d="M-3059.943-620.588v-45.524h29.826v5.051h-24.162v14.674h23.684v5.051h-23.684v15.698h24.162v5.051
			H-3059.943z"/>
		<path fill="#FFFFFF" d="M-3021.111-620.588v-45.524h15.563c14.195,0,23.342,9.896,23.342,22.797
			c0,12.967-9.146,22.728-23.342,22.728H-3021.111z M-2988.076-643.315c0-9.829-6.211-17.746-17.473-17.746h-9.896v35.423h9.896
			C-2994.492-625.639-2988.076-633.556-2988.076-643.315z"/>
		<path fill="#FFFFFF" d="M-2975.18-643.315c0-13.446,9.146-23.548,22.592-23.548s22.66,10.102,22.66,23.548
			c0,13.445-9.215,23.547-22.66,23.547S-2975.18-629.87-2975.18-643.315z M-2935.797-643.315c0-10.648-6.621-18.497-16.791-18.497
			c-10.238,0-16.723,7.849-16.723,18.497c0,10.578,6.484,18.496,16.723,18.496C-2942.418-624.819-2935.797-632.737-2935.797-643.315
			z"/>
		<path fill="#FFFFFF" d="M-2921.807-611.92l-2.594-2.116c2.184-1.433,4.162-4.095,4.436-6.348
			c-0.137,0.068-0.613,0.137-0.955,0.137c-1.844,0-3.275-1.501-3.275-3.48s1.568-3.686,3.617-3.686c2.32,0,4.299,1.911,4.299,5.188
			C-2916.279-618.063-2918.668-614.173-2921.807-611.92z"/>
		<path fill="#FFFFFF" d="M-2889.594-620.588v-45.524h5.664v45.524H-2889.594z"/>
		<path fill="#FFFFFF" d="M-2875.125-643.315c0-13.446,9.145-23.548,22.59-23.548c13.447,0,22.66,10.102,22.66,23.548
			c0,13.445-9.213,23.547-22.66,23.547C-2865.98-619.769-2875.125-629.87-2875.125-643.315z M-2835.744-643.315
			c0-10.648-6.621-18.497-16.791-18.497c-10.236,0-16.721,7.849-16.721,18.497c0,10.578,6.484,18.496,16.721,18.496
			C-2842.365-624.819-2835.744-632.737-2835.744-643.315z"/>
		<path fill="#FFFFFF" d="M-2787.627-620.588l-10.033-36.72l-10.033,36.72h-6.143l-12.969-45.524h6.279l10.102,37.948l10.443-37.948
			h4.709l10.441,37.948l10.033-37.948h6.348l-13.035,45.524H-2787.627z"/>
		<path fill="#FFFFFF" d="M-2732.891-620.588l-4.027-10.169h-22.66l-4.027,10.169h-6.484l18.361-45.524h7.029l18.291,45.524
			H-2732.891z M-2748.248-660.312l-9.623,24.572h19.314L-2748.248-660.312z"/>
	</g>
	<line fill="none" stroke="#FFFFFF" stroke-miterlimit="10" x1="-3186" y1="-823.458" x2="-2130.824" y2="-823.458"/>
	<line fill="none" stroke="#FFFFFF" stroke-miterlimit="10" x1="-3186" y1="-747.558" x2="-2130.824" y2="-747.558"/>
	<path fill="#FFFFFF" d="M6.42,60.52c0-13.855,10.443-23.549,24.367-23.549s24.297,9.693,24.297,23.549
		c0,13.854-10.373,23.547-24.297,23.547S6.42,74.373,6.42,60.52z M43.141,60.52c0-7.439-4.846-13.174-12.354-13.174
		S18.365,53.08,18.365,60.52c0,7.371,4.914,13.172,12.422,13.172S43.141,67.891,43.141,60.52z"/>
	<path fill="#FFFFFF" d="M92.006,83.246L72.76,56.9v26.346H61.02V37.723H73.1l18.43,25.049V37.723h11.807v45.523H92.006z"/>
	<path fill="#FFFFFF" d="M168.922,83.246v-30.1l-11.465,30.1h-5.188l-11.535-30.1v30.1h-11.74V37.723h16.313l9.557,25.117
		l9.486-25.117h16.313v45.523H168.922z"/>
	<path fill="#FFFFFF" d="M219.77,83.246l-2.252-6.551h-17.951l-2.252,6.551h-13.311l17.133-45.523h14.811l17.131,45.523H219.77z
		 M208.576,49.326l-5.803,17.131h11.535L208.576,49.326z"/>
	<path fill="#FFFFFF" d="M261.811,83.246l-7.645-15.287h-6.006v15.287h-11.74V37.723h22.797c10.102,0,15.834,6.688,15.834,15.152
		c0,7.916-4.777,12.148-9.078,13.65l9.283,16.721H261.811z M263.107,52.807c0-3.141-2.525-4.846-5.666-4.846h-9.281v9.76h9.281
		C260.582,57.721,263.107,56.014,263.107,52.807z"/>
	<path fill="#FFFFFF" d="M279.211,60.52c0-14.061,10.648-23.549,24.641-23.549c10.988,0,16.926,6.211,19.861,12.15l-10.102,4.846
		c-1.502-3.617-5.393-6.621-9.76-6.621c-7.439,0-12.695,5.666-12.695,13.174c0,7.439,5.256,13.172,12.695,13.172
		c4.367,0,8.258-3.004,9.76-6.621l10.102,4.779c-2.936,5.801-8.873,12.217-19.861,12.217
		C289.859,84.066,279.211,74.51,279.211,60.52z"/>
	<path fill="#FFFFFF" d="M359.404,83.246V64.955H340.5v18.291h-11.74V37.723h11.74v16.994h18.904V37.723h11.74v45.523H359.404z"/>
	<path fill="#FFFFFF" d="M395.713,83.246v-9.145c19.725-14.266,23.41-17.404,23.41-21.979c0-3.07-2.936-4.709-6.279-4.709
		c-5.051,0-8.873,1.912-12.148,4.982l-6.484-7.781c4.846-5.322,12.08-7.576,18.428-7.576c10.717,0,18.43,6.008,18.43,15.084
		c0,7.031-4.982,12.969-16.313,20.887h16.652v10.236H395.713z"/>
	<path fill="#FFFFFF" d="M435.91,71.234c0-5.188,3.959-9.418,9.215-11.467c-4.846-1.842-8.463-5.119-8.463-10.578
		c0-8.805,9.691-12.15,18.564-12.15s18.564,3.346,18.564,12.15c0,5.459-3.617,8.736-8.531,10.578
		c5.324,2.049,9.281,6.279,9.281,11.467c0,8.873-9.486,12.832-19.314,12.832S435.91,80.176,435.91,71.234z M462.598,69.596
		c0-2.73-4.504-4.162-7.371-4.504c-2.936,0.342-7.371,1.773-7.371,4.504c0,2.457,3.002,4.096,7.371,4.096
		C459.457,73.691,462.598,72.053,462.598,69.596z M461.779,51.168c0-2.389-2.594-3.754-6.553-3.754s-6.621,1.365-6.621,3.754
		c0,2.32,3.822,3.617,6.621,4.027C458.025,54.785,461.779,53.488,461.779,51.168z"/>
	<path fill="#FFFFFF" d="M478.361,64.342v-8.805h16.381v8.805H478.361z"/>
	<path fill="#FFFFFF" d="M497.881,76.898l5.938-7.984c3.344,3.207,8.463,4.777,12.422,4.777c5.051,0,7.645-1.91,7.645-4.436
		c0-2.594-1.91-3.891-8.121-3.891c-1.98,0-5.461,0.068-6.145,0.137V55.059c0.889,0.068,4.438,0.068,6.145,0.068
		c4.709,0,7.371-1.16,7.371-3.549c0-2.867-3.277-4.164-7.645-4.164c-4.164,0-8.123,1.502-11.33,4.369l-5.666-7.373
		c3.891-4.299,9.83-7.371,18.225-7.371c11.602,0,18.086,4.982,18.086,12.49c0,5.324-4.572,9.352-9.965,10.238
		c4.846,0.479,10.717,4.232,10.717,10.785c0,7.984-7.508,13.514-18.838,13.514C507.982,84.066,501.498,80.994,497.881,76.898z"/>
	<path fill="#FFFFFF" d="M539.648,60.52c0-12.014,6.211-23.48,19.52-23.48c13.311,0,19.521,11.467,19.521,23.48
		c0,12.012-6.211,23.547-19.521,23.547C545.859,84.066,539.648,72.531,539.648,60.52z M566.813,60.52
		c0-8.055-2.184-13.105-7.645-13.105c-5.459,0-7.645,5.051-7.645,13.105c0,8.053,2.186,13.172,7.645,13.172
		C564.629,73.691,566.813,68.572,566.813,60.52z"/>
	<path fill="#FFFFFF" d="M590.114,92.939l-4.367-3.551c2.184-1.092,5.051-4.025,5.801-6.482c-0.273,0.068-0.955,0.203-1.57,0.203
		c-2.934,0-5.322-2.252-5.322-5.596c0-3.48,2.865-6.279,6.279-6.279c3.686,0,6.961,2.867,6.961,7.85
		C597.896,84.68,594.892,89.594,590.114,92.939z"/>
	<path fill="#FFFFFF" d="M618.203,83.246v-9.145c19.725-14.266,23.41-17.404,23.41-21.979c0-3.07-2.936-4.709-6.279-4.709
		c-5.051,0-8.873,1.912-12.148,4.982l-6.484-7.781c4.846-5.322,12.08-7.576,18.428-7.576c10.717,0,18.43,6.008,18.43,15.084
		c0,7.031-4.982,12.969-16.313,20.887h16.652v10.236H618.203z"/>
	<path fill="#FFFFFF" d="M658.4,60.52c0-12.014,6.211-23.48,19.521-23.48c13.309,0,19.52,11.467,19.52,23.48
		c0,12.012-6.211,23.547-19.52,23.547C664.611,84.066,658.4,72.531,658.4,60.52z M685.566,60.52c0-8.055-2.186-13.105-7.645-13.105
		c-5.461,0-7.645,5.051-7.645,13.105c0,8.053,2.184,13.172,7.645,13.172C683.381,73.691,685.566,68.572,685.566,60.52z"/>
	<path fill="#FFFFFF" d="M713.887,83.246V52.738l-7.643,7.713l-6.689-7.031l15.902-15.697h10.17v45.523H713.887z"/>
	<path fill="#FFFFFF" d="M752.994,83.246V74.92h-21.771v-9.146l17.268-28.051h16.313v26.891h5.527V74.92h-5.527v8.326H752.994z
		 M752.994,47.961l-10.375,16.652h10.375V47.961z"/>
	<path fill="#FFFFFF" d="M15.326,117.535V99.324H8.74v-5.283h19.196v5.283h-6.551v18.211H15.326z"/>
	<path fill="#FFFFFF" d="M46.639,117.535v-9.441h-9.757v9.441h-6.059V94.041h6.059v8.77h9.757v-8.77h6.059v23.494H46.639z"/>
	<path fill="#FFFFFF" d="M56.923,117.535V94.041h17.225v5.283H62.981v3.662H73.9v5.285H62.981v3.98h11.166v5.283H56.923z"/>
	<path fill="#FFFFFF" d="M88.511,127.502c0-21.24,16.229-34.564,36.168-34.564c14.924,0,23.943,7.914,28.551,16.23l-14.427,7.514
		c-2.505-4.408-7.614-8.516-14.124-8.516c-10.92,0-18.635,8.316-18.635,19.336c0,10.92,7.715,19.334,18.635,19.334
		c4.907,0,9.916-2.004,12.32-4.008v-5.209h-15.027v-15.127h32.258v26.549c-7.113,7.914-16.929,13.023-29.551,13.023
		C104.739,162.064,88.511,148.738,88.511,127.502z"/>
	<path fill="#FFFFFF" d="M201.612,160.861l-11.221-22.439h-8.816v22.439h-17.232v-66.82h33.463c14.826,0,23.244,9.816,23.244,22.24
		c0,11.621-7.016,17.832-13.326,20.035l13.623,24.545H201.612z M203.516,116.182c0-4.609-3.706-7.113-8.313-7.113h-13.627v14.326
		h13.627C199.81,123.395,203.516,120.889,203.516,116.182z"/>
	<path fill="#FFFFFF" d="M230.562,160.861v-66.82h48.988v15.027h-31.756v10.418h31.057v15.027h-31.057v11.322h31.756v15.025H230.562
		z"/>
	<path fill="#FFFFFF" d="M289.563,160.861v-66.82h48.99v15.027h-31.758v10.418h31.057v15.027h-31.057v11.322h31.758v15.025H289.563z
		"/>
	<path fill="#FFFFFF" d="M394.05,160.861l-28.249-38.67v38.67h-17.232v-66.82H366.3l27.051,36.766V94.041h17.33v66.82H394.05z"/>
	<path fill="#FFFFFF" d="M444.937,127.502c0-21.24,16.229-34.564,36.168-34.564c14.924,0,23.943,7.914,28.551,16.23l-14.426,7.514
		c-2.506-4.408-7.615-8.516-14.125-8.516c-10.92,0-18.635,8.316-18.635,19.336c0,10.92,7.715,19.334,18.635,19.334
		c4.908,0,9.916-2.004,12.321-4.008v-5.209h-15.028v-15.127h32.258v26.549c-7.112,7.914-16.929,13.023-29.551,13.023
		C461.165,162.064,444.937,148.738,444.937,127.502z"/>
	<path fill="#FFFFFF" d="M558.038,160.861l-11.221-22.439h-8.815v22.439H520.77v-66.82h33.462c14.826,0,23.244,9.816,23.244,22.24
		c0,11.621-7.016,17.832-13.325,20.035l13.623,24.545H558.038z M559.942,116.182c0-4.609-3.707-7.113-8.314-7.113h-13.626v14.326
		h13.626C556.235,123.395,559.942,120.889,559.942,116.182z"/>
	<path fill="#FFFFFF" d="M632.372,160.861l-3.306-9.617h-26.349l-3.306,9.617h-19.538l25.148-66.82h21.739l25.145,66.82H632.372z
		 M615.942,111.072l-8.518,25.145h16.932L615.942,111.072z"/>
	<path fill="#FFFFFF" d="M670.438,160.861l-25.147-66.82h19.537l16.53,48.188l16.43-48.188h19.534l-25.145,66.82H670.438z"/>
	<path fill="#FFFFFF" d="M722.227,160.861v-66.82h48.988v15.027h-31.756v10.418h31.056v15.027h-31.056v11.322h31.756v15.025H722.227
		z"/>
	<path fill="#FFFFFF" d="M780.931,160.861v-66.82h17.229v51.795h26.851v15.025H780.931z"/>
	<path fill="#FFFFFF" d="M856.062,127.502c0-20.639,15.63-34.564,36.168-34.564c16.129,0,24.844,9.117,29.152,17.834l-14.827,7.111
		c-2.204-5.309-7.915-9.717-14.325-9.717c-10.92,0-18.635,8.316-18.635,19.336c0,10.92,7.715,19.334,18.635,19.334
		c6.41,0,12.121-4.408,14.325-9.717l14.827,7.014c-4.309,8.514-13.023,17.932-29.152,17.932
		C871.691,162.064,856.062,148.039,856.062,127.502z"/>
	<path fill="#FFFFFF" d="M925.384,127.502c0-20.338,15.326-34.564,35.764-34.564s35.666,14.227,35.666,34.564
		c0,20.336-15.229,34.563-35.666,34.563S925.384,147.838,925.384,127.502z M979.28,127.502c0-10.92-7.113-19.336-18.133-19.336
		s-18.232,8.416-18.232,19.336c0,10.818,7.213,19.334,18.232,19.334S979.28,138.32,979.28,127.502z"/>
	<path fill="#FFFFFF" d="M1064.13,160.861v-44.18l-16.828,44.18h-7.615l-16.932-44.18v44.18h-17.232v-66.82h23.944l14.027,36.867
		l13.924-36.867h23.944v66.82H1064.13z"/>
	<path fill="#FFFFFF" d="M1093.38,160.861v-66.82h48.99v15.027h-31.758v10.418h31.057v15.027h-31.057v11.322h31.758v15.025H1093.38z
		"/>
	<path fill="#FFFFFF" d="M1152.384,160.861v-66.82h28.053c21.037,0,36.164,12.621,36.164,33.361
		c0,20.736-15.127,33.459-36.064,33.459H1152.384z M1198.97,127.402c0-10.32-6.212-18.334-18.434-18.334h-10.92v36.768h10.82
		C1192.155,145.836,1198.97,137.318,1198.97,127.402z"/>
	<path fill="#FFFFFF" d="M1239.438,160.861v-26.949l-25.346-39.871h19.434l14.527,24.645l14.324-24.645h19.538l-25.245,39.871
		v26.949H1239.438z"/>
	<path fill="#FFFFFF" d="M1312.465,160.861v-66.82h48.991v15.027h-31.759v10.418h31.056v15.027h-31.056v26.348H1312.465z"/>
	<path fill="#FFFFFF" d="M1370.767,160.861v-66.82h48.992v15.027H1388v10.418h31.056v15.027H1388v11.322h31.759v15.025H1370.767z"/>
	<path fill="#FFFFFF" d="M1424.964,151.445l9.117-13.426c4.808,4.809,12.221,8.816,21.438,8.816c5.812,0,9.418-2.004,9.418-5.311
		c0-8.814-37.77-1.502-37.77-27.248c0-11.221,9.417-21.238,26.549-21.238c10.719,0,20.036,3.205,27.148,9.316l-9.417,12.924
		c-5.61-4.709-12.924-7.014-19.534-7.014c-5.009,0-7.213,1.703-7.213,4.609c0,8.213,37.768,2.002,37.768,26.848
		c0,13.426-9.917,22.342-27.852,22.342C1441.093,162.064,1431.676,157.756,1424.964,151.445z"/>
	<path fill="#FFFFFF" d="M1503.702,160.861v-51.793h-18.732V94.041h54.599v15.027h-18.634v51.793H1503.702z"/>
	<path fill="#FFFFFF" d="M48.668,217.76v-30.1l-11.465,30.1h-5.188l-11.535-30.1v30.1H8.74v-45.523h16.313l9.557,25.117
		l9.486-25.117h16.313v45.523H48.668z"/>
	<path fill="#FFFFFF" d="M99.514,217.76l-2.252-6.551H79.311l-2.252,6.551H63.75l17.131-45.523h14.811l17.133,45.523H99.514z
		 M88.32,183.84l-5.801,17.131h11.535L88.32,183.84z"/>
	<path fill="#FFFFFF" d="M142.92,217.76l-11.943-17.131l-3.072,3.822v13.309h-11.74v-45.523h11.74v18.701l13.992-18.701h14.469
		l-17.678,21.295l18.633,24.229H142.92z"/>
	<path fill="#FFFFFF" d="M160.799,217.76v-45.523h33.377v10.238h-21.637v7.098h21.158v10.238h-21.158v7.713h21.637v10.236H160.799z"
		/>
	<path fill="#FFFFFF" d="M197.723,211.346l6.211-9.146c3.275,3.275,8.326,6.006,14.605,6.006c3.959,0,6.416-1.365,6.416-3.617
		c0-6.006-25.732-1.023-25.732-18.564c0-7.645,6.416-14.471,18.088-14.471c7.303,0,13.65,2.186,18.496,6.348l-6.416,8.805
		c-3.822-3.207-8.805-4.777-13.309-4.777c-3.412,0-4.914,1.16-4.914,3.141c0,5.596,25.73,1.363,25.73,18.291
		c0,9.146-6.756,15.221-18.975,15.221C208.711,218.58,202.295,215.645,197.723,211.346z"/>
	<g>
		<path fill="#FFFFFF" stroke="#FFFFFF" stroke-miterlimit="10" d="M262.828,286.471V172.367h29.426v114.104H262.828z"/>
		<path fill="#FFFFFF" stroke="#FFFFFF" stroke-miterlimit="10" d="M306.963,229.504c0-34.727,26.172-59.02,61.07-59.02
			c34.9,0,60.902,24.293,60.902,59.02s-26.002,59.02-60.902,59.02C333.135,288.523,306.963,264.23,306.963,229.504z
			 M398.998,229.504c0-18.646-12.146-33.016-30.965-33.016c-18.816,0-31.133,14.369-31.133,33.016
			c0,18.477,12.316,33.018,31.133,33.018C386.852,262.521,398.998,247.98,398.998,229.504z"/>
		<path fill="#FFFFFF" stroke="#FFFFFF" stroke-miterlimit="10" d="M527.467,286.471l-17.279-71.508l-17.277,71.508h-31.135
			l-32.674-114.104h33.016l17.277,76.127l19.502-76.127h22.582l19.502,76.127l17.105-76.127h33.189l-32.674,114.104H527.467z"/>
		<path fill="#FFFFFF" stroke="#FFFFFF" stroke-miterlimit="10" d="M670.814,286.471l-5.646-16.422h-44.99l-5.645,16.422h-33.359
			l42.939-114.104h37.121l42.939,114.104H670.814z M642.76,201.449l-14.541,42.939h28.91L642.76,201.449z"/>
		<path fill="#FFFFFF" stroke="#FFFFFF" stroke-miterlimit="10" d="M755.828,286.471V172.367h29.424v88.443H831.1v25.66H755.828z"/>
		<path fill="#FFFFFF" stroke="#FFFFFF" stroke-miterlimit="10" d="M923.643,286.471l-5.645-16.422h-44.992l-5.645,16.422h-33.359
			l42.939-114.104h37.121l42.939,114.104H923.643z M895.588,201.449l-14.541,42.939h28.912L895.588,201.449z"/>
		<path fill="#FFFFFF" stroke="#FFFFFF" stroke-miterlimit="10" d="M959.049,240.281v-67.914h29.938v66.889
			c0,13.514,8.213,23.266,24.123,23.266c15.738,0,23.949-9.752,23.949-23.266v-66.889h29.768v67.744
			c0,28.396-17.109,48.412-53.717,48.412C976.498,288.523,959.049,268.338,959.049,240.281z"/>
		<path fill="#FFFFFF" stroke="#FFFFFF" stroke-miterlimit="10" d="M1081.531,229.504c0-36.266,27.713-59.02,61.758-59.02
			c25.486,0,40.885,13.516,48.752,27.715l-24.633,12.83c-4.275-7.527-13-14.541-24.119-14.541c-18.646,0-31.82,14.199-31.82,33.016
			c0,18.646,13.174,33.018,31.82,33.018c8.381,0,16.936-3.422,21.039-6.844v-8.895h-25.658v-25.832h55.082v45.334
			c-12.145,13.514-28.908,22.238-50.463,22.238C1109.244,288.523,1081.531,265.771,1081.531,229.504z"/>
		<path fill="#FFFFFF" stroke="#FFFFFF" stroke-miterlimit="10" d="M1287.834,286.471v-45.846h-47.385v45.846h-29.426V172.367
			h29.426v42.596h47.385v-42.596h29.426v114.104H1287.834z"/>
		<path fill="#FFFFFF" stroke="#FFFFFF" stroke-miterlimit="10" d="M1458.381,286.471v-45.846h-47.385v45.846h-29.426V172.367
			h29.426v42.596h47.385v-42.596h29.426v114.104H1458.381z"/>
		<path fill="#FFFFFF" stroke="#FFFFFF" stroke-miterlimit="10" d="M1585.824,286.471l-5.645-16.422h-44.992l-5.645,16.422h-33.359
			l42.939-114.104h37.121l42.939,114.104H1585.824z M1557.77,201.449l-14.541,42.939h28.912L1557.77,201.449z"/>
		<path fill="#FFFFFF" stroke="#FFFFFF" stroke-miterlimit="10" d="M1691.197,286.471l-19.16-38.32h-15.053v38.32h-29.426V172.367
			h57.139c25.318,0,39.688,16.764,39.688,37.977c0,19.846-11.977,30.451-22.752,34.215l23.264,41.912H1691.197z M1694.447,210.174
			c0-7.869-6.328-12.146-14.199-12.146h-23.264v24.463h23.264C1688.119,222.49,1694.447,218.213,1694.447,210.174z"/>
		<path fill="#FFFFFF" stroke="#FFFFFF" stroke-miterlimit="10" d="M1740.629,286.471V172.367h47.9
			c35.926,0,61.756,21.555,61.756,56.967s-25.83,57.137-61.584,57.137H1740.629z M1820.178,229.334
			c0-17.621-10.607-31.307-31.477-31.307h-18.646v62.783h18.475C1808.545,260.811,1820.178,246.27,1820.178,229.334z"/>
		<path fill="#FFFFFF" stroke="#FFFFFF" stroke-miterlimit="10" d="M1864.99,286.471V172.367h83.654v25.66h-54.229v17.791h53.031
			v25.662h-53.031v19.33h54.229v25.66H1864.99z"/>
		<path fill="#FFFFFF" stroke="#FFFFFF" stroke-miterlimit="10" d="M2029.385,286.471l-19.162-38.32h-15.053v38.32h-29.426V172.367
			h57.139c25.318,0,39.689,16.764,39.689,37.977c0,19.846-11.977,30.451-22.754,34.215l23.266,41.912H2029.385z M2032.635,210.174
			c0-7.869-6.33-12.146-14.199-12.146h-23.266v24.463h23.266C2026.305,222.49,2032.635,218.213,2032.635,210.174z"/>
	</g>
	<text transform="matrix(1 0 0 1 -1218.5391 -1501.8232)"><tspan x="0" y="0" fill="#FFFFFF" font-family="'ProximaNova-Extrabld'" font-size="68.2496">on March 28-30, 2014</tspan><tspan x="0" y="50" fill="#FFFFFF" font-family="'ProximaNova-Extrabld'" font-size="68.2496">the green gravel comedy fest</tspan><tspan x="0" y="100" fill="#FFFFFF" font-family="'ProximaNova-Extrabld'" font-size="68.2496">makes iowa laugh harder</tspan></text>
	<g>
		<path fill="#FFFFFF" d="M-894.986,759.202l35.012-56.434c19.855,20.902,47.551,29.262,76.813,29.262
			c26.648,0,64.271-11.495,64.271-59.568v-19.334c-20.9,25.082-45.982,37.1-74.723,37.1c-61.66,0-110.777-42.325-110.777-127.498
			c0-83.084,47.551-126.977,110.777-126.977c28.217,0,54.344,10.973,74.723,36.055v-29.785h80.471v230.439
			c0,102.417-82.039,124.363-144.742,124.363C-826.533,796.825-862.588,785.853-894.986,759.202z M-718.891,596.694v-67.408
			c-9.928-13.586-31.352-22.469-48.074-22.469c-31.873,0-55.389,19.334-55.389,55.912c0,37.1,23.516,56.434,55.389,56.434
			C-750.242,619.163-728.818,610.28-718.891,596.694z"/>
	</g>
	<g>
		<path fill="#FFFFFF" d="M-972.715,696.825c-62.703,0-144.742-21.946-144.742-124.363V342.022h80.471v29.785
			c20.379-25.082,46.506-36.055,74.723-36.055c63.227,0,110.777,43.893,110.777,126.977c0,85.173-49.117,127.498-110.777,127.498
			c-28.74,0-53.822-12.018-74.723-37.1v19.334c0,48.073,37.623,59.568,64.271,59.568c29.262,0,56.957-8.359,76.813-29.262
			l35.012,56.434C-893.289,685.853-929.344,696.825-972.715,696.825z M-988.912,519.163c31.873,0,55.389-19.334,55.389-56.434
			c0-36.578-23.516-55.912-55.389-55.912c-16.723,0-38.146,8.883-48.074,22.469v67.408
			C-1027.059,510.28-1005.635,519.163-988.912,519.163z"/>
	</g>
	<path fill="#FFFFFF" d="M51.235-831.482c0-13.855,10.442-23.547,24.366-23.547s24.298,9.692,24.298,23.547
		c0,13.855-10.374,23.547-24.298,23.547S51.235-817.627,51.235-831.482z M87.955-831.482c0-7.439-4.846-13.173-12.354-13.173
		s-12.422,5.733-12.422,13.173c0,7.371,4.914,13.173,12.422,13.173S87.955-824.111,87.955-831.482z"/>
	<path fill="#FFFFFF" d="M136.821-808.754L117.574-835.1v26.346h-11.74v-45.524h12.081l18.429,25.049v-25.049h11.808v45.524H136.821
		z"/>
	<path fill="#FFFFFF" d="M213.737-808.754v-30.1l-11.466,30.1h-5.188l-11.534-30.1v30.1h-11.74v-45.524h16.313l9.556,25.117
		l9.487-25.117h16.313v45.524H213.737z"/>
	<path fill="#FFFFFF" d="M264.584-808.754l-2.252-6.552h-17.951l-2.252,6.552h-13.31l17.132-45.524h14.811l17.132,45.524H264.584z
		 M253.391-842.675l-5.802,17.131h11.535L253.391-842.675z"/>
	<path fill="#FFFFFF" d="M306.625-808.754l-7.645-15.289h-6.006v15.289h-11.74v-45.524h22.797c10.102,0,15.835,6.688,15.835,15.152
		c0,7.917-4.778,12.149-9.078,13.651l9.282,16.722H306.625z M307.922-839.194c0-3.14-2.525-4.846-5.665-4.846h-9.282v9.76h9.282
		C305.396-834.28,307.922-835.987,307.922-839.194z"/>
	<path fill="#FFFFFF" d="M324.026-831.482c0-14.06,10.647-23.547,24.64-23.547c10.988,0,16.927,6.211,19.861,12.149l-10.102,4.846
		c-1.502-3.618-5.392-6.621-9.76-6.621c-7.439,0-12.695,5.665-12.695,13.173c0,7.439,5.256,13.173,12.695,13.173
		c4.368,0,8.258-3.003,9.76-6.621l10.102,4.778c-2.935,5.801-8.873,12.217-19.861,12.217
		C334.674-807.935,324.026-817.49,324.026-831.482z"/>
	<path fill="#FFFFFF" d="M404.22-808.754v-18.292h-18.905v18.292h-11.74v-45.524h11.74v16.995h18.905v-16.995h11.74v45.524H404.22z"
		/>
	<path fill="#FFFFFF" d="M440.527-808.754v-9.146c19.726-14.265,23.411-17.404,23.411-21.977c0-3.071-2.936-4.709-6.279-4.709
		c-5.051,0-8.873,1.911-12.149,4.982l-6.483-7.781c4.846-5.324,12.08-7.576,18.428-7.576c10.716,0,18.429,6.006,18.429,15.084
		c0,7.03-4.982,12.968-16.313,20.885h16.653v10.238H440.527z"/>
	<path fill="#FFFFFF" d="M480.726-820.767c0-5.187,3.959-9.418,9.214-11.466c-4.846-1.843-8.463-5.119-8.463-10.579
		c0-8.805,9.691-12.149,18.564-12.149s18.564,3.344,18.564,12.149c0,5.46-3.617,8.736-8.531,10.579
		c5.324,2.048,9.282,6.279,9.282,11.466c0,8.873-9.487,12.832-19.315,12.832S480.726-811.825,480.726-820.767z M507.412-822.404
		c0-2.73-4.504-4.164-7.371-4.505c-2.935,0.341-7.371,1.774-7.371,4.505c0,2.457,3.003,4.095,7.371,4.095
		C504.272-818.309,507.412-819.947,507.412-822.404z M506.594-840.833c0-2.389-2.594-3.754-6.553-3.754
		c-3.958,0-6.62,1.365-6.62,3.754c0,2.32,3.822,3.617,6.62,4.027C502.84-837.215,506.594-838.512,506.594-840.833z"/>
	<path fill="#FFFFFF" d="M523.177-827.66v-8.805h16.38v8.805H523.177z"/>
	<path fill="#FFFFFF" d="M542.695-815.102l5.938-7.985c3.344,3.208,8.463,4.778,12.422,4.778c5.051,0,7.645-1.911,7.645-4.437
		c0-2.594-1.911-3.891-8.122-3.891c-1.979,0-5.461,0.068-6.144,0.137v-10.443c0.888,0.068,4.437,0.068,6.144,0.068
		c4.709,0,7.371-1.16,7.371-3.549c0-2.867-3.276-4.164-7.645-4.164c-4.163,0-8.122,1.501-11.33,4.368l-5.665-7.372
		c3.891-4.3,9.829-7.371,18.224-7.371c11.603,0,18.087,4.982,18.087,12.49c0,5.324-4.573,9.351-9.965,10.238
		c4.846,0.478,10.716,4.232,10.716,10.784c0,7.985-7.508,13.514-18.838,13.514C552.797-807.935,546.313-811.006,542.695-815.102z"/>
	<path fill="#FFFFFF" d="M584.463-831.482c0-12.013,6.211-23.479,19.521-23.479s19.521,11.466,19.521,23.479
		c0,12.012-6.211,23.547-19.521,23.547S584.463-819.47,584.463-831.482z M611.628-831.482c0-8.054-2.185-13.104-7.645-13.104
		s-7.645,5.051-7.645,13.104s2.185,13.173,7.645,13.173S611.628-823.428,611.628-831.482z"/>
	<path fill="#FFFFFF" d="M632.442-799.062l-4.368-3.549c2.184-1.092,5.051-4.027,5.802-6.484c-0.273,0.068-0.956,0.205-1.57,0.205
		c-2.935,0-5.323-2.252-5.323-5.597c0-3.48,2.866-6.279,6.279-6.279c3.686,0,6.961,2.867,6.961,7.849
		C640.223-807.321,637.22-802.406,632.442-799.062z"/>
	<path fill="#FFFFFF" d="M663.018-808.754v-9.146c19.726-14.265,23.411-17.404,23.411-21.977c0-3.071-2.936-4.709-6.279-4.709
		c-5.051,0-8.873,1.911-12.149,4.982l-6.483-7.781c4.846-5.324,12.08-7.576,18.428-7.576c10.716,0,18.429,6.006,18.429,15.084
		c0,7.03-4.982,12.968-16.313,20.885h16.653v10.238H663.018z"/>
	<path fill="#FFFFFF" d="M703.216-831.482c0-12.013,6.211-23.479,19.521-23.479s19.521,11.466,19.521,23.479
		c0,12.012-6.211,23.547-19.521,23.547S703.216-819.47,703.216-831.482z M730.381-831.482c0-8.054-2.185-13.104-7.645-13.104
		s-7.645,5.051-7.645,13.104s2.185,13.173,7.645,13.173S730.381-823.428,730.381-831.482z"/>
	<path fill="#FFFFFF" d="M758.702-808.754v-30.509l-7.644,7.712l-6.689-7.03l15.903-15.698h10.17v45.524H758.702z"/>
	<path fill="#FFFFFF" d="M797.81-808.754v-8.327h-21.772v-9.146l17.268-28.052h16.313v26.892h5.528v10.306h-5.528v8.327H797.81z
		 M797.81-844.041l-10.375,16.654h10.375V-844.041z"/>
	<path fill="#FFFFFF" d="M63.726-758.754v-35.287H50.963v-10.238H88.16v10.238H75.465v35.287H63.726z"/>
	<path fill="#FFFFFF" d="M124.399-758.754v-18.292h-18.905v18.292h-11.74v-45.524h11.74v16.995h18.905v-16.995h11.74v45.524H124.399
		z"/>
	<path fill="#FFFFFF" d="M144.327-758.754v-45.524h33.376v10.238h-21.636v7.098h21.158v10.238h-21.158v7.712h21.636v10.238H144.327z
		"/>
	<path fill="#FFFFFF" d="M199.677-781.482c0-14.47,11.057-23.547,24.64-23.547c10.169,0,16.313,5.392,19.451,11.057l-9.828,5.119
		c-1.706-3.003-5.187-5.801-9.623-5.801c-7.439,0-12.695,5.665-12.695,13.173c0,7.439,5.256,13.173,12.695,13.173
		c3.344,0,6.757-1.365,8.395-2.73v-3.549h-10.237v-10.306h21.977v18.087c-4.846,5.392-11.534,8.873-20.134,8.873
		C210.733-757.935,199.677-767.013,199.677-781.482z"/>
	<path fill="#FFFFFF" d="M276.731-758.754l-7.645-15.289h-6.006v15.289h-11.74v-45.524h22.797c10.102,0,15.835,6.688,15.835,15.152
		c0,7.917-4.778,12.149-9.078,13.651l9.282,16.722H276.731z M278.028-789.194c0-3.14-2.525-4.846-5.665-4.846h-9.282v9.76h9.282
		C275.503-784.28,278.028-785.987,278.028-789.194z"/>
	<path fill="#FFFFFF" d="M296.453-758.754v-45.524h33.376v10.238h-21.636v7.098h21.158v10.238h-21.158v7.712h21.636v10.238H296.453z
		"/>
	<path fill="#FFFFFF" d="M336.651-758.754v-45.524h33.376v10.238h-21.636v7.098h21.158v10.238h-21.158v7.712h21.636v10.238H336.651z
		"/>
	<path fill="#FFFFFF" d="M407.837-758.754L388.59-785.1v26.346h-11.74v-45.524h12.081l18.429,25.049v-25.049h11.808v45.524H407.837z
		"/>
	<path fill="#FFFFFF" d="M442.505-781.482c0-14.47,11.057-23.547,24.64-23.547c10.169,0,16.313,5.392,19.451,11.057l-9.828,5.119
		c-1.706-3.003-5.187-5.801-9.623-5.801c-7.439,0-12.695,5.665-12.695,13.173c0,7.439,5.256,13.173,12.695,13.173
		c3.344,0,6.757-1.365,8.395-2.73v-3.549h-10.237v-10.306h21.977v18.087c-4.846,5.392-11.534,8.873-20.134,8.873
		C453.562-757.935,442.505-767.013,442.505-781.482z"/>
	<path fill="#FFFFFF" d="M519.56-758.754l-7.645-15.289h-6.006v15.289h-11.74v-45.524h22.797c10.102,0,15.835,6.688,15.835,15.152
		c0,7.917-4.778,12.149-9.078,13.651l9.282,16.722H519.56z M520.856-789.194c0-3.14-2.525-4.846-5.665-4.846h-9.282v9.76h9.282
		C518.331-784.28,520.856-785.987,520.856-789.194z"/>
	<path fill="#FFFFFF" d="M570.201-758.754l-2.252-6.552h-17.951l-2.252,6.552h-13.31l17.132-45.524h14.811l17.132,45.524H570.201z
		 M559.008-792.675l-5.802,17.131h11.535L559.008-792.675z"/>
	<path fill="#FFFFFF" d="M596.135-758.754l-17.132-45.524h13.31l11.262,32.83l11.193-32.83h13.31l-17.132,45.524H596.135z"/>
	<path fill="#FFFFFF" d="M631.418-758.754v-45.524h33.376v10.238h-21.636v7.098h21.158v10.238h-21.158v7.712h21.636v10.238H631.418z
		"/>
	<path fill="#FFFFFF" d="M671.412-758.754v-45.524h11.739v35.287h18.292v10.238H671.412z"/>
	<path fill="#FFFFFF" d="M722.599-781.482c0-14.06,10.647-23.547,24.64-23.547c10.988,0,16.927,6.211,19.861,12.149l-10.102,4.846
		c-1.502-3.618-5.392-6.621-9.76-6.621c-7.439,0-12.695,5.665-12.695,13.173c0,7.439,5.256,13.173,12.695,13.173
		c4.368,0,8.258-3.003,9.76-6.621l10.102,4.778c-2.935,5.801-8.873,12.217-19.861,12.217
		C733.246-757.935,722.599-767.49,722.599-781.482z"/>
	<path fill="#FFFFFF" d="M769.826-781.482c0-13.855,10.442-23.547,24.366-23.547s24.298,9.692,24.298,23.547
		c0,13.855-10.374,23.547-24.298,23.547S769.826-767.627,769.826-781.482z M806.546-781.482c0-7.439-4.846-13.173-12.354-13.173
		s-12.422,5.733-12.422,13.173c0,7.371,4.914,13.173,12.422,13.173S806.546-774.111,806.546-781.482z"/>
	<path fill="#FFFFFF" d="M864.353-758.754v-30.1l-11.466,30.1h-5.188l-11.534-30.1v30.1h-11.74v-45.524h16.313l9.556,25.117
		l9.487-25.117h16.313v45.524H864.353z"/>
	<path fill="#FFFFFF" d="M884.28-758.754v-45.524h33.376v10.238h-21.636v7.098h21.158v10.238h-21.158v7.712h21.636v10.238H884.28z"
		/>
	<path fill="#FFFFFF" d="M924.479-758.754v-45.524h19.111c14.333,0,24.639,8.6,24.639,22.728s-10.306,22.796-24.57,22.796H924.479z
		 M956.217-781.55c0-7.03-4.232-12.49-12.559-12.49h-7.439v25.049h7.371C951.575-768.992,956.217-774.793,956.217-781.55z"/>
	<path fill="#FFFFFF" d="M983.788-758.754v-18.36l-17.269-27.165h13.241l9.896,16.79l9.76-16.79h13.31l-17.199,27.165v18.36H983.788
		z"/>
	<path fill="#FFFFFF" d="M1033.54-758.754v-45.524h33.376v10.238h-21.636v7.098h21.158v10.238h-21.158v17.95H1033.54z"/>
	<path fill="#FFFFFF" d="M1073.261-758.754v-45.524h33.376v10.238h-21.636v7.098h21.158v10.238h-21.158v7.712h21.636v10.238
		H1073.261z"/>
	<path fill="#FFFFFF" d="M1110.184-765.169l6.211-9.146c3.275,3.276,8.326,6.006,14.605,6.006c3.959,0,6.416-1.365,6.416-3.618
		c0-6.006-25.731-1.023-25.731-18.564c0-7.645,6.416-14.47,18.087-14.47c7.304,0,13.65,2.184,18.497,6.348l-6.416,8.805
		c-3.822-3.208-8.805-4.778-13.31-4.778c-3.412,0-4.914,1.16-4.914,3.14c0,5.597,25.731,1.365,25.731,18.292
		c0,9.146-6.757,15.22-18.975,15.22C1121.172-757.935,1114.756-760.87,1110.184-765.169z"/>
	<path fill="#FFFFFF" d="M1163.827-758.754v-35.287h-12.763v-10.238h37.197v10.238h-12.695v35.287H1163.827z"/>
	<path fill="#FFFFFF" d="M93.483-708.754v-30.1l-11.466,30.1H76.83l-11.534-30.1v30.1h-11.74v-45.524h16.313l9.556,25.117
		l9.487-25.117h16.313v45.524H93.483z"/>
	<path fill="#FFFFFF" d="M144.329-708.754l-2.253-6.552h-17.95l-2.252,6.552h-13.31l17.132-45.524h14.811l17.132,45.524H144.329z
		 M133.136-742.675l-5.802,17.131h11.535L133.136-742.675z"/>
	<path fill="#FFFFFF" d="M187.735-708.754l-11.944-17.131l-3.071,3.822v13.309h-11.74v-45.524h11.74v18.701l13.991-18.701h14.47
		l-17.678,21.295l18.633,24.229H187.735z"/>
	<path fill="#FFFFFF" d="M205.614-708.754v-45.524h33.376v10.238h-21.636v7.098h21.158v10.238h-21.158v7.712h21.636v10.238H205.614z
		"/>
	<path fill="#FFFFFF" d="M242.537-715.169l6.211-9.146c3.275,3.276,8.326,6.006,14.605,6.006c3.959,0,6.416-1.365,6.416-3.618
		c0-6.006-25.731-1.023-25.731-18.564c0-7.645,6.416-14.47,18.087-14.47c7.304,0,13.65,2.184,18.497,6.348l-6.416,8.805
		c-3.822-3.208-8.805-4.778-13.31-4.778c-3.412,0-4.914,1.16-4.914,3.14c0,5.597,25.731,1.365,25.731,18.292
		c0,9.146-6.757,15.22-18.975,15.22C253.525-707.935,247.109-710.87,242.537-715.169z"/>
	<path fill="#FFFFFF" d="M304.643-708.754v-45.524h11.74v45.524H304.643z"/>
	<path fill="#FFFFFF" d="M322.251-731.482c0-13.855,10.442-23.547,24.366-23.547s24.298,9.692,24.298,23.547
		c0,13.855-10.374,23.547-24.298,23.547S322.251-717.627,322.251-731.482z M358.971-731.482c0-7.439-4.846-13.173-12.354-13.173
		s-12.422,5.733-12.422,13.173c0,7.371,4.914,13.173,12.422,13.173S358.971-724.111,358.971-731.482z"/>
	<path fill="#FFFFFF" d="M410.227-708.754l-6.894-28.53l-6.894,28.53h-12.422l-13.036-45.524h13.173l6.893,30.373l7.781-30.373h9.01
		l7.78,30.373l6.825-30.373h13.241l-13.036,45.524H410.227z"/>
	<path fill="#FFFFFF" d="M467.419-708.754l-2.253-6.552h-17.95l-2.252,6.552h-13.31l17.132-45.524h14.811l17.132,45.524H467.419z
		 M456.226-742.675l-5.802,17.131h11.535L456.226-742.675z"/>
	<path fill="#FFFFFF" d="M501.337-708.754v-45.524h11.739v35.287h18.292v10.238H501.337z"/>
	<path fill="#FFFFFF" d="M568.291-708.754l-2.252-6.552h-17.951l-2.252,6.552h-13.31l17.132-45.524h14.811l17.132,45.524H568.291z
		 M557.098-742.675l-5.802,17.131h11.535L557.098-742.675z"/>
	<path fill="#FFFFFF" d="M582.417-727.182v-27.096h11.944v26.687c0,5.392,3.276,9.283,9.624,9.283c6.279,0,9.556-3.891,9.556-9.283
		v-26.687h11.876v27.028c0,11.33-6.826,19.315-21.432,19.315C589.379-707.935,582.417-715.989,582.417-727.182z"/>
	<path fill="#FFFFFF" d="M631.284-731.482c0-14.47,11.057-23.547,24.64-23.547c10.169,0,16.313,5.392,19.451,11.057l-9.828,5.119
		c-1.706-3.003-5.187-5.801-9.623-5.801c-7.439,0-12.695,5.665-12.695,13.173c0,7.439,5.256,13.173,12.695,13.173
		c3.344,0,6.757-1.365,8.395-2.73v-3.549h-10.237v-10.306h21.977v18.087c-4.846,5.392-11.534,8.873-20.134,8.873
		C642.341-707.935,631.284-717.013,631.284-731.482z"/>
	<path fill="#FFFFFF" d="M713.594-708.754v-18.292h-18.905v18.292h-11.74v-45.524h11.74v16.995h18.905v-16.995h11.74v45.524H713.594
		z"/>
	<path fill="#FFFFFF" d="M781.638-708.754v-18.292h-18.905v18.292h-11.74v-45.524h11.74v16.995h18.905v-16.995h11.74v45.524H781.638
		z"/>
	<path fill="#FFFFFF" d="M832.484-708.754l-2.252-6.552h-17.951l-2.252,6.552h-13.31l17.132-45.524h14.811l17.132,45.524H832.484z
		 M821.291-742.675l-5.802,17.131h11.535L821.291-742.675z"/>
	<path fill="#FFFFFF" d="M874.525-708.754l-7.645-15.289h-6.006v15.289h-11.74v-45.524h22.797c10.102,0,15.835,6.688,15.835,15.152
		c0,7.917-4.778,12.149-9.078,13.651l9.282,16.722H874.525z M875.822-739.194c0-3.14-2.525-4.846-5.665-4.846h-9.282v9.76h9.282
		C873.297-734.28,875.822-735.987,875.822-739.194z"/>
	<path fill="#FFFFFF" d="M894.247-708.754v-45.524h19.111c14.333,0,24.639,8.6,24.639,22.728s-10.306,22.796-24.57,22.796H894.247z
		 M925.985-731.55c0-7.03-4.232-12.49-12.559-12.49h-7.439v25.049h7.371C921.344-718.992,925.985-724.793,925.985-731.55z"/>
	<path fill="#FFFFFF" d="M943.864-708.754v-45.524h33.376v10.238h-21.636v7.098h21.158v10.238h-21.158v7.712h21.636v10.238H943.864z
		"/>
	<path fill="#FFFFFF" d="M1009.453-708.754l-7.645-15.289h-6.006v15.289h-11.74v-45.524h22.797c10.102,0,15.835,6.688,15.835,15.152
		c0,7.917-4.778,12.149-9.078,13.651l9.282,16.722H1009.453z M1010.75-739.194c0-3.14-2.525-4.846-5.665-4.846h-9.282v9.76h9.282
		C1008.225-734.28,1010.75-735.987,1010.75-739.194z"/>
	<g>
		<text transform="matrix(1 0 0 1 250.6611 -331.1055)" fill="#FFFFFF" font-family="'ProximaNova-Extrabld'" font-size="522.5331">g</text>
		
			<text transform="matrix(-1 0 0 1 329.6934 -431.1055)" fill="#FFFFFF" font-family="'ProximaNova-Extrabld'" font-size="522.5331">g</text>
	</g>
	
		<line fill="none" stroke="#FFFFFF" stroke-width="8" stroke-miterlimit="10" x1="1381.57" y1="304.443" x2="2063.084" y2="304.443"/>
	<path fill="#FFFFFF" d="M6.42,954.341c0-13.855,10.443-23.549,24.367-23.549s24.297,9.693,24.297,23.549
		c0,13.854-10.373,23.547-24.297,23.547S6.42,968.194,6.42,954.341z M43.141,954.341c0-7.439-4.846-13.174-12.354-13.174
		s-12.422,5.734-12.422,13.174c0,7.371,4.914,13.172,12.422,13.172S43.141,961.712,43.141,954.341z"/>
	<path fill="#FFFFFF" d="M92.006,977.067L72.76,950.722v26.346H61.02v-45.523H73.1l18.43,25.049v-25.049h11.807v45.523H92.006z"/>
	<path fill="#FFFFFF" d="M168.922,977.067v-30.1l-11.465,30.1h-5.188l-11.535-30.1v30.1h-11.74v-45.523h16.313l9.557,25.117
		l9.486-25.117h16.313v45.523H168.922z"/>
	<path fill="#FFFFFF" d="M219.77,977.067l-2.252-6.551h-17.951l-2.252,6.551h-13.311l17.133-45.523h14.811l17.131,45.523H219.77z
		 M208.576,943.147l-5.803,17.131h11.535L208.576,943.147z"/>
	<path fill="#FFFFFF" d="M261.811,977.067l-7.645-15.287h-6.006v15.287h-11.74v-45.523h22.797c10.102,0,15.834,6.688,15.834,15.152
		c0,7.916-4.777,12.148-9.078,13.65l9.283,16.721H261.811z M263.107,946.628c0-3.141-2.525-4.846-5.666-4.846h-9.281v9.76h9.281
		C260.582,951.542,263.107,949.835,263.107,946.628z"/>
	<path fill="#FFFFFF" d="M279.211,954.341c0-14.061,10.648-23.549,24.641-23.549c10.988,0,16.926,6.211,19.861,12.15l-10.102,4.846
		c-1.502-3.617-5.393-6.621-9.76-6.621c-7.439,0-12.695,5.666-12.695,13.174c0,7.439,5.256,13.172,12.695,13.172
		c4.367,0,8.258-3.004,9.76-6.621l10.102,4.779c-2.936,5.801-8.873,12.217-19.861,12.217
		C289.859,977.888,279.211,968.331,279.211,954.341z"/>
	<path fill="#FFFFFF" d="M359.404,977.067v-18.291H340.5v18.291h-11.74v-45.523h11.74v16.994h18.904v-16.994h11.74v45.523H359.404z"
		/>
	<path fill="#FFFFFF" d="M395.713,977.067v-9.145c19.725-14.266,23.41-17.404,23.41-21.979c0-3.07-2.936-4.709-6.279-4.709
		c-5.051,0-8.873,1.912-12.148,4.982l-6.484-7.781c4.846-5.322,12.08-7.576,18.428-7.576c10.717,0,18.43,6.008,18.43,15.084
		c0,7.031-4.982,12.969-16.313,20.887h16.652v10.236H395.713z"/>
	<path fill="#FFFFFF" d="M435.91,965.056c0-5.188,3.959-9.418,9.215-11.467c-4.846-1.842-8.463-5.119-8.463-10.578
		c0-8.805,9.691-12.15,18.564-12.15s18.564,3.346,18.564,12.15c0,5.459-3.617,8.736-8.531,10.578
		c5.324,2.049,9.281,6.279,9.281,11.467c0,8.873-9.486,12.832-19.314,12.832S435.91,973.997,435.91,965.056z M462.598,963.417
		c0-2.73-4.504-4.162-7.371-4.504c-2.936,0.342-7.371,1.773-7.371,4.504c0,2.457,3.002,4.096,7.371,4.096
		C459.457,967.513,462.598,965.874,462.598,963.417z M461.779,944.989c0-2.389-2.594-3.754-6.553-3.754s-6.621,1.365-6.621,3.754
		c0,2.32,3.822,3.617,6.621,4.027C458.025,948.606,461.779,947.31,461.779,944.989z"/>
	<path fill="#FFFFFF" d="M478.361,958.163v-8.805h16.381v8.805H478.361z"/>
	<path fill="#FFFFFF" d="M497.881,970.72l5.938-7.984c3.344,3.207,8.463,4.777,12.422,4.777c5.051,0,7.645-1.91,7.645-4.436
		c0-2.594-1.91-3.891-8.121-3.891c-1.98,0-5.461,0.068-6.145,0.137V948.88c0.889,0.068,4.438,0.068,6.145,0.068
		c4.709,0,7.371-1.16,7.371-3.549c0-2.867-3.277-4.164-7.645-4.164c-4.164,0-8.123,1.502-11.33,4.369l-5.666-7.373
		c3.891-4.299,9.83-7.371,18.225-7.371c11.602,0,18.086,4.982,18.086,12.49c0,5.324-4.572,9.352-9.965,10.238
		c4.846,0.479,10.717,4.232,10.717,10.785c0,7.984-7.508,13.514-18.838,13.514C507.982,977.888,501.498,974.815,497.881,970.72z"/>
	<path fill="#FFFFFF" d="M539.648,954.341c0-12.014,6.211-23.48,19.52-23.48c13.311,0,19.521,11.467,19.521,23.48
		c0,12.012-6.211,23.547-19.521,23.547C545.859,977.888,539.648,966.353,539.648,954.341z M566.813,954.341
		c0-8.055-2.184-13.105-7.645-13.105c-5.459,0-7.645,5.051-7.645,13.105c0,8.053,2.186,13.172,7.645,13.172
		C564.629,967.513,566.813,962.394,566.813,954.341z"/>
	<path fill="#FFFFFF" d="M590.114,986.761l-4.367-3.551c2.184-1.092,5.051-4.025,5.801-6.482c-0.273,0.068-0.955,0.203-1.57,0.203
		c-2.934,0-5.322-2.252-5.322-5.596c0-3.48,2.865-6.279,6.279-6.279c3.686,0,6.961,2.867,6.961,7.85
		C597.896,978.501,594.892,983.415,590.114,986.761z"/>
	<path fill="#FFFFFF" d="M618.203,977.067v-9.145c19.725-14.266,23.41-17.404,23.41-21.979c0-3.07-2.936-4.709-6.279-4.709
		c-5.051,0-8.873,1.912-12.148,4.982l-6.484-7.781c4.846-5.322,12.08-7.576,18.428-7.576c10.717,0,18.43,6.008,18.43,15.084
		c0,7.031-4.982,12.969-16.313,20.887h16.652v10.236H618.203z"/>
	<path fill="#FFFFFF" d="M658.4,954.341c0-12.014,6.211-23.48,19.521-23.48c13.309,0,19.52,11.467,19.52,23.48
		c0,12.012-6.211,23.547-19.52,23.547C664.611,977.888,658.4,966.353,658.4,954.341z M685.566,954.341
		c0-8.055-2.186-13.105-7.645-13.105c-5.461,0-7.645,5.051-7.645,13.105c0,8.053,2.184,13.172,7.645,13.172
		C683.381,967.513,685.566,962.394,685.566,954.341z"/>
	<path fill="#FFFFFF" d="M713.887,977.067V946.56l-7.643,7.713l-6.689-7.031l15.902-15.697h10.17v45.523H713.887z"/>
	<path fill="#FFFFFF" d="M752.994,977.067v-8.326h-21.771v-9.146l17.268-28.051h16.313v26.891h5.527v10.307h-5.527v8.326H752.994z
		 M752.994,941.782l-10.375,16.652h10.375V941.782z"/>
	<path fill="#FFFFFF" d="M15.326,1011.356v-18.211H8.74v-5.283h19.196v5.283h-6.551v18.211H15.326z"/>
	<path fill="#FFFFFF" d="M46.639,1011.356v-9.441h-9.757v9.441h-6.059v-23.494h6.059v8.77h9.757v-8.77h6.059v23.494H46.639z"/>
	<path fill="#FFFFFF" d="M56.923,1011.356v-23.494h17.225v5.283H62.981v3.662H73.9v5.285H62.981v3.98h11.166v5.283H56.923z"/>
	<path fill="#FFFFFF" d="M88.511,1021.323c0-21.24,16.229-34.564,36.168-34.564c14.924,0,23.943,7.914,28.551,16.23l-14.427,7.514
		c-2.505-4.408-7.614-8.516-14.124-8.516c-10.92,0-18.635,8.316-18.635,19.336c0,10.92,7.715,19.334,18.635,19.334
		c4.907,0,9.916-2.004,12.32-4.008v-5.209h-15.027v-15.127h32.258v26.549c-7.113,7.914-16.929,13.023-29.551,13.023
		C104.739,1055.886,88.511,1042.56,88.511,1021.323z"/>
	<path fill="#FFFFFF" d="M201.612,1054.683l-11.221-22.439h-8.816v22.439h-17.232v-66.82h33.463c14.826,0,23.244,9.816,23.244,22.24
		c0,11.621-7.016,17.832-13.326,20.035l13.623,24.545H201.612z M203.516,1010.003c0-4.609-3.706-7.113-8.313-7.113h-13.627v14.326
		h13.627C199.81,1017.216,203.516,1014.71,203.516,1010.003z"/>
	<path fill="#FFFFFF" d="M230.562,1054.683v-66.82h48.988v15.027h-31.756v10.418h31.057v15.027h-31.057v11.322h31.756v15.025
		H230.562z"/>
	<path fill="#FFFFFF" d="M289.563,1054.683v-66.82h48.99v15.027h-31.758v10.418h31.057v15.027h-31.057v11.322h31.758v15.025H289.563
		z"/>
	<path fill="#FFFFFF" d="M394.05,1054.683l-28.249-38.67v38.67h-17.232v-66.82H366.3l27.051,36.766v-36.766h17.33v66.82H394.05z"/>
	<path fill="#FFFFFF" d="M444.937,1021.323c0-21.24,16.229-34.564,36.168-34.564c14.924,0,23.943,7.914,28.551,16.23l-14.426,7.514
		c-2.506-4.408-7.615-8.516-14.125-8.516c-10.92,0-18.635,8.316-18.635,19.336c0,10.92,7.715,19.334,18.635,19.334
		c4.908,0,9.916-2.004,12.321-4.008v-5.209h-15.028v-15.127h32.258v26.549c-7.112,7.914-16.929,13.023-29.551,13.023
		C461.165,1055.886,444.937,1042.56,444.937,1021.323z"/>
	<path fill="#FFFFFF" d="M558.038,1054.683l-11.221-22.439h-8.815v22.439H520.77v-66.82h33.462c14.826,0,23.244,9.816,23.244,22.24
		c0,11.621-7.016,17.832-13.325,20.035l13.623,24.545H558.038z M559.942,1010.003c0-4.609-3.707-7.113-8.314-7.113h-13.626v14.326
		h13.626C556.235,1017.216,559.942,1014.71,559.942,1010.003z"/>
	<path fill="#FFFFFF" d="M632.372,1054.683l-3.306-9.617h-26.349l-3.306,9.617h-19.538l25.148-66.82h21.739l25.145,66.82H632.372z
		 M615.942,1004.894l-8.518,25.145h16.932L615.942,1004.894z"/>
	<path fill="#FFFFFF" d="M670.438,1054.683l-25.147-66.82h19.537l16.53,48.188l16.43-48.188h19.534l-25.145,66.82H670.438z"/>
	<path fill="#FFFFFF" d="M739.91,1055.415l-19.829-63.81l46.782-14.538l4.459,14.351l-30.325,9.423l3.091,9.949l29.657-9.215
		l4.459,14.349l-29.657,9.218l3.36,10.812l30.325-9.424l4.459,14.349L739.91,1055.415z"/>
	<path fill="#FFFFFF" d="M793.729,1038.853l-10.995-65.909l16.995-2.836l8.523,51.09l26.484-4.418l2.473,14.82L793.729,1038.853z"/>
	<g>
		<g>
			<path fill="#FFFFFF" d="M856.062,994.644c0-1.72,0.106-3.409,0.315-5.064c0.209-1.656,0.523-3.277,0.93-4.858
				s0.908-3.122,1.5-4.617s1.274-2.946,2.039-4.345s1.612-2.744,2.537-4.035s1.928-2.524,3.001-3.696s2.218-2.28,3.427-3.322
				c1.21-1.042,2.484-2.017,3.817-2.917s2.728-1.725,4.172-2.473s2.941-1.416,4.485-2c1.545-0.584,3.135-1.084,4.766-1.493
				s3.304-0.729,5.01-0.952c2.297-0.301,4.442-0.393,6.447-0.301s3.866,0.362,5.596,0.784s3.326,0.996,4.799,1.688
				s2.821,1.504,4.053,2.406s2.346,1.896,3.354,2.948s1.911,2.165,2.714,3.31s1.506,2.325,2.121,3.503
				c-1.48,0.873-2.773,1.64-3.977,2.353s-2.313,1.371-3.424,2.032c-1.109,0.661-2.221,1.321-3.424,2.04
				c-1.202,0.719-2.494,1.495-3.974,2.385c-0.55-1.261-1.319-2.438-2.263-3.483s-2.063-1.956-3.312-2.684s-2.628-1.271-4.095-1.579
				s-3.02-0.383-4.617-0.174c-1.555,0.204-3.045,0.571-4.456,1.084s-2.742,1.169-3.983,1.953s-2.391,1.695-3.436,2.713
				s-1.984,2.142-2.808,3.354s-1.526,2.515-2.102,3.886c-0.574,1.371-1.021,2.809-1.321,4.3s-0.455,3.034-0.455,4.608
				c0,1.82,0.215,3.538,0.62,5.133c0.406,1.595,1.001,3.066,1.771,4.389s1.713,2.494,2.807,3.496
				c1.093,1.002,2.337,1.834,3.712,2.469s2.879,1.074,4.494,1.296s3.344,0.228,5.157-0.01c1.597-0.21,3.15-0.687,4.617-1.37
				s2.845-1.575,4.094-2.613s2.366-2.226,3.31-3.5s1.715-2.638,2.265-4.031c1.479,0.523,2.771,0.983,3.974,1.412
				s2.313,0.826,3.422,1.225c1.11,0.398,2.221,0.798,3.424,1.232c1.203,0.436,2.498,0.904,3.979,1.444
				c-0.538,1.123-1.145,2.271-1.826,3.418s-1.437,2.298-2.272,3.433c-0.836,1.134-1.75,2.25-2.753,3.332
				c-1.002,1.082-2.093,2.127-3.273,3.12s-2.453,1.936-3.824,2.801s-2.841,1.655-4.413,2.356s-3.247,1.313-5.032,1.813
				s-3.68,0.892-5.689,1.155c-1.861,0.244-3.681,0.369-5.452,0.382s-3.497-0.087-5.163-0.296s-3.273-0.526-4.817-0.95
				c-1.544-0.425-3.024-0.956-4.431-1.587s-2.742-1.364-3.996-2.195s-2.424-1.76-3.508-2.783s-2.083-2.139-2.982-3.346
				s-1.701-2.506-2.399-3.891s-1.292-2.856-1.773-4.41s-0.853-3.188-1.101-4.901S856.062,996.511,856.062,994.644z"/>
			<path fill="#FFFFFF" d="M925.145,985.509c0-1.695,0.105-3.361,0.313-4.988s0.513-3.217,0.914-4.766s0.896-3.054,1.481-4.513
				s1.259-2.871,2.016-4.229s1.595-2.665,2.511-3.91s1.908-2.429,2.973-3.55s2.197-2.178,3.397-3.164s2.468-1.902,3.792-2.741
				s2.706-1.601,4.143-2.281s2.93-1.276,4.468-1.786s3.122-0.932,4.749-1.26s3.298-0.567,5.002-0.703
				c1.859-0.148,3.675-0.173,5.44-0.077s3.481,0.312,5.139,0.639s3.257,0.766,4.79,1.312s3.002,1.198,4.396,1.95
				c1.395,0.753,2.72,1.605,3.961,2.552s2.399,1.986,3.472,3.114s2.06,2.346,2.947,3.643c0.888,1.296,1.68,2.673,2.368,4.125
				c0.689,1.452,1.273,2.978,1.748,4.574s0.836,3.266,1.081,4.994s0.373,3.521,0.373,5.369c0,1.694-0.109,3.351-0.315,4.967
				s-0.508,3.19-0.909,4.719s-0.897,3.011-1.481,4.44s-1.255,2.809-2.01,4.132s-1.592,2.59-2.506,3.796
				c-0.914,1.207-1.906,2.352-2.968,3.433c-1.063,1.081-2.195,2.097-3.394,3.043s-2.463,1.823-3.785,2.626s-2.704,1.532-4.14,2.182
				c-1.437,0.649-2.927,1.219-4.464,1.707s-3.119,0.893-4.746,1.209s-3.294,0.544-4.998,0.68c-1.859,0.148-3.68,0.183-5.446,0.102
				s-3.481-0.276-5.14-0.577s-3.26-0.709-4.795-1.22s-3.008-1.124-4.404-1.835s-2.72-1.522-3.963-2.425s-2.404-1.897-3.479-2.981
				s-2.059-2.259-2.948-3.515s-1.684-2.593-2.374-4.012s-1.278-2.92-1.754-4.492s-0.841-3.219-1.086-4.934
				S925.145,987.357,925.145,985.509z M979.053,980.861c0-1.82-0.198-3.559-0.579-5.187s-0.944-3.147-1.676-4.53
				s-1.632-2.63-2.686-3.713s-2.26-1.998-3.604-2.727c-1.345-0.728-2.828-1.268-4.435-1.586s-3.333-0.419-5.171-0.272
				c-1.575,0.125-3.074,0.42-4.483,0.863s-2.732,1.037-3.957,1.76c-1.224,0.724-2.35,1.575-3.368,2.541
				c-1.02,0.966-1.931,2.043-2.725,3.213s-1.471,2.435-2.02,3.771s-0.972,2.749-1.256,4.216s-0.431,2.991-0.431,4.552
				c0,1.803,0.201,3.523,0.586,5.134c0.386,1.61,0.954,3.11,1.692,4.475s1.645,2.592,2.704,3.657s2.276,1.969,3.627,2.683
				s2.838,1.239,4.448,1.549s3.344,0.403,5.183,0.257c1.575-0.125,3.068-0.415,4.476-0.852c1.406-0.438,2.723-1.018,3.942-1.73
				s2.341-1.555,3.354-2.506s1.918-2.013,2.706-3.168c0.787-1.154,1.458-2.404,2.002-3.727c0.545-1.322,0.963-2.717,1.244-4.169
				S979.053,982.407,979.053,980.861z"/>
			<path fill="#FFFFFF" d="M1064.113,1011.253c0-1.964,0-3.817,0-5.587s0-3.453,0-5.077s0-3.189,0-4.717s0-3.019,0-4.497
				s0-2.945,0-4.424s0-2.97,0-4.497s0-3.089,0-4.713s0-3.309,0-5.078s0-3.625,0-5.589c-0.676,1.77-1.316,3.452-1.932,5.063
				c-0.614,1.611-1.201,3.151-1.768,4.64s-1.112,2.925-1.646,4.325s-1.054,2.763-1.567,4.11s-1.02,2.676-1.525,4.006
				s-1.014,2.663-1.527,4.012s-1.033,2.716-1.566,4.118s-1.08,2.841-1.647,4.333s-1.153,3.035-1.768,4.652s-1.258,3.307-1.933,5.085
				c-1.527,0.024-2.672,0.045-3.818,0.066s-2.292,0.043-3.819,0.076c-0.679-1.753-1.323-3.417-1.942-5.011
				c-0.618-1.594-1.208-3.118-1.778-4.589s-1.122-2.887-1.658-4.27s-1.06-2.728-1.576-4.057c-0.517-1.33-1.026-2.643-1.536-3.954
				s-1.018-2.62-1.533-3.948s-1.038-2.673-1.574-4.053s-1.088-2.796-1.658-4.263s-1.162-2.985-1.779-4.573s-1.262-3.245-1.941-4.989
				c0,1.964,0,3.819,0,5.589s0,3.454,0,5.078s0,3.186,0,4.713s0,3.019,0,4.497s0.002,2.948,0.002,4.427s-0.002,2.969-0.002,4.496
				s0.001,3.091,0.001,4.715s-0.003,3.309-0.003,5.078s0.002,3.622,0.002,5.586c-1.728,0.059-3.24,0.113-4.644,0.166
				s-2.699,0.104-3.995,0.156s-2.592,0.107-3.996,0.168c-1.403,0.061-2.914,0.128-4.642,0.209c0-1.909,0-3.75,0-5.532
				s0.001-3.505,0.001-5.181s-0.001-3.304-0.001-4.892s0-3.134,0-4.653s0-3.013,0-4.483s0-2.922,0-4.363s0-2.874,0-4.306
				s0-2.863,0-4.305s0-2.894,0-4.364s0-2.961,0-4.48s0-3.067,0-4.655s0-3.213,0-4.889s0-3.401,0-5.184s0-3.623,0-5.532
				c1.92-0.09,3.647-0.166,5.261-0.235s3.111-0.13,4.571-0.188c1.459-0.058,2.88-0.114,4.34-0.167s2.96-0.104,4.573-0.156
				c1.613-0.054,3.34-0.108,5.261-0.164c0.703,1.823,1.362,3.53,1.989,5.154s1.22,3.167,1.791,4.649s1.121,2.907,1.66,4.305
				s1.066,2.768,1.594,4.138s1.055,2.737,1.594,4.137s1.086,2.828,1.657,4.313s1.165,3.027,1.791,4.656
				c0.627,1.629,1.288,3.346,1.991,5.176c0.698-1.856,1.353-3.596,1.975-5.248s1.213-3.217,1.779-4.724
				c0.567-1.507,1.111-2.958,1.646-4.377s1.063-2.808,1.586-4.197s1.043-2.78,1.578-4.198c0.534-1.418,1.08-2.864,1.646-4.368
				s1.157-3.066,1.779-4.715c0.622-1.647,1.278-3.381,1.977-5.23c1.922-0.017,3.649-0.025,5.264-0.033
				c1.613-0.008,3.114-0.014,4.574-0.016s2.881-0.001,4.341,0.002s2.959,0.009,4.573,0.018s3.344,0.02,5.266,0.037
				c0,1.909,0,3.75,0,5.532s0,3.506,0,5.182s0,3.303,0,4.891s0,3.136,0,4.655s0,3.01,0,4.48s0,2.923,0,4.364s0,2.873,0,4.305
				s0,2.863,0,4.305s0,2.892,0,4.362s0,2.964,0,4.483s0,3.067,0,4.655s0,3.214,0,4.89s0,3.4,0,5.183s0,3.623,0,5.532
				c-1.729-0.016-3.242-0.027-4.646-0.035s-2.701-0.012-3.997-0.016s-2.591-0.006-3.996-0.006
				C1067.356,1011.245,1065.842,1011.247,1064.113,1011.253z"/>
			<path fill="#FFFFFF" d="M1093.455,1011.466c0-1.909,0-3.75,0-5.532s0-3.507,0-5.183s-0.002-3.302-0.002-4.89
				s0.002-3.136,0.002-4.655s0-3.013,0-4.483s0-2.922,0-4.363s0-2.872,0-4.304s0-2.865,0-4.307s0-2.894,0-4.364s0-2.961,0-4.48
				s0-3.067,0-4.655s0-3.213,0-4.889s0-3.401,0-5.184s0-3.623,0-5.532c1.965,0.035,3.83,0.073,5.618,0.113s3.499,0.082,5.149,0.125
				s3.242,0.085,4.795,0.131s3.065,0.094,4.559,0.143s2.969,0.1,4.442,0.152s2.946,0.109,4.439,0.168s3.006,0.121,4.558,0.188
				s3.145,0.135,4.794,0.211c1.65,0.076,3.357,0.16,5.145,0.25c1.787,0.089,3.652,0.186,5.616,0.292c0,1.503,0,2.817,0,4.038
				s0,2.348,0,3.475s0,2.254,0,3.475s0,2.536,0,4.039c-1.818-0.099-3.506-0.188-5.103-0.268s-3.101-0.154-4.548-0.223
				s-2.84-0.131-4.213-0.191s-2.727-0.116-4.1-0.172c-1.374-0.056-2.769-0.112-4.217-0.167s-2.951-0.11-4.548-0.165
				s-3.286-0.108-5.105-0.164c0,1.389,0,2.548,0,3.628s0,2.084,0,3.164s0,2.236,0,3.626c1.78,0.055,3.434,0.106,4.995,0.16
				s3.029,0.106,4.445,0.16s2.779,0.109,4.122,0.164s2.669,0.109,4.013,0.168s2.705,0.119,4.12,0.186
				c1.416,0.066,2.886,0.137,4.446,0.215s3.211,0.163,4.989,0.259c0,1.503,0,2.817,0,4.038s0,2.348,0,3.475s0,2.257,0,3.478
				s0,2.535,0,4.038c-1.778-0.095-3.427-0.183-4.987-0.261s-3.032-0.148-4.448-0.215s-2.776-0.125-4.12-0.184
				s-2.67-0.113-4.013-0.168c-1.344-0.055-2.706-0.111-4.122-0.164s-2.885-0.106-4.447-0.16c-1.562-0.054-3.214-0.105-4.993-0.16
				c0,1.51,0,2.768,0,3.941s0,2.264,0,3.438s0,2.434,0,3.943c1.819,0.056,3.507,0.109,5.104,0.164s3.102,0.109,4.55,0.164
				s2.84,0.111,4.214,0.168s2.728,0.111,4.101,0.172s2.766,0.123,4.214,0.191s2.952,0.143,4.548,0.223s3.283,0.169,5.103,0.268
				c0,1.502,0.001,2.814,0.001,4.035s0,2.349,0,3.476s0,2.254,0,3.475s0,2.533,0,4.036c-1.964-0.106-3.828-0.201-5.615-0.291
				s-3.496-0.17-5.146-0.246s-3.241-0.148-4.794-0.215s-3.064-0.127-4.558-0.186s-2.966-0.113-4.439-0.166s-2.949-0.107-4.442-0.156
				c-1.492-0.049-3.004-0.095-4.557-0.141s-3.144-0.09-4.795-0.133c-1.65-0.043-3.361-0.086-5.15-0.125
				S1095.42,1011.501,1093.455,1011.466z"/>
			<path fill="#FFFFFF" d="M1152.602,1013.815c0-1.909,0.002-3.753,0.002-5.535s-0.002-3.504-0.002-5.18s0-3.304,0-4.892
				s0-3.134,0-4.653s0-3.012,0-4.482s0.002-2.922,0.002-4.363s-0.002-2.873-0.002-4.305s0-2.865,0-4.307s0-2.893,0-4.363
				s0-2.962,0-4.481s0-3.067,0-4.655s0-3.214,0-4.89s0-3.399,0-5.182s0-3.622,0-5.531c1.873,0.115,3.592,0.227,5.205,0.332
				s3.121,0.204,4.577,0.305s2.861,0.202,4.266,0.303c1.403,0.101,2.809,0.204,4.265,0.313s2.965,0.223,4.576,0.35
				c1.612,0.127,3.327,0.264,5.198,0.418c1.754,0.145,3.469,0.376,5.135,0.692s3.285,0.716,4.853,1.196s3.082,1.041,4.54,1.68
				c1.459,0.639,2.861,1.355,4.2,2.144c1.34,0.788,2.616,1.651,3.825,2.582s2.351,1.929,3.419,2.995
				c1.067,1.066,2.061,2.202,2.977,3.396s1.754,2.452,2.508,3.768s1.426,2.687,2.008,4.115s1.072,2.914,1.471,4.449
				s0.705,3.126,0.91,4.762c0.205,1.635,0.308,3.314,0.308,5.043c0,1.885-0.124,3.691-0.367,5.414s-0.604,3.361-1.075,4.916
				s-1.055,3.027-1.74,4.41s-1.477,2.676-2.364,3.881s-1.872,2.322-2.946,3.346s-2.238,1.958-3.486,2.796
				c-1.247,0.838-2.578,1.58-3.984,2.228s-2.889,1.199-4.441,1.652s-3.173,0.807-4.856,1.061c-1.683,0.254-3.427,0.41-5.228,0.461
				s-3.658-0.005-5.563-0.162c-1.878-0.154-3.6-0.291-5.218-0.418s-3.13-0.244-4.592-0.354c-1.461-0.109-2.872-0.212-4.281-0.313
				s-2.816-0.201-4.278-0.302c-1.461-0.101-2.977-0.201-4.595-0.308S1154.481,1013.931,1152.602,1013.815z M1199.225,984.029
				c0-1.475-0.126-2.913-0.379-4.301s-0.633-2.722-1.138-3.989s-1.134-2.469-1.89-3.581s-1.636-2.141-2.641-3.064
				s-2.134-1.741-3.387-2.44s-2.629-1.276-4.13-1.716s-3.125-0.742-4.872-0.886c-1.457-0.12-2.67-0.219-3.803-0.309
				c-1.134-0.09-2.188-0.172-3.321-0.26s-2.347-0.18-3.804-0.288c0,1.839,0,3.562,0,5.199s0,3.19,0,4.684s0,2.928,0,4.335
				s0,2.787,0,4.166s0,2.757,0,4.164s-0.002,2.844-0.002,4.338s0.002,3.045,0.002,4.682s0,3.363,0,5.201
				c1.443,0.107,2.645,0.195,3.768,0.282s2.168,0.171,3.291,0.261s2.324,0.185,3.769,0.304c1.954,0.161,3.773,0.08,5.445-0.216
				c1.673-0.296,3.2-0.807,4.573-1.498s2.592-1.565,3.648-2.591c1.056-1.025,1.946-2.202,2.668-3.499s1.273-2.716,1.643-4.223
				C1199.036,987.278,1199.225,985.682,1199.225,984.029z"/>
			<path fill="#FFFFFF" d="M1239.632,1021.982c0-1.797,0-3.441,0-4.988s-0.001-2.996-0.001-4.394s0.001-2.743,0.001-4.091
				s0-2.697,0-4.095s0-2.844,0-4.391s0-3.193,0-4.99c-1.011-1.723-1.974-3.357-2.894-4.923s-1.799-3.061-2.648-4.504
				s-1.668-2.836-2.467-4.192c-0.799-1.355-1.578-2.676-2.347-3.979s-1.527-2.589-2.286-3.874s-1.518-2.569-2.286-3.87
				s-1.551-2.616-2.351-3.967c-0.799-1.351-1.621-2.734-2.471-4.169s-1.729-2.918-2.65-4.471s-1.882-3.174-2.895-4.877
				c1.941,0.209,3.637,0.395,5.214,0.57s3.03,0.341,4.485,0.508s2.912,0.336,4.487,0.522s3.272,0.388,5.211,0.624
				c0.828,1.509,1.596,2.91,2.322,4.236s1.413,2.575,2.071,3.778s1.294,2.361,1.919,3.504s1.24,2.27,1.865,3.413
				c0.624,1.144,1.259,2.304,1.917,3.51s1.342,2.458,2.067,3.789s1.493,2.74,2.32,4.259c0.952-1.517,1.823-2.907,2.643-4.212
				s1.586-2.521,2.326-3.698c0.739-1.177,1.456-2.31,2.169-3.443s1.424-2.271,2.163-3.445c0.739-1.174,1.507-2.389,2.325-3.688
				s1.691-2.681,2.642-4.188c1.944,0.279,3.646,0.528,5.226,0.762c1.579,0.233,3.035,0.451,4.492,0.671
				c1.458,0.22,2.916,0.441,4.494,0.686s3.277,0.509,5.219,0.816c-1.115,1.596-2.168,3.104-3.173,4.544s-1.963,2.813-2.886,4.138
				s-1.811,2.6-2.678,3.846c-0.868,1.246-1.716,2.462-2.557,3.671c-0.84,1.209-1.676,2.41-2.516,3.62
				c-0.84,1.211-1.688,2.43-2.557,3.682c-0.869,1.252-1.756,2.533-2.68,3.866s-1.883,2.719-2.89,4.173s-2.062,2.979-3.179,4.595
				c0,1.797,0,3.443,0,4.99s0,2.993,0,4.391s0,2.746,0,4.094s0.001,2.694,0.001,4.092s-0.001,2.845-0.001,4.393
				c0,1.547,0,3.191,0,4.988c-1.716-0.239-3.22-0.444-4.614-0.634c-1.396-0.189-2.682-0.363-3.97-0.534s-2.576-0.341-3.973-0.521
				C1242.851,1022.394,1241.35,1022.199,1239.632,1021.982z"/>
		</g>
	</g>
	<path fill="#FFFFFF" d="M1312.465,1054.683v-66.82h48.991v15.027h-31.759v10.418h31.056v15.027h-31.056v26.348H1312.465z"/>
	<path fill="#FFFFFF" d="M1370.767,1054.683v-66.82h48.992v15.027H1388v10.418h31.056v15.027H1388v11.322h31.759v15.025H1370.767z"
		/>
	<path fill="#FFFFFF" d="M1424.964,1045.267l9.117-13.426c4.808,4.809,12.221,8.816,21.438,8.816c5.812,0,9.418-2.004,9.418-5.311
		c0-8.814-37.77-1.502-37.77-27.248c0-11.221,9.417-21.238,26.549-21.238c10.719,0,20.036,3.205,27.148,9.316l-9.417,12.924
		c-5.61-4.709-12.924-7.014-19.534-7.014c-5.009,0-7.213,1.703-7.213,4.609c0,8.213,37.768,2.002,37.768,26.848
		c0,13.426-9.917,22.342-27.852,22.342C1441.093,1055.886,1431.676,1051.577,1424.964,1045.267z"/>
	<path fill="#FFFFFF" d="M1503.702,1054.683v-51.793h-18.732v-15.027h54.599v15.027h-18.634v51.793H1503.702z"/>
	<path fill="#FFFFFF" d="M48.668,1111.581v-30.1l-11.465,30.1h-5.188l-11.535-30.1v30.1H8.74v-45.523h16.313l9.557,25.117
		l9.486-25.117h16.313v45.523H48.668z"/>
	<path fill="#FFFFFF" d="M99.514,1111.581l-2.252-6.551H79.311l-2.252,6.551H63.75l17.131-45.523h14.811l17.133,45.523H99.514z
		 M88.32,1077.661l-5.801,17.131h11.535L88.32,1077.661z"/>
	<path fill="#FFFFFF" d="M142.92,1111.581l-11.943-17.131l-3.072,3.822v13.309h-11.74v-45.523h11.74v18.701l13.992-18.701h14.469
		l-17.678,21.295l18.633,24.229H142.92z"/>
	<path fill="#FFFFFF" d="M160.799,1111.581v-45.523h33.377v10.238h-21.637v7.098h21.158v10.238h-21.158v7.713h21.637v10.236H160.799
		z"/>
	<path fill="#FFFFFF" d="M197.723,1105.167l6.211-9.146c3.275,3.275,8.326,6.006,14.605,6.006c3.959,0,6.416-1.365,6.416-3.617
		c0-6.006-25.732-1.023-25.732-18.564c0-7.645,6.416-14.471,18.088-14.471c7.303,0,13.65,2.186,18.496,6.348l-6.416,8.805
		c-3.822-3.207-8.805-4.777-13.309-4.777c-3.412,0-4.914,1.16-4.914,3.141c0,5.596,25.73,1.363,25.73,18.291
		c0,9.146-6.756,15.221-18.975,15.221C208.711,1112.401,202.295,1109.466,197.723,1105.167z"/>
	<path fill="#FFFFFF" stroke="#FFFFFF" stroke-miterlimit="10" d="M262.828,1180.292v-114.104h29.426v114.104H262.828z"/>
	<path fill="#FFFFFF" stroke="#FFFFFF" stroke-miterlimit="10" d="M306.963,1123.325c0-34.727,26.172-59.02,61.07-59.02
		c34.9,0,60.902,24.293,60.902,59.02s-26.002,59.02-60.902,59.02C333.135,1182.345,306.963,1158.052,306.963,1123.325z
		 M398.998,1123.325c0-18.646-12.146-33.016-30.965-33.016c-18.816,0-31.133,14.369-31.133,33.016
		c0,18.477,12.316,33.018,31.133,33.018C386.852,1156.343,398.998,1141.802,398.998,1123.325z"/>
	<path fill="#FFFFFF" stroke="#FFFFFF" stroke-miterlimit="10" d="M527.467,1180.292l-17.279-71.508l-17.277,71.508h-31.135
		l-32.674-114.104h33.016l17.277,76.127l19.502-76.127h22.582l19.502,76.127l17.105-76.127h33.189l-32.674,114.104H527.467z"/>
	<path fill="#FFFFFF" stroke="#FFFFFF" stroke-miterlimit="10" d="M670.814,1180.292l-5.646-16.422h-44.99l-5.645,16.422h-33.359
		l42.939-114.104h37.121l42.939,114.104H670.814z M642.76,1095.271l-14.541,42.939h28.91L642.76,1095.271z"/>
	<g>
		<g>
			<path fill="#FFFFFF" stroke="#FFFFFF" stroke-miterlimit="10" d="M791.909,1180.306c-1.963-1.574-3.853-3.124-5.677-4.646
				s-3.582-3.021-5.28-4.493s-3.335-2.923-4.917-4.351c-1.583-1.429-3.109-2.832-4.586-4.219s-2.904-2.757-4.284-4.106
				s-2.711-2.68-4.002-3.996s-2.542-2.616-3.752-3.902s-2.381-2.558-3.517-3.817s-2.234-2.506-3.302-3.743s-2.104-2.467-3.11-3.686
				s-1.98-2.426-2.929-3.63s-1.869-2.401-2.765-3.594s-1.766-2.381-2.611-3.565c-0.846-1.186-1.67-2.365-2.47-3.547
				s-1.577-2.364-2.335-3.548s-1.497-2.364-2.214-3.552s-1.417-2.38-2.095-3.575s-1.336-2.396-1.976-3.603s-1.262-2.424-1.864-3.646
				s-1.185-2.451-1.749-3.692s-1.109-2.491-1.636-3.755c-0.526-1.265-1.033-2.542-1.52-3.832s-0.954-2.594-1.399-3.914
				s-0.868-2.657-1.27-4.011c-0.401-1.354-0.78-2.728-1.134-4.119s-0.681-2.803-0.982-4.235s-0.578-2.888-0.823-4.365
				s-0.462-2.978-0.645-4.503s-0.333-3.077-0.447-4.654c1.754-0.604,3.389-1.157,4.938-1.674s3.012-0.994,4.424-1.452
				s2.772-0.893,4.118-1.317s2.674-0.838,4.026-1.254c1.352-0.416,2.726-0.834,4.157-1.263s2.92-0.87,4.506-1.331
				s3.269-0.939,5.085-1.45c0.161,1.72,0.354,3.424,0.57,5.11s0.457,3.356,0.721,5.006s0.55,3.279,0.856,4.889
				c0.307,1.61,0.637,3.201,0.981,4.771s0.706,3.121,1.086,4.652s0.776,3.043,1.188,4.537c0.413,1.494,0.843,2.972,1.287,4.432
				s0.905,2.9,1.381,4.33s0.968,2.846,1.475,4.248s1.029,2.789,1.568,4.168s1.093,2.749,1.666,4.108s1.165,2.71,1.775,4.054
				s1.238,2.684,1.889,4.015s1.322,2.655,2.017,3.978s1.413,2.644,2.157,3.959s1.443,2.48,2.192,3.708
				c0.75,1.228,1.529,2.47,2.339,3.727s1.649,2.527,2.526,3.819s1.789,2.607,2.741,3.94s1.941,2.688,2.978,4.069
				s2.119,2.785,3.249,4.219s2.31,2.896,3.545,4.388s2.524,3.017,3.878,4.573c1.983,0.021,3.856,0.043,5.645,0.062
				s3.489,0.034,5.13,0.052s3.219,0.035,4.762,0.051s3.049,0.028,4.542,0.043c1.494,0.015,2.976,0.032,4.47,0.047
				s3,0.029,4.543,0.044s3.122,0.028,4.763,0.044s3.341,0.029,5.128,0.046c1.788,0.017,3.662,0.034,5.646,0.052
				c1.055,1.508,2.059,2.906,3.024,4.229c0.965,1.322,1.893,2.571,2.801,3.771s1.795,2.353,2.685,3.49s1.781,2.26,2.698,3.397
				s1.863,2.291,2.859,3.49c0.997,1.199,2.045,2.445,3.18,3.767c1.135,1.322,2.354,2.722,3.691,4.228
				c-1.874-0.035-3.683-0.071-5.433-0.105s-3.444-0.068-5.089-0.102s-3.237-0.062-4.796-0.094s-3.081-0.065-4.572-0.097
				c-1.492-0.031-2.955-0.064-4.399-0.096c-1.443-0.031-2.869-0.061-4.284-0.092s-2.822-0.063-4.228-0.095
				c-1.406-0.031-2.808-0.063-4.223-0.095s-2.842-0.067-4.285-0.101s-2.906-0.068-4.397-0.104s-3.012-0.07-4.57-0.108
				s-3.156-0.077-4.801-0.118s-3.338-0.082-5.088-0.127S793.783,1180.354,791.909,1180.306z"/>
			<path fill="#FFFFFF" stroke="#FFFFFF" stroke-miterlimit="10" d="M938.154,1182.962c-1.053-1.381-1.996-2.625-2.875-3.785
				s-1.694-2.237-2.486-3.287s-1.561-2.073-2.348-3.123c-0.787-1.049-1.594-2.125-2.459-3.285s-1.791-2.404-2.813-3.785
				c-1.879-0.014-3.652-0.026-5.346-0.039s-3.307-0.025-4.86-0.037s-3.05-0.024-4.511-0.036s-2.888-0.023-4.303-0.035
				s-2.818-0.024-4.233-0.037s-2.841-0.025-4.302-0.038s-2.957-0.026-4.512-0.041c-1.554-0.014-3.164-0.027-4.857-0.043
				s-3.469-0.034-5.347-0.053c0.501,1.701,0.972,3.191,1.431,4.572c0.458,1.381,0.904,2.652,1.369,3.926s0.951,2.549,1.5,3.928
				s1.16,2.865,1.902,4.561c-1.938-0.03-3.716-0.06-5.385-0.087s-3.229-0.052-4.736-0.077s-2.959-0.051-4.413-0.076
				s-2.907-0.049-4.415-0.075s-3.068-0.055-4.737-0.085s-3.446-0.063-5.384-0.099c-0.842-1.505-1.637-2.987-2.386-4.446
				s-1.453-2.897-2.119-4.314s-1.291-2.812-1.881-4.189c-0.59-1.377-1.144-2.736-1.664-4.078s-1.009-2.666-1.467-3.974
				s-0.886-2.6-1.287-3.878s-0.775-2.544-1.124-3.795s-0.669-2.487-0.97-3.714s-0.58-2.443-0.836-3.649
				c-0.257-1.206-0.491-2.402-0.706-3.59s-0.412-2.364-0.589-3.537s-0.335-2.342-0.476-3.504s-0.262-2.317-0.368-3.471
				s-0.196-2.305-0.271-3.452s-0.135-2.291-0.177-3.437s-0.114-2.405-0.204-3.813s-0.162-2.857-0.221-4.35
				c-0.06-1.492-0.105-3.024-0.135-4.599s-0.043-3.188-0.041-4.843c0.001-1.654,0.021-3.349,0.053-5.081
				c0.031-1.732,0.077-3.503,0.141-5.311c0.063-1.808,0.141-3.653,0.236-5.534s0.209-3.795,0.339-5.743s0.276-3.93,0.441-5.94
				s0.348-4.053,0.55-6.117c0.202-2.065,0.424-4.156,0.666-6.265c0.241-2.108,0.505-4.237,0.788-6.376
				c0.284-2.139,0.587-4.287,0.915-6.438c0.328-2.151,0.679-4.303,1.055-6.443s0.78-4.27,1.208-6.369s0.882-4.17,1.364-6.193
				c1.907-0.262,3.708-0.506,5.43-0.732s3.364-0.438,4.947-0.639s3.107-0.389,4.599-0.57c1.49-0.182,2.947-0.354,4.392-0.523
				c1.445-0.17,2.878-0.335,4.324-0.499s2.906-0.327,4.402-0.49s3.027-0.328,4.619-0.495s3.245-0.336,4.981-0.51
				s3.555-0.355,5.483-0.54c0.701,1.733,1.404,3.535,2.105,5.384s1.402,3.747,2.102,5.68s1.397,3.9,2.096,5.891
				c0.697,1.99,1.396,4.001,2.09,6.025s1.388,4.064,2.079,6.103s1.381,4.075,2.068,6.11s1.375,4.066,2.06,6.084
				c0.684,2.018,1.367,4.021,2.049,6.007c0.681,1.985,1.359,3.951,2.037,5.893s1.354,3.857,2.03,5.744s1.352,3.744,2.025,5.567
				s1.348,3.611,2.021,5.361s1.345,3.459,2.018,5.127s1.347,3.291,2.021,4.867s1.347,3.104,2.022,4.58s1.354,2.9,2.031,4.265
				c0.678,1.365,1.359,2.672,2.041,3.915s1.291,2.137,1.939,3.201c0.648,1.063,1.303,2.13,1.959,3.197s1.314,2.137,1.98,3.211
				c0.666,1.073,1.334,2.152,2.01,3.234s1.357,2.17,2.045,3.264s1.379,2.191,2.078,3.299s1.406,2.223,2.119,3.345
				s1.432,2.256,2.159,3.397s1.464,2.29,2.209,3.452c0.744,1.162,1.499,2.335,2.261,3.521s1.531,2.385,2.313,3.596
				s1.57,2.436,2.371,3.675s1.611,2.491,2.434,3.762s1.655,2.56,2.499,3.862c0.843,1.303,1.696,2.619,2.563,3.957
				s1.748,2.695,2.639,4.071s1.79,2.774,2.705,4.19c-1.938-0.014-3.714-0.027-5.383-0.04s-3.232-0.027-4.74-0.04
				s-2.959-0.023-4.413-0.036s-2.905-0.026-4.413-0.041s-3.071-0.031-4.74-0.048S940.092,1182.982,938.154,1182.962z
				 M877.479,1079.333c-0.194,2.506-0.361,4.894-0.506,7.174s-0.266,4.451-0.369,6.527s-0.19,4.059-0.26,5.959
				s-0.121,3.718-0.162,5.471s-0.069,3.442-0.084,5.075s-0.018,3.209-0.008,4.745s0.031,3.031,0.066,4.49s0.084,2.885,0.146,4.278
				s0.002,2.36,0.021,3.575s0.054,2.461,0.107,3.748s0.127,2.611,0.223,3.99s0.211,2.811,0.359,4.303
				c1.978,0.005,3.791,0.01,5.494,0.014s3.296,0.009,4.834,0.013s3.022,0.007,4.506,0.011s2.965,0.008,4.503,0.011
				s3.13,0.007,4.833,0.011s3.517,0.008,5.494,0.012c-0.871-1.288-1.705-2.53-2.508-3.733s-1.574-2.368-2.318-3.498
				c-0.743-1.13-1.459-2.228-2.154-3.299s-1.369-2.11-2.025-3.136s-1.299-2.029-1.979-3.242c-0.68-1.212-1.345-2.453-2.002-3.723
				c-0.658-1.27-1.308-2.57-1.953-3.901s-1.286-2.692-1.928-4.093s-1.282-2.84-1.928-4.322s-1.299-3.014-1.956-4.592
				c-0.657-1.579-1.32-3.209-1.996-4.898c-0.677-1.689-1.362-3.438-2.063-5.253c-0.7-1.814-1.415-3.692-2.146-5.644
				S878.244,1081.43,877.479,1079.333z"/>
			<path fill="#FFFFFF" stroke="#FFFFFF" stroke-miterlimit="10" d="M956.143,1134.482c-0.264-1.307-0.513-2.581-0.752-3.831
				s-0.469-2.474-0.688-3.673s-0.426-2.376-0.626-3.529s-0.438-2.604-0.648-4.006s-0.414-2.848-0.609-4.332
				s-0.384-3.006-0.564-4.554s-0.354-3.123-0.522-4.722s-0.335-3.221-0.493-4.86s-0.31-3.299-0.458-4.973s-0.295-3.365-0.435-5.07
				s-0.274-3.424-0.406-5.156c-0.132-1.733-0.262-3.479-0.387-5.237s-0.245-3.532-0.363-5.315s-0.235-3.578-0.349-5.384
				s-0.223-3.624-0.329-5.45s-0.214-3.664-0.314-5.507s-0.198-3.689-0.294-5.54s-0.188-3.701-0.277-5.55s-0.174-3.695-0.257-5.527
				s-0.162-3.651-0.237-5.446s-0.146-3.565-0.212-5.296s-0.128-3.419-0.185-5.049c2.004-0.109,3.861-0.206,5.619-0.295
				c1.756-0.089,3.41-0.169,5.003-0.244s3.123-0.147,4.633-0.214s2.997-0.129,4.506-0.191s3.037-0.125,4.626-0.187
				c1.588-0.062,3.238-0.121,4.987-0.184c1.75-0.063,3.599-0.125,5.591-0.189c0.029,1.57,0.063,3.211,0.097,4.904
				s0.068,3.437,0.108,5.212s0.084,3.585,0.129,5.411s0.091,3.67,0.14,5.523c0.049,1.853,0.099,3.712,0.151,5.575
				s0.105,3.729,0.161,5.589s0.115,3.716,0.175,5.564s0.121,3.688,0.184,5.521s0.129,3.653,0.196,5.464s0.134,3.608,0.204,5.395
				s0.145,3.562,0.219,5.321s0.151,3.505,0.23,5.235s0.16,3.446,0.245,5.145s0.173,3.38,0.263,5.04s0.185,3.299,0.281,4.914
				s0.194,3.206,0.298,4.764s0.212,3.082,0.323,4.568s0.227,2.936,0.348,4.33s0.248,2.737,0.379,4.013s0.25,2.357,0.381,3.542
				c0.131,1.186,0.265,2.395,0.407,3.63s0.292,2.496,0.449,3.787c0.193,1.594,0.493,3.137,0.892,4.622s0.892,2.913,1.48,4.273
				c0.589,1.361,1.271,2.655,2.039,3.874s1.621,2.362,2.556,3.422s1.952,2.037,3.047,2.92s2.266,1.669,3.513,2.357
				c1.248,0.688,2.57,1.279,3.969,1.757s2.871,0.844,4.423,1.093s3.18,0.379,4.89,0.381c1.902,0.003,3.678-0.156,5.336-0.465
				s3.197-0.767,4.624-1.362c1.426-0.596,2.739-1.329,3.939-2.187s2.288-1.837,3.264-2.932s1.841-2.301,2.588-3.607
				s1.378-2.714,1.889-4.209c0.511-1.494,0.903-3.078,1.165-4.736c0.263-1.657,0.396-3.392,0.398-5.188
				c0.002-1.293,0.004-2.556,0.006-3.794s0.002-2.45,0.004-3.638s0.002-2.323,0.004-3.503s0.003-2.446,0.004-3.78
				c0.001-1.335,0.001-2.739,0.002-4.194c0.001-1.456,0.003-2.963,0.004-4.514s0.001-3.145,0.002-4.771s0.001-3.286,0.002-4.973
				s0.003-3.403,0.004-5.141c0.001-1.736,0-3.492,0.001-5.271s0.001-3.577,0.002-5.392s0.001-3.646,0.002-5.491
				s0.001-3.703,0.002-5.575c0.001-1.871,0.001-3.757,0.002-5.649s0.001-3.793,0.002-5.7s-0.001-3.821,0-5.735
				s0.003-3.827,0.004-5.734s-0.001-3.807,0-5.692s-0.001-3.755,0-5.596s0.001-3.654,0.002-5.42s0.001-3.485,0.001-5.137
				s0.002-3.233,0.002-4.72c1.938,0.009,3.74,0.019,5.441,0.029s3.301,0.023,4.845,0.036s3.028,0.026,4.493,0.041
				s2.91,0.031,4.375,0.049s2.95,0.038,4.495,0.061s3.149,0.045,4.854,0.073s3.505,0.059,5.446,0.096
				c-0.01,1.496-0.019,3.071-0.032,4.698s-0.03,3.307-0.047,5.024s-0.038,3.472-0.058,5.248s-0.043,3.578-0.065,5.389
				s-0.046,3.631-0.071,5.458s-0.055,3.659-0.082,5.488s-0.055,3.659-0.085,5.48s-0.063,3.636-0.095,5.443s-0.064,3.605-0.1,5.393
				s-0.07,3.563-0.107,5.327s-0.076,3.516-0.115,5.253s-0.079,3.463-0.121,5.171c-0.042,1.707-0.084,3.4-0.129,5.074
				s-0.093,3.33-0.141,4.966s-0.096,3.25-0.147,4.84s-0.104,3.153-0.159,4.688s-0.113,3.043-0.173,4.511s-0.119,2.899-0.184,4.282
				c-0.064,1.384-0.132,2.719-0.202,3.996s-0.143,2.493-0.218,3.604s-0.153,2.244-0.235,3.397s-0.168,2.329-0.258,3.529
				s-0.182,2.423-0.279,3.675c-0.139,1.774-0.341,3.519-0.604,5.229c-0.263,1.709-0.587,3.384-0.97,5.023s-0.822,3.242-1.318,4.807
				s-1.047,3.089-1.65,4.574s-1.26,2.934-1.965,4.334s-1.461,2.755-2.264,4.066s-1.652,2.577-2.548,3.794s-1.836,2.385-2.82,3.502
				s-2.015,2.184-3.085,3.197s-2.184,1.971-3.34,2.875s-2.352,1.754-3.593,2.543s-2.526,1.521-3.854,2.19s-2.704,1.278-4.123,1.823
				c-1.42,0.545-2.885,1.027-4.399,1.442c-1.516,0.415-3.081,0.767-4.7,1.048s-3.291,0.492-5.023,0.633s-3.525,0.209-5.382,0.205
				c-1.754-0.004-3.461-0.074-5.131-0.208s-3.303-0.331-4.897-0.591s-3.152-0.581-4.678-0.961s-3.017-0.814-4.479-1.311
				s-2.895-1.053-4.297-1.66c-1.401-0.607-2.774-1.27-4.117-1.984c-1.342-0.715-2.657-1.48-3.94-2.297
				c-1.284-0.816-2.536-1.684-3.759-2.598s-2.415-1.875-3.574-2.883s-2.286-2.06-3.378-3.155s-2.147-2.235-3.167-3.416
				s-2.002-2.402-2.943-3.662s-1.842-2.558-2.699-3.894s-1.67-2.707-2.437-4.114s-1.485-2.85-2.153-4.323s-1.287-2.979-1.851-4.516
				c-0.563-1.536-1.069-3.103-1.52-4.697S956.475,1136.132,956.143,1134.482z"/>
			<path fill="#FFFFFF" stroke="#FFFFFF" stroke-miterlimit="10" d="M1084.458,1123.061c0.149-1.55,0.319-3.237,0.532-5.013
				c0.213-1.776,0.459-3.646,0.738-5.585c0.279-1.938,0.594-3.943,0.941-5.989s0.732-4.134,1.148-6.24s0.865-4.23,1.347-6.354
				s0.995-4.249,1.542-6.355c0.547-2.105,1.129-4.191,1.739-6.248s1.254-4.083,1.927-6.063s1.375-3.918,2.107-5.803
				c0.732-1.886,1.492-3.715,2.284-5.488s1.612-3.49,2.46-5.142c0.848-1.65,1.724-3.237,2.625-4.758s1.828-2.977,2.781-4.363
				s1.932-2.705,2.935-3.956s2.03-2.436,3.081-3.553s2.125-2.166,3.221-3.153s2.211-1.913,3.35-2.774s2.299-1.66,3.479-2.402
				s2.377-1.427,3.594-2.055c1.218-0.628,2.455-1.199,3.709-1.721c1.254-0.521,2.525-0.988,3.813-1.408s2.592-0.793,3.911-1.116
				s2.653-0.603,4.001-0.835s2.712-0.42,4.087-0.564s2.763-0.246,4.163-0.305s2.813-0.077,4.236-0.051s2.856,0.098,4.299,0.209
				c1.821,0.141,3.593,0.349,5.322,0.622s3.414,0.609,5.053,1.01c1.638,0.399,3.229,0.864,4.775,1.388
				c1.547,0.524,3.049,1.106,4.506,1.752s2.867,1.354,4.233,2.118c1.366,0.764,2.688,1.586,3.963,2.466s2.506,1.816,3.69,2.807
				s2.326,2.034,3.42,3.13s2.143,2.241,3.145,3.435s1.96,2.434,2.871,3.715s1.773,2.604,2.594,3.961
				c0.82,1.358,1.598,2.752,2.327,4.175s1.413,2.874,2.053,4.348s1.233,2.969,1.784,4.479s1.061,3.038,1.524,4.57
				s0.884,3.069,1.263,4.607c-1.506,0.982-2.917,1.913-4.26,2.806c-1.342,0.893-2.615,1.745-3.841,2.572s-2.403,1.628-3.559,2.417
				c-1.154,0.789-2.286,1.564-3.417,2.344c-1.131,0.78-2.26,1.564-3.414,2.367s-2.33,1.625-3.555,2.48
				c-1.224,0.856-2.495,1.746-3.836,2.688c-1.34,0.941-2.749,1.934-4.252,2.99c-0.377-1.611-0.846-3.23-1.396-4.835
				s-1.188-3.192-1.908-4.736c-0.721-1.545-1.521-3.049-2.404-4.479s-1.847-2.789-2.885-4.053s-2.151-2.43-3.335-3.473
				c-1.185-1.043-2.44-1.964-3.761-2.734c-1.32-0.771-2.705-1.393-4.151-1.841s-2.954-0.721-4.518-0.794
				c-1.398-0.065-2.776-0.014-4.132,0.154s-2.688,0.451-3.994,0.846s-2.588,0.9-3.839,1.514s-2.472,1.335-3.661,2.158
				s-2.351,1.749-3.474,2.771s-2.21,2.143-3.262,3.352s-2.063,2.506-3.037,3.884c-0.975,1.378-1.911,2.835-2.804,4.36
				c-0.894,1.525-1.745,3.118-2.553,4.765c-0.809,1.646-1.572,3.347-2.29,5.082s-1.39,3.504-2.015,5.29s-1.205,3.59-1.734,5.384
				s-1.012,3.577-1.441,5.33s-0.806,3.474-1.134,5.134s-0.595,3.278-0.831,4.776c-0.309,1.961-0.523,3.906-0.595,5.779
				s-0.017,3.688,0.151,5.437s0.452,3.43,0.845,5.033s0.892,3.127,1.495,4.563s1.312,2.784,2.116,4.032
				c0.806,1.248,1.709,2.397,2.71,3.436s2.099,1.967,3.294,2.774c1.194,0.808,2.487,1.493,3.878,2.05s2.883,0.981,4.477,1.266
				s3.287,0.427,5.091,0.418c1.622-0.008,3.303-0.162,5.002-0.43c1.698-0.268,3.416-0.647,5.108-1.115s3.361-1.022,4.956-1.633
				s3.114-1.274,4.515-1.969c1.399-0.694,2.676-1.419,3.779-2.14c0.753-1.864,1.299-3.264,1.836-4.663s1.063-2.798,1.742-4.664
				c-1.742,0.005-3.339,0.01-4.84,0.014s-2.906,0.004-4.261,0.008s-2.662,0.011-3.97,0.014s-2.614,0.006-3.97,0.009
				s-2.761,0.005-4.261,0.008s-3.098,0.009-4.84,0.013c0.45-1.556,0.855-3.002,1.23-4.367s0.719-2.652,1.043-3.891
				s0.628-2.431,0.921-3.606s0.575-2.337,0.854-3.513s0.552-2.259,0.836-3.748s0.574-3.117,0.869-4.938
				c0.295-1.822,0.598-3.841,0.912-6.114c1.99,0.001,3.899,0.004,5.738,0.006s3.605,0.007,5.32,0.011s3.373,0.008,4.99,0.013
				s3.192,0.01,4.74,0.016c1.549,0.006,3.068,0.011,4.576,0.018s3.003,0.012,4.496,0.02s2.985,0.017,4.492,0.025
				s3.027,0.019,4.576,0.028s3.125,0.019,4.742,0.03s3.276,0.027,4.99,0.041s3.481,0.03,5.32,0.047
				c1.838,0.017,3.744,0.034,5.734,0.055c-0.541,2.417-1.074,4.643-1.611,6.697s-1.081,4.104-1.604,5.568s-1.046,2.881-1.569,4.26
				s-1.049,2.723-1.579,4.044s-1.066,2.62-1.612,3.913s-1.105,2.576-1.678,3.869s-1.158,2.594-1.771,3.914s-1.252,2.66-1.92,4.037
				s-1.369,2.79-2.112,4.252s-1.527,2.974-2.366,4.549c-0.839,1.574-1.73,3.212-2.689,4.928c-1.496,1.09-3,2.151-4.509,3.182
				s-3.022,2.031-4.54,2.998c-1.517,0.967-3.035,1.9-4.555,2.801s-3.041,1.766-4.558,2.595s-3.032,1.623-4.543,2.378
				c-1.511,0.754-3.017,1.471-4.518,2.146s-2.997,1.311-4.487,1.904s-2.973,1.144-4.449,1.65s-2.947,0.971-4.411,1.388
				s-2.923,0.785-4.374,1.107s-2.896,0.598-4.338,0.821s-2.876,0.396-4.309,0.518s-2.863,0.188-4.293,0.203
				c-1.631,0.017-3.21-0.039-4.742-0.169c-1.533-0.13-3.018-0.331-4.457-0.605s-2.836-0.622-4.188-1.037s-2.66-0.903-3.929-1.456
				s-2.496-1.172-3.686-1.86c-1.188-0.688-2.338-1.442-3.448-2.262s-2.181-1.704-3.214-2.651s-2.029-1.957-2.984-3.029
				s-1.87-2.208-2.743-3.402s-1.704-2.45-2.491-3.763s-1.531-2.681-2.228-4.108s-1.345-2.912-1.941-4.452
				c-0.598-1.54-1.146-3.135-1.635-4.783s-0.924-3.351-1.296-5.104c-0.373-1.753-0.683-3.562-0.927-5.417s-0.421-3.76-0.524-5.714
				s-0.134-3.957-0.085-6.006C1084.115,1127.298,1084.253,1125.195,1084.458,1123.061z"/>
			<path fill="#FFFFFF" stroke="#FFFFFF" stroke-miterlimit="10" d="M1255.533,1180.935c1.574-1.428,3.059-2.801,4.473-4.126
				c1.414-1.326,2.756-2.606,4.037-3.848s2.501-2.447,3.674-3.621s2.299-2.317,3.386-3.44s2.138-2.227,3.16-3.316
				s2.015-2.168,2.99-3.24s1.931-2.142,2.874-3.215s1.876-2.148,2.803-3.238c0.928-1.09,1.849-2.194,2.771-3.318
				s1.845-2.27,2.771-3.443c0.927-1.175,1.861-2.378,2.802-3.62s1.887-2.521,2.845-3.848s1.93-2.7,2.908-4.128
				c-1.965,0.005-3.831,0.009-5.619,0.014s-3.497,0.009-5.147,0.013s-3.244,0.009-4.796,0.013s-3.063,0.007-4.557,0.011
				s-2.966,0.007-4.44,0.011c-1.473,0.004-2.945,0.006-4.438,0.01s-3.007,0.007-4.56,0.011s-3.145,0.007-4.795,0.011
				s-3.359,0.009-5.146,0.013s-3.654,0.008-5.619,0.012c-0.86,1.573-1.711,3.081-2.552,4.534s-1.674,2.85-2.498,4.204
				s-1.64,2.666-2.453,3.943s-1.622,2.521-2.434,3.744s-1.624,2.423-2.443,3.612s-1.647,2.37-2.489,3.549s-1.699,2.359-2.578,3.549
				s-1.779,2.389-2.714,3.61s-1.903,2.465-2.914,3.741s-2.063,2.588-3.171,3.94s-2.273,2.748-3.505,4.198s-2.533,2.958-3.918,4.528
				c-1.71,0.032-3.274,0.06-4.747,0.087s-2.851,0.051-4.18,0.074c-1.33,0.023-2.611,0.049-3.894,0.071s-2.565,0.044-3.896,0.066
				s-2.706,0.045-4.178,0.069s-3.041,0.05-4.75,0.077c1.105-1.478,2.176-2.934,3.21-4.366s2.036-2.842,3.005-4.232
				c0.97-1.392,1.907-2.761,2.816-4.113s1.789-2.689,2.643-4.006s1.681-2.615,2.482-3.898c0.803-1.283,1.581-2.554,2.336-3.808
				s1.486-2.49,2.197-3.717s1.4-2.44,2.071-3.643s1.323-2.395,1.956-3.575c0.634-1.181,1.25-2.35,1.85-3.512s1.18-2.318,1.747-3.465
				s1.119-2.284,1.657-3.418s1.064-2.263,1.574-3.387s1.006-2.242,1.49-3.359s0.961-2.23,1.422-3.343s0.902-2.017,1.349-3.354
				s0.882-2.715,1.308-4.135c0.426-1.419,0.84-2.879,1.244-4.375s0.801-3.027,1.187-4.596s0.759-3.172,1.125-4.808
				s0.721-3.308,1.067-5.008s0.684-3.43,1.012-5.19s0.645-3.549,0.953-5.365s0.608-3.659,0.896-5.525s0.566-3.754,0.834-5.664
				s0.525-3.837,0.771-5.782s0.479-3.908,0.702-5.88s0.436-3.953,0.633-5.939s0.382-3.977,0.553-5.963s0.329-3.966,0.471-5.935
				c0.142-1.968,0.266-3.927,0.375-5.856s0.207-3.832,0.281-5.697c1.918,0.3,3.699,0.584,5.381,0.857s3.265,0.535,4.79,0.792
				s2.993,0.509,4.44,0.761s2.873,0.502,4.319,0.762s2.911,0.527,4.436,0.809s3.106,0.578,4.786,0.899s3.459,0.665,5.373,1.044
				c-0.078,1.649-0.174,3.275-0.281,4.878s-0.229,3.179-0.359,4.731c-0.131,1.552-0.273,3.079-0.424,4.586s-0.309,2.995-0.477,4.466
				c-0.168,1.472-0.346,2.927-0.532,4.376s-0.38,2.887-0.585,4.329s-0.418,2.888-0.646,4.341c-0.227,1.452-0.466,2.914-0.719,4.395
				s-0.521,2.979-0.805,4.506s-0.584,3.078-0.906,4.668c-0.322,1.589-0.665,3.216-1.034,4.882c-0.369,1.667-0.764,3.373-1.19,5.128
				s-0.886,3.56-1.382,5.409c1.887,0.076,3.69,0.15,5.421,0.224s3.39,0.146,4.995,0.217s3.158,0.141,4.67,0.21
				s2.982,0.138,4.432,0.207s2.877,0.139,4.296,0.209s2.828,0.142,4.246,0.214s2.845,0.146,4.293,0.223s2.923,0.156,4.434,0.239
				s3.061,0.168,4.665,0.259s3.262,0.185,4.991,0.286s3.528,0.208,5.412,0.322c0.715-1.833,1.365-3.597,1.963-5.297
				s1.144-3.338,1.648-4.927c0.505-1.588,0.97-3.127,1.4-4.628s0.829-2.967,1.202-4.407s0.721-2.856,1.049-4.264
				s0.635-2.802,0.925-4.203s0.563-2.81,0.821-4.232s0.504-2.861,0.73-4.332s0.436-2.973,0.631-4.515s0.373-3.124,0.529-4.758
				s0.292-3.321,0.398-5.062c1.905,0.525,3.671,1.021,5.342,1.495s3.245,0.929,4.76,1.37s2.971,0.87,4.407,1.299
				s2.853,0.857,4.288,1.296s2.891,0.89,4.402,1.363s3.082,0.972,4.749,1.507c1.666,0.535,3.427,1.107,5.325,1.734
				c-0.113,1.577-0.262,3.129-0.444,4.654s-0.398,3.023-0.643,4.501c-0.243,1.478-0.517,2.935-0.816,4.367
				c-0.302,1.433-0.63,2.844-0.983,4.235c-0.353,1.392-0.729,2.763-1.129,4.117s-0.824,2.694-1.269,4.015s-0.907,2.624-1.393,3.915
				s-0.993,2.566-1.519,3.83s-1.068,2.517-1.632,3.758s-1.147,2.471-1.749,3.693s-1.221,2.439-1.86,3.646s-1.296,2.406-1.974,3.602
				s-1.373,2.389-2.089,3.576s-1.454,2.37-2.211,3.554s-1.537,2.366-2.337,3.547s-1.621,2.362-2.467,3.547s-1.715,2.375-2.61,3.567
				s-1.817,2.387-2.766,3.59s-1.921,2.412-2.927,3.631s-2.041,2.447-3.108,3.685s-2.17,2.484-3.306,3.744s-2.307,2.531-3.517,3.817
				s-2.457,2.586-3.748,3.901s-2.624,2.646-4.004,3.996s-2.806,2.72-4.282,4.106s-3.006,2.793-4.588,4.221s-3.219,2.877-4.917,4.35
				s-3.457,2.971-5.282,4.492c-1.824,1.521-3.715,3.072-5.678,4.646c-1.71,0.044-3.277,0.086-4.75,0.123s-2.849,0.068-4.178,0.102
				c-1.33,0.033-2.613,0.067-3.896,0.099s-2.565,0.061-3.895,0.093s-2.706,0.067-4.178,0.103S1257.242,1180.896,1255.533,1180.935z"
				/>
		</g>
	</g>
	<path fill="#FFFFFF" stroke="#FFFFFF" stroke-miterlimit="10" d="M1458.381,1180.292v-45.846h-47.385v45.846h-29.426v-114.104
		h29.426v42.596h47.385v-42.596h29.426v114.104H1458.381z"/>
	<path fill="#FFFFFF" stroke="#FFFFFF" stroke-miterlimit="10" d="M1585.824,1180.292l-5.645-16.422h-44.992l-5.645,16.422h-33.359
		l42.939-114.104h37.121l42.939,114.104H1585.824z M1557.77,1095.271l-14.541,42.939h28.912L1557.77,1095.271z"/>
	<path fill="#FFFFFF" stroke="#FFFFFF" stroke-miterlimit="10" d="M1691.197,1180.292l-19.16-38.32h-15.053v38.32h-29.426v-114.104
		h57.139c25.318,0,39.688,16.764,39.688,37.977c0,19.846-11.977,30.451-22.752,34.215l23.264,41.912H1691.197z M1694.447,1103.995
		c0-7.869-6.328-12.146-14.199-12.146h-23.264v24.463h23.264C1688.119,1116.312,1694.447,1112.034,1694.447,1103.995z"/>
	<path fill="#FFFFFF" stroke="#FFFFFF" stroke-miterlimit="10" d="M1740.629,1180.292v-114.104h47.9
		c35.926,0,61.756,21.555,61.756,56.967s-25.83,57.137-61.584,57.137H1740.629z M1820.178,1123.155
		c0-17.621-10.607-31.307-31.477-31.307h-18.646v62.783h18.475C1808.545,1154.632,1820.178,1140.091,1820.178,1123.155z"/>
	<path fill="#FFFFFF" stroke="#FFFFFF" stroke-miterlimit="10" d="M1864.99,1180.292v-114.104h83.654v25.66h-54.229v17.791h53.031
		v25.662h-53.031v19.33h54.229v25.66H1864.99z"/>
	<path fill="#FFFFFF" stroke="#FFFFFF" stroke-miterlimit="10" d="M2029.385,1180.292l-19.162-38.32h-15.053v38.32h-29.426v-114.104
		h57.139c25.318,0,39.689,16.764,39.689,37.977c0,19.846-11.977,30.451-22.754,34.215l23.266,41.912H2029.385z M2032.635,1103.995
		c0-7.869-6.33-12.146-14.199-12.146h-23.266v24.463h23.266C2026.305,1116.312,2032.635,1112.034,2032.635,1103.995z"/>
	
		<line fill="none" stroke="#FFFFFF" stroke-width="7" stroke-miterlimit="10" x1="1381.57" y1="1198.265" x2="2063.084" y2="1198.265"/>
	<path fill="#FFFFFF" d="M2072.718,272.245c0-8.561,7.533-15.925,16.267-15.925s16.096,7.364,16.096,15.925
		c0,8.731-7.362,16.096-16.096,16.096S2072.718,280.977,2072.718,272.245z"/>
</g>
</svg>
