<?xml version="1.0" encoding="utf-8"?>
<!-- Generator: Adobe Illustrator 16.0.3, SVG Export Plug-In . SVG Version: 6.00 Build 0)  -->
<!DOCTYPE svg PUBLIC "-//W3C//DTD SVG 1.1//EN" "http://www.w3.org/Graphics/SVG/1.1/DTD/svg11.dtd">
<svg version="1.1" id="Layer_1" xmlns="http://www.w3.org/2000/svg" xmlns:xlink="http://www.w3.org/1999/xlink" x="0px" y="0px"
	 width="214.5px" height="214.5px" viewBox="0 0 214.5 214.5" style="enable-background:new 0 0 214.5 214.5;" xml:space="preserve"
	>
<style type="text/css">
<![CDATA[
	.st0{filter:url(#Adobe_OpacityMaskFilter);}
	.st1{mask:url(#SVGID_1_);}
	.st2{fill:#00A651;}
]]>
</style>
<defs>
	<filter id="Adobe_OpacityMaskFilter" filterUnits="userSpaceOnUse" x="0" y="0" width="214.5" height="214.5">
		
			<feColorMatrix  type="matrix" values="-1 0 0 0 1  0 -1 0 0 1  0 0 -1 0 1  0 0 0 1 0" color-interpolation-filters="sRGB" result="source"/>
	</filter>
</defs>
<mask maskUnits="userSpaceOnUse" x="0" y="0" width="214.5" height="214.5" id="SVGID_1_">
	<g class="st0">
		
			<image style="overflow:visible;" width="300" height="394" xlink:href="E3CCFE7.jpg"  transform="matrix(0.9999 0 0 0.9999 -19.6016 -73.5996)">
		</image>
	</g>
</mask>
<g class="st1">
	<circle cx="107.2" cy="107.2" r="101.2"/>
	<path class="st2" d="M107.2,214.5C48.1,214.5,0,166.4,0,107.2C0,48.1,48.1,0,107.2,0s107.2,48.1,107.2,107.2
		C214.5,166.4,166.4,214.5,107.2,214.5z M107.2,12C54.7,12,12,54.7,12,107.2s42.7,95.2,95.2,95.2s95.2-42.7,95.2-95.2
		S159.8,12,107.2,12z"/>
</g>
</svg>
