<?xml version="1.0" encoding="utf-8"?>
<!-- Generator: Adobe Illustrator 16.0.3, SVG Export Plug-In . SVG Version: 6.00 Build 0)  -->
<!DOCTYPE svg PUBLIC "-//W3C//DTD SVG 1.1//EN" "http://www.w3.org/Graphics/SVG/1.1/DTD/svg11.dtd">
<svg version="1.1" id="Layer_1" xmlns="http://www.w3.org/2000/svg" xmlns:xlink="http://www.w3.org/1999/xlink" x="0px" y="0px"
	 width="91.5px" height="140.1px" viewBox="85.1 130.3 91.5 140.1" style="enable-background:new 85.1 130.3 91.5 140.1;"
	 xml:space="preserve">
<style type="text/css">
<![CDATA[
	.st0{fill:#FFFFFF;}
]]>
</style>
<g>
	<path d="M85.1,253.8c0-35.6,0-71.2,0-106.8c5,0,10.1,0,15.1,0c0.3-0.5,0.5-0.9,0.8-1.3c0.6-0.8,1.1-1.6,1.7-2.4
		c0.2-0.2,0.5-0.5,0.7-0.8c0.2-0.3,0.5-0.5,0.7-0.8c0.2-0.3,0.5-0.6,0.7-0.8c0.3-0.3,0.7-0.7,1.1-1c0.7-0.6,1.3-1.3,2.1-1.8
		c0.4-0.3,0.8-0.7,1.2-1c0.6-0.4,1.2-0.8,1.7-1.2c0.6-0.4,1.2-0.7,1.8-1c1.2-0.6,2.4-1.2,3.6-1.7c0.7-0.3,1.5-0.6,2.2-0.8
		c0.5-0.2,1-0.4,1.5-0.5c0.7-0.1,1.3-0.5,2-0.5c0.4-0.2,0.8-0.2,1.3-0.3c0.4-0.1,0.9-0.1,1.3-0.2c0.2,0,0.5-0.1,0.7-0.1
		c0.2-0.1,0.5,0,0.8-0.1c0.5,0.1,1-0.1,1.6-0.1c0.2,0,0.4,0,0.5,0c0,0,0.1-0.1,0.1-0.1c1.7,0,3.5,0,5.2,0c0,0.2,0.1,0.1,0.2,0.1
		c0.4,0,0.8-0.1,1.1,0c0.2,0.1,0.5,0.1,0.7,0.1c0.2,0,0.5,0.1,0.7,0.1c0.4,0,0.8,0,1.1,0.1c0.3,0.1,0.6,0.1,0.8,0.2
		c0.2,0.1,0.6,0,0.9,0.1c0.3,0.1,0.6,0,0.8,0.2c0.5,0,0.9,0.2,1.4,0.3c0.6,0.2,1.3,0.4,1.9,0.6c0.6,0.2,1.1,0.4,1.6,0.6
		c0.6,0.2,1.2,0.4,1.7,0.7c0.6,0.3,1.3,0.6,1.9,0.9c0.6,0.3,1.2,0.6,1.8,0.9c0.2,0.1,0.5,0.2,0.7,0.4c1,0.7,2.1,1.4,3,2.2
		c0.7,0.6,1.3,1.1,2,1.7c0.5,0.4,0.9,0.9,1.4,1.4c0.5,0.5,0.9,0.9,1.3,1.4c0,0,0.1,0,0.1,0.1c0.4,0.7,1,1.2,1.4,1.9
		c0.3,0.5,0.7,1,1,1.5c0.2,0.3,0.5,0.7,0.7,1c5,0,10,0,15,0c0,35.6,0,71.2,0,106.8c-5,0-10.1,0-15.1,0c-0.1,0.3-0.3,0.6-0.4,0.8
		c-0.7,1-1.4,2-2.1,3c-0.2,0.3-0.5,0.6-0.7,0.9c-0.2,0.3-0.5,0.6-0.7,0.8c-0.9,0.9-1.8,1.7-2.7,2.6c-0.2,0.2-0.5,0.5-0.8,0.7
		c-0.5,0.4-1.1,0.7-1.6,1.2c-0.7,0.6-1.5,1-2.3,1.5c-0.7,0.4-1.4,0.8-2.1,1.1c-0.6,0.3-1.1,0.6-1.7,0.8c-0.7,0.3-1.3,0.6-2,0.8
		c-0.5,0.2-0.9,0.3-1.4,0.5c-0.7,0.2-1.3,0.4-2,0.6c-0.5,0.1-1,0.3-1.5,0.4c-0.2,0-0.5,0-0.7,0.1c-0.5,0.2-0.9,0.2-1.4,0.3
		c-0.2,0.1-0.5,0.1-0.7,0.1c-0.2,0.1-0.5,0-0.8,0.1c-0.5-0.1-1,0.1-1.6,0.1c-0.2,0-0.4,0-0.6,0c0,0-0.1,0.1-0.1,0.1
		c-1.7,0-3.5,0-5.2,0c0,0-0.1-0.1-0.1-0.1c-0.7,0.1-1.3-0.1-1.9-0.1c-0.1,0-0.2,0-0.2,0c-0.3-0.3-0.6,0-0.9-0.2
		c-0.3-0.1-0.6-0.1-0.9-0.2c-0.3-0.1-0.7,0-0.9-0.1c-0.2-0.1-0.5-0.1-0.7-0.1c-0.4-0.1-0.8-0.2-1.2-0.3c-0.5-0.1-1-0.2-1.6-0.4
		c-0.8-0.3-1.6-0.5-2.4-0.8c-0.8-0.3-1.7-0.7-2.5-1c-1.3-0.6-2.5-1.2-3.7-2c-0.9-0.6-1.7-1.2-2.6-1.7c-0.7-0.5-1.3-1-1.9-1.6
		c-0.6-0.5-1.1-1-1.7-1.6c-0.2-0.2-0.4-0.5-0.7-0.8c-0.8-0.8-1.5-1.6-2.1-2.5c-0.5-0.6-0.9-1.2-1.3-1.8c-0.3-0.4-0.5-0.8-0.7-1.2
		C95.2,253.8,90.2,253.8,85.1,253.8z M174.5,251.7c0-34.2,0-68.3,0-102.5c-4.7,0-9.4,0-14.1,0c-0.1-0.2-0.3-0.4-0.4-0.6
		c-0.3-0.5-0.6-1-0.9-1.5c-0.3-0.6-0.8-1.1-1.2-1.6c-0.6-0.9-1.3-1.7-2.1-2.5c-0.2-0.2-0.4-0.4-0.6-0.6c-0.7-0.7-1.4-1.5-2.2-2.1
		c-0.3-0.2-0.5-0.5-0.8-0.7c-0.9-0.6-1.6-1.2-2.5-1.7c-0.8-0.5-1.5-1-2.3-1.4c-0.6-0.3-1.3-0.7-1.9-1c-0.4,0-0.7-0.3-1-0.4
		c-0.3-0.1-0.7-0.2-1-0.4c-0.9-0.4-1.9-0.7-2.9-1c-0.7-0.2-1.5-0.4-2.2-0.5c-0.7-0.1-1.5-0.2-2.3-0.4c-0.3-0.1-0.7,0-1-0.1
		c-0.3-0.1-0.7-0.1-1-0.1c-0.6-0.1-1.2,0-1.8-0.1c-0.5-0.1-1,0-1.5,0c-0.5,0-0.9,0-1.4,0.1c-0.5,0.1-1,0-1.4,0c0,0-0.1,0-0.1,0
		c-0.2,0.2-0.5,0.1-0.8,0.1c-0.3,0-0.6,0.1-0.8,0.1c-0.4,0-0.8,0.2-1.2,0.1c-0.2,0.2-0.5,0.1-0.8,0.2c-0.4,0.1-0.8,0.2-1.3,0.3
		c-0.5,0.1-0.9,0.2-1.3,0.3c-0.4,0.1-0.8,0.3-1.3,0.3c-0.8,0.2-1.5,0.5-2.3,0.8c-0.9,0.3-1.7,0.7-2.6,1.1c-0.6,0.3-1.2,0.6-1.7,0.9
		c-0.5,0.3-1.1,0.6-1.6,0.9c-0.9,0.6-1.8,1.2-2.7,1.9c-0.6,0.5-1.3,1-1.9,1.6c-0.7,0.6-1.4,1.3-2,2.1c-0.6,0.7-1.2,1.4-1.7,2.1
		c-0.4,0.5-1.5,2.1-1.9,2.8c-0.2,0.3-0.4,0.6-0.6,0.9c-4.7,0-9.4,0-14.2,0c0,34.2,0,68.3,0,102.5c4.8,0,9.5,0,14.3,0
		c0.3,0.5,0.6,1,0.9,1.5c0.5,0.7,1,1.4,1.5,2.1c0.6,0.8,1.3,1.6,2,2.4c0.6,0.7,1.3,1.4,2.1,2c0.6,0.5,1.1,1,1.7,1.4
		c0.4,0.3,0.8,0.6,1.3,0.9c0.6,0.3,1.1,0.7,1.6,1.1c0.6,0.4,1.3,0.7,1.9,1.1c0.9,0.5,1.9,0.9,2.9,1.3c0.6,0.2,1.2,0.5,1.8,0.7
		c0.5,0.2,1,0.3,1.4,0.5c0.2,0.1,0.5,0.1,0.8,0.2c0.6,0.2,1.2,0.2,1.8,0.5c0.2,0.1,0.5,0.1,0.8,0.1c0.3,0.1,0.6,0,0.8,0.1
		c0.2,0.1,0.5,0,0.7,0.1c0.2,0.2,0.5,0.1,0.7,0.1c0.1,0,0.1,0,0.2,0c0.4,0.3,0.9,0,1.4,0.2c0.6,0,1.2,0,1.8,0.1c0.7,0.1,1.5,0,2.2,0
		c0.7,0,1.5-0.1,2.2-0.1c0,0,0,0,0.1,0c0.2-0.2,0.5-0.1,0.8-0.1c0.3,0,0.5-0.1,0.8-0.1c0.4-0.1,0.8,0,1.2-0.1c0.5-0.1,1-0.2,1.5-0.3
		c0.4-0.1,0.9-0.2,1.3-0.3c0.5-0.1,0.9-0.2,1.4-0.4c0.5-0.1,0.9-0.3,1.3-0.4c1.2-0.4,2.4-0.8,3.5-1.4c0.9-0.5,1.8-0.8,2.7-1.4
		c0.5-0.3,1-0.6,1.4-0.9c0.6-0.3,1.1-0.8,1.7-1.2c0.8-0.5,1.5-1.1,2.2-1.7c1.2-1.1,2.4-2.2,3.4-3.5c0.4-0.5,0.8-1,1.2-1.5
		c0.4-0.5,0.8-1,1.1-1.6c0.2-0.5,0.5-0.9,0.8-1.3C164.9,251.7,169.7,251.7,174.5,251.7z"/>
	<path class="st0" d="M128.2,130.3c0,0-0.1,0.1-0.1,0.1c-0.2,0-0.3,0-0.5,0c-0.5,0-1,0.2-1.6,0.1c-0.2,0.2-0.5,0.1-0.8,0.1
		c-0.2,0.1-0.5,0.1-0.7,0.1c-0.4,0.1-0.9,0.1-1.3,0.2c-0.4,0.1-0.9,0.1-1.3,0.3c-0.7,0-1.3,0.3-2,0.5c-0.5,0.1-1,0.3-1.5,0.5
		c-0.7,0.2-1.5,0.5-2.2,0.8c-1.2,0.5-2.4,1.1-3.6,1.7c-0.6,0.3-1.2,0.7-1.8,1c-0.6,0.4-1.2,0.8-1.7,1.2c-0.5,0.3-0.8,0.7-1.2,1
		c-0.7,0.6-1.4,1.2-2.1,1.8c-0.4,0.3-0.8,0.7-1.1,1c-0.2,0.2-0.5,0.5-0.7,0.8c-0.2,0.3-0.5,0.5-0.7,0.8c-0.2,0.3-0.4,0.5-0.7,0.8
		c-0.6,0.7-1.2,1.6-1.7,2.4c-0.3,0.4-0.5,0.8-0.8,1.3c-5,0-10,0-15.1,0c0-5.5,0-11.1,0-16.6C99.5,130.3,113.9,130.3,128.2,130.3z"/>
	<path class="st0" d="M176.6,147c-5,0-10,0-15,0c-0.2-0.3-0.4-0.7-0.7-1c-0.3-0.5-0.7-1-1-1.5c-0.4-0.7-1-1.2-1.4-1.9
		c0,0-0.1-0.1-0.1-0.1c-0.5-0.5-0.9-1-1.3-1.4c-0.5-0.5-0.9-0.9-1.4-1.4c-0.7-0.6-1.3-1.1-2-1.7c-1-0.8-2-1.5-3-2.2
		c-0.2-0.1-0.4-0.3-0.7-0.4c-0.6-0.3-1.2-0.6-1.8-0.9c-0.6-0.3-1.3-0.6-1.9-0.9c-0.6-0.3-1.1-0.5-1.7-0.7c-0.5-0.2-1-0.4-1.6-0.6
		c-0.6-0.2-1.2-0.4-1.9-0.6c-0.5-0.1-0.9-0.3-1.4-0.3c-0.2-0.2-0.5-0.1-0.8-0.2c-0.2-0.1-0.6,0-0.9-0.1c-0.3-0.1-0.6-0.1-0.8-0.2
		c-0.3-0.1-0.7-0.1-1.1-0.1c-0.2,0-0.5-0.1-0.7-0.1c-0.2,0-0.5,0-0.7-0.1c-0.4-0.1-0.7,0-1.1,0c-0.1,0-0.2,0-0.2-0.1
		c14.4,0,28.7,0,43.1,0C176.6,135.9,176.6,141.4,176.6,147z"/>
	<path class="st0" d="M85.1,253.8c5,0,10,0,15.1,0c0.2,0.4,0.5,0.8,0.7,1.2c0.4,0.6,0.8,1.2,1.3,1.8c0.7,0.9,1.4,1.7,2.1,2.5
		c0.2,0.2,0.4,0.5,0.7,0.8c0.6,0.5,1.1,1,1.7,1.6c0.6,0.5,1.2,1.1,1.9,1.6c0.9,0.6,1.7,1.2,2.6,1.7c1.2,0.7,2.4,1.4,3.7,2
		c0.8,0.4,1.6,0.7,2.5,1c0.8,0.3,1.6,0.6,2.4,0.8c0.5,0.2,1,0.3,1.6,0.4c0.4,0.1,0.8,0.2,1.2,0.3c0.2,0.1,0.4,0,0.7,0.1
		c0.3,0.1,0.6,0.1,0.9,0.1c0.3,0.1,0.7,0,0.9,0.2c0.3,0.1,0.7-0.1,0.9,0.2c0,0,0.1,0,0.2,0c0.7,0,1.3,0.2,1.9,0.1
		c0,0,0.1,0.1,0.1,0.1c-14.4,0-28.7,0-43.1,0C85.1,264.8,85.1,259.3,85.1,253.8z"/>
	<path class="st0" d="M133.5,270.3c0,0,0.1-0.1,0.1-0.1c0.2,0,0.4,0,0.6,0c0.5,0,1-0.2,1.6-0.1c0.2-0.2,0.5-0.1,0.8-0.1
		c0.2-0.1,0.5-0.1,0.7-0.1c0.5-0.1,0.9-0.1,1.4-0.3c0.2-0.1,0.5-0.1,0.7-0.1c0.5-0.1,1-0.2,1.5-0.4c0.7-0.2,1.3-0.4,2-0.6
		c0.5-0.1,0.9-0.3,1.4-0.5c0.7-0.2,1.3-0.5,2-0.8c0.6-0.2,1.1-0.6,1.7-0.8c0.7-0.3,1.4-0.7,2.1-1.1c0.8-0.5,1.6-0.9,2.3-1.5
		c0.5-0.4,1.1-0.8,1.6-1.2c0.3-0.2,0.5-0.5,0.8-0.7c0.9-0.8,1.8-1.7,2.7-2.6c0.2-0.3,0.5-0.6,0.7-0.8c0.2-0.3,0.5-0.6,0.7-0.9
		c0.7-0.9,1.5-2,2.1-3c0.2-0.2,0.3-0.5,0.4-0.8c5,0,10.1,0,15.1,0c0,5.5,0,11,0,16.5C162.2,270.3,147.9,270.3,133.5,270.3z"/>
	<path class="st0" d="M174.5,251.7c-4.8,0-9.5,0-14.3,0c-0.3,0.4-0.6,0.9-0.8,1.3c-0.3,0.6-0.7,1.1-1.1,1.6c-0.4,0.5-0.8,1-1.2,1.5
		c-1,1.3-2.2,2.4-3.4,3.5c-0.7,0.6-1.4,1.2-2.2,1.7c-0.6,0.4-1.1,0.8-1.7,1.2c-0.5,0.3-1,0.6-1.4,0.9c-0.8,0.6-1.8,0.9-2.7,1.4
		c-1.1,0.6-2.3,1-3.5,1.4c-0.5,0.1-0.9,0.2-1.3,0.4c-0.5,0.1-0.9,0.3-1.4,0.4c-0.4,0.1-0.9,0.2-1.3,0.3c-0.5,0.1-1,0.2-1.5,0.3
		c-0.4,0.1-0.8,0.1-1.2,0.1c-0.2,0-0.5,0.1-0.8,0.1c-0.2,0-0.5,0-0.8,0.1c0,0,0,0-0.1,0c-0.7,0-1.5,0.1-2.2,0.1
		c-0.7,0-1.5,0.1-2.2,0c-0.6-0.1-1.2-0.1-1.8-0.1c-0.4-0.3-0.9,0-1.4-0.2c0,0-0.1,0-0.2,0c-0.2,0-0.5,0.1-0.7-0.1
		c-0.2-0.1-0.5,0-0.7-0.1c-0.2-0.1-0.6-0.1-0.8-0.1s-0.5,0-0.8-0.1c-0.6-0.2-1.2-0.2-1.8-0.5c-0.2-0.1-0.5-0.1-0.8-0.2
		c-0.5-0.1-1-0.3-1.4-0.5c-0.6-0.2-1.2-0.4-1.8-0.7c-1-0.4-2-0.8-2.9-1.3c-0.7-0.4-1.3-0.7-1.9-1.1c-0.6-0.3-1.1-0.7-1.6-1.1
		c-0.4-0.3-0.8-0.6-1.3-0.9c-0.6-0.5-1.1-0.9-1.7-1.4c-0.7-0.6-1.4-1.3-2.1-2c-0.7-0.8-1.4-1.6-2-2.4c-0.5-0.7-1-1.4-1.5-2.1
		c-0.3-0.5-0.6-1-0.9-1.5c-4.8,0-9.5,0-14.3,0c0-34.2,0-68.3,0-102.5c4.7,0,9.4,0,14.2,0c0.2-0.3,0.4-0.6,0.6-0.9
		c0.4-0.7,1.5-2.3,1.9-2.8c0.6-0.7,1.2-1.4,1.7-2.1c0.6-0.7,1.3-1.4,2-2.1c0.6-0.5,1.2-1,1.9-1.6c0.8-0.7,1.7-1.3,2.7-1.9
		c0.5-0.3,1-0.6,1.6-0.9c0.6-0.3,1.1-0.6,1.7-0.9c0.8-0.4,1.7-0.8,2.6-1.1c0.8-0.3,1.5-0.6,2.3-0.8c0.4-0.1,0.8-0.2,1.3-0.3
		c0.4-0.1,0.9-0.2,1.3-0.3c0.4-0.1,0.9-0.1,1.3-0.3c0.3-0.1,0.6,0.1,0.8-0.2c0.4,0.1,0.8-0.1,1.2-0.1c0.3,0,0.6-0.1,0.8-0.1
		c0.2,0,0.5,0.1,0.8-0.1c0,0,0.1,0,0.1,0c0.5,0,1,0.1,1.4,0c0.5-0.1,0.9-0.1,1.4-0.1c0.5,0,1-0.1,1.5,0c0.6,0.1,1.2,0,1.8,0.1
		c0.3,0,0.7,0,1,0.1c0.3,0.1,0.7,0,1,0.1c0.7,0.2,1.5,0.3,2.3,0.4c0.8,0.1,1.5,0.3,2.2,0.5c1,0.2,2,0.6,2.9,1c0.3,0.1,0.7,0.3,1,0.4
		c0.3,0.1,0.6,0.4,1,0.4c0.6,0.3,1.3,0.7,1.9,1c0.8,0.4,1.6,0.9,2.3,1.4c0.9,0.5,1.7,1.2,2.5,1.7c0.3,0.2,0.6,0.5,0.8,0.7
		c0.8,0.6,1.5,1.4,2.2,2.1c0.2,0.2,0.4,0.4,0.6,0.6c0.7,0.8,1.4,1.6,2.1,2.5c0.4,0.5,0.8,1,1.2,1.6c0.3,0.5,0.6,1,0.9,1.5
		c0.1,0.2,0.2,0.4,0.4,0.6c4.7,0,9.4,0,14.1,0C174.5,183.3,174.5,217.5,174.5,251.7z M131,186.9c0.1,0,0.2,0.1,0.2-0.1
		c0.1,0,0.2,0.1,0.2-0.2c0,0,0,0.1,0,0.1c0.1,0,0.1,0,0.2,0c0,0,0,0,0-0.1c-0.1,0-0.1,0-0.2,0.1c-0.1,0-0.2-0.1-0.2,0.1
		C131.2,186.8,131,186.8,131,186.9c-0.1,0-0.2-0.1-0.2,0.1c-0.1,0-0.2,0.1-0.4,0.1c-0.8,0.4-1.6,0.7-2.3,1.2
		c-0.8,0.5-1.7,0.9-2.5,1.5c-0.7,0.5-1.4,0.9-2,1.3c-0.7,0.5-1.3,1-2,1.6c-0.5,0.4-0.9,0.9-1.4,1.3c-0.2,0.2-0.4,0.5-0.7,0.8
		c-0.6,0.6-1.2,1.3-1.8,2c-0.4,0.5-0.7,1-1.1,1.5c-0.4,0.6-0.7,1.2-1.1,1.7c-0.2,0-0.4,0.1-0.5,0c-0.4-0.2-0.8-0.1-1.2-0.1
		c-0.5,0-0.9,0.1-1.4-0.1c-0.2-0.1-0.5,0-0.7,0c-0.2,0-0.5-0.1-0.7-0.1c-0.3,0-0.6,0-0.9-0.1c-0.2-0.1-0.5,0-0.8-0.1
		c-0.3-0.1-0.6,0-0.9-0.1c-0.3-0.1-0.6,0-0.9-0.1c-0.3-0.1-0.6-0.1-0.9-0.2c-0.5-0.1-1-0.3-1.5-0.4c-0.5-0.1-1-0.3-1.5-0.5
		c-1-0.3-2-0.7-2.9-1.2c-0.6-0.3-1.1-0.5-1.6-0.8c-1-0.6-2-1.3-2.9-2.1c-0.9-0.8-1.7-1.8-2.3-2.9c-0.3-0.6-0.6-1.2-0.9-1.9
		c-0.2-0.5-0.3-0.9-0.3-1.5c-0.2-0.2,0-0.5-0.1-0.7c-0.2-0.2-0.1-0.5-0.1-0.7c0-0.9-0.1-1.7,0.1-2.6c0.1-0.2,0.1-0.5,0.1-0.8
		c-1-0.2-1.8-0.7-2.6-1.4c-0.1,0.1-0.1,0.1-0.2,0.2c-0.1,0.7-0.3,1.4-0.3,2.1c-0.1,0.7,0,1.4,0,2.1c0,0.7,0.2,1.4,0.2,2.1
		c0,0.2,0.1,0.4,0.1,0.6c0.3,0.8,0.6,1.6,1,2.4c0.5,0.9,1.1,1.6,1.7,2.4c0.3,0.3,0.6,0.6,0.9,0.9c0.3,0.3,0.7,0.6,1,0.9
		c0.2,0.1,0.4,0.3,0.6,0.4c0.9,0.6,1.9,1.2,2.9,1.7c0.9,0.5,1.8,0.8,2.7,1.2c0.5,0.2,0.9,0.2,1.3,0.4c0.5,0.2,0.9,0.3,1.4,0.4
		c0.3,0.1,0.7,0.2,1,0.2c0.5,0,1,0.3,1.5,0.2c0.5,0.3,1.1,0.2,1.7,0.3c0.6,0.1,1.2,0.1,1.7,0.2c0.5,0.1,0.9,0,1.4,0.1
		c0.9-0.1,1.8,0.2,2.8,0.1c0.6,0,1.2,0,1.8,0c0,0.1,0,0.2,0,0.2c-0.4,0.7-0.7,1.4-0.9,2.1c-0.2,0.6-0.5,1.2-0.5,1.8
		c-0.2,0.1,0,0.3-0.1,0.5c-0.1,0.2,0,0.4-0.1,0.5c-0.1,0.2,0,0.5-0.1,0.6c-0.1,0.2,0,0.5-0.1,0.7c0,0.2-0.1,0.4-0.1,0.7
		c0,0.5,0,0.9,0,1.4c0,0.5-0.1,0.9,0.1,1.4c0.1,0.2,0,0.5,0.1,0.7c0.1,0.2,0,0.5,0.1,0.7c0.1,0.2,0,0.5,0.2,0.7
		c0.2,0.9,0.5,1.7,0.8,2.4c0.5,1.2,1.2,2.2,2,3.2c-0.2,0.2-0.5,0.3-0.7,0.5c-0.5,0.3-1,0.6-1.5,0.9c-0.4,0.3-0.8,0.6-1.3,0.9
		c-0.7,0.5-1.5,1.1-2.2,1.6c-0.3,0.2-0.6,0.6-0.9,0.8c-0.7,0.5-1.2,1.2-1.9,1.7c-0.2,0.1-0.3,0.3-0.4,0.5c-0.7,0.6-1.3,1.3-1.8,2
		c-0.4,0.5-0.8,1-1.2,1.5c-0.6,0.8-1.1,1.6-1.6,2.5c-0.4,0.8-0.8,1.6-1.2,2.5c-0.1,0.2-0.2,0.5-0.3,0.8c-0.2,0.6-0.4,1.1-0.5,1.7
		c-0.1,0.4-0.2,0.8-0.3,1.3c0,0.3,0,0.6-0.1,0.8c-0.1,0.2-0.1,0.5-0.1,0.7c0,0.3-0.1,0.5-0.1,0.8c0.1,1.1-0.1,2.2,0.1,3.3
		c0.1,0.3,0,0.7,0.1,1c0,0.1,0.1,0.3,0.1,0.5c0.1,0.4,0.1,0.8,0.3,1.2c0.2,0.6,0.4,1.3,0.7,1.9c0.4,0.9,0.9,1.8,1.4,2.6
		c0.5,0.8,1.1,1.5,1.7,2.2c0.5,0.5,0.9,0.9,1.4,1.4c0.6,0.5,1.2,0.9,1.7,1.4c0.7,0.6,1.6,1.1,2.4,1.5c0.9,0.5,1.9,1,2.9,1.4
		c0.9,0.3,1.7,0.6,2.6,0.9c0.8,0.2,1.7,0.4,2.5,0.7c0.3,0.1,0.7,0,0.9,0.1c0.3,0.2,0.7,0,1,0.2c0.2,0.1,0.6,0,0.9,0.1
		c0.3,0.1,0.6,0,0.9,0.1c0.9,0,1.7,0.2,2.6,0.1c0.5,0,1,0,1.5,0c1.1,0,2.2,0.1,3.3-0.1c0.5-0.1,0.9,0,1.4-0.1
		c0.3-0.1,0.6,0.1,0.9-0.1c0.6,0,1.2-0.1,1.7-0.2c0.3,0,0.6-0.1,0.8-0.1c0.3,0,0.6,0,0.8-0.1c0.2-0.1,0.6,0,0.8-0.2
		c0.5,0,1-0.2,1.5-0.3c0.7-0.1,1.3-0.4,2-0.5c0.5-0.1,1-0.4,1.5-0.5c0.5-0.1,1-0.5,1.5-0.5c0.9-0.5,1.9-0.8,2.9-1.3
		c1.3-0.6,2.6-1.2,3.8-2c0.5-0.3,1-0.6,1.4-0.9c0.5-0.3,1-0.7,1.5-1c0.9-0.6,1.7-1.3,2.5-1.9c0.7-0.5,1.3-1,1.9-1.6
		c1-0.9,1.9-2,3-2.9c0.6-0.5,1.2-1.1,1.7-1.8c0.3-0.3,0.6-0.7,0.9-1c0.5-0.6,1-1.3,1.5-2c0.6-0.8,1-1.6,1.5-2.4
		c0.4-0.7,0.7-1.4,1-2.2c0.1-0.2,0.2-0.4,0.2-0.7c0.3-1,0.7-2,0.8-3c0.2-0.2,0-0.5,0.2-0.6c0.1-0.2,0-0.5,0.1-0.7c0-0.1,0-0.1,0-0.2
		c0.2-0.3,0-0.7,0.1-1c0.1-0.3,0.1-0.7,0.1-1c0-0.4-0.1-0.7-0.1-1c0-0.5-0.1-1-0.1-1.5c0,0,0-0.1,0-0.1c-0.1-0.4-0.2-0.8-0.3-1.2
		c-0.2-0.6-0.3-1.2-0.6-1.7c-0.4-0.9-0.8-1.9-1.4-2.7c-0.6-0.8-1.1-1.6-1.8-2.3c-0.2-0.2-0.6-0.5-0.7-0.8c0-0.1-0.1-0.2-0.2-0.2
		c-0.4-0.2-0.6-0.5-0.9-0.8c-0.3-0.3-0.6-0.5-0.9-0.8c0.3-0.2,0.7-0.5,1-0.7c0.5-0.4,1-0.9,1.6-1.3c0.7-0.5,1.2-1.1,1.8-1.6
		c0.7-0.7,1.4-1.5,2-2.2c0.2-0.3,0.6-0.6,0.8-0.9c0.2-0.3,0.4-0.6,0.7-0.9c0.5-0.7,0.9-1.5,1.3-2.3c0.4-0.7,0.7-1.4,0.9-2.1
		c0.1-0.2,0.1-0.3,0.2-0.5c0.1-0.2,0.1-0.4,0.2-0.6c0.1-0.2-0.1-0.4,0.1-0.5c0-0.5,0.2-0.8,0.2-1.3c0-0.3,0-0.6,0.1-0.9
		c0.1-0.2,0.1-0.5,0.1-0.7c0-0.2,0.1-0.4,0.1-0.7c0-0.4,0-0.8,0-1.3c0-0.4-0.2-0.8-0.1-1.3c-0.2-0.2,0-0.6-0.1-0.8
		c-0.3-0.8-0.4-1.7-0.8-2.5c-0.3-0.7-0.6-1.4-1-2c-0.7-1-1.5-2-2.3-2.9c-0.3-0.3-0.6-0.6-0.9-0.8c-0.3-0.2-0.6-0.6-0.9-0.8
		c-0.9-0.6-1.9-1.3-2.9-1.8c-0.7-0.3-1.4-0.6-2.1-0.9c-0.5-0.2-0.9-0.3-1.4-0.5c-0.8-0.2-1.6-0.5-2.5-0.6c-0.2,0-0.5,0-0.8-0.1
		c-0.6-0.2-1.2-0.2-1.8-0.3c-0.4-0.1-0.8,0-1.1-0.1c-0.9,0.1-1.7-0.1-2.6-0.1c-1.2,0-2.3,0.2-3.5,0.1c-0.1,0-0.1,0-0.2,0
		c-0.1,0.2-0.4,0.1-0.5,0.1c-0.2,0-0.4,0.1-0.6,0.1c-0.3,0-0.6,0-0.9,0.1c-0.5,0.1-1,0.1-1.5,0.3c-0.2,0-0.5,0.1-0.7,0.1
		c0,0-0.1,0-0.2,0c-0.4,0.1-0.8,0.2-1.2,0.3c-0.5,0.1-1,0.3-1.5,0.4c-0.7,0.2-1.5,0.5-2.2,0.7c-1.1,0.4-2.2,0.8-3.2,1.3
		c-0.8,0.4-1.6,0.8-2.4,1.3c-0.6,0.3-1.2,0.7-1.7,1c-0.8,0.5-1.6,1.1-2.4,1.7c-0.8,0.6-1.5,1.2-2.2,1.8c-0.8,0.8-1.7,1.6-2.4,2.5
		c-0.3,0.5-0.8,0.9-1.1,1.4c-0.6,0.8-1.2,1.7-1.7,2.7c-0.7,1.3-1.4,2.7-1.7,4.1c-0.2,0.7-0.5,1.4-0.5,2.1c-0.2,0.4-0.1,0.9-0.2,1.3
		c-0.1,0.5,0,1,0,1.4c0,0.5,0,0.9,0.1,1.4c0.1,0.5,0.2,0.9,0.2,1.4c0.1,0.7,0.4,1.5,0.7,2.2c0.6,1.3,1.3,2.6,2.3,3.7
		c0.2,0.2,0.3,0.4,0.4,0.6c-0.3,0.2-0.6,0.4-0.9,0.6c-0.5,0.3-0.9,0.5-1.4,0.8c-0.8,0.6-1.6,1.1-2.4,1.6c-0.7,0.5-1.4,1.1-2.2,1.6
		c-0.7,0.5-1.3,1-1.9,1.6c-0.6,0.6-1.1,1.1-1.6,1.7c-0.5,0.6-1,1.2-1.6,1.9c-0.2,0.2-0.3,0.5-0.5,0.7c-0.5,0.7-1,1.5-1.5,2.3
		c-0.4,0.7-0.7,1.4-1,2.1c-0.3,0.7-0.6,1.4-0.8,2.1c-0.2,0.7-0.4,1.4-0.5,2.1c0,0.2,0,0.6-0.1,0.8c-0.1,0.3,0,0.6-0.1,0.8
		c-0.1,0.3-0.1,0.6-0.1,0.9c0,0.9-0.1,1.9,0.1,2.8c0.1,0.2,0,0.5,0.1,0.8c0.1,0.2,0.1,0.5,0.1,0.8c0.1,0.9,0.4,1.7,0.8,2.5
		c0.6,1.2,1.1,2.3,1.9,3.4c0.5,0.7,1,1.4,1.6,2c0.5,0.5,0.9,0.9,1.4,1.3c0.6,0.5,1.2,0.9,1.8,1.3c0.8,0.6,1.7,1,2.6,1.5
		c0.9,0.5,1.7,0.9,2.7,1.2c0.9,0.3,1.9,0.7,2.9,0.9c0.3,0,0.6,0.1,0.9,0.2c0.3,0.1,0.6,0.1,0.9,0.2c0.3,0.1,0.6,0.1,0.9,0.2
		c0.6,0.1,1.2,0.2,1.7,0.2c0.3,0,0.7,0,1,0.1c0.7-0.1,1.4,0.1,2.1,0.1c0.7,0,1.5,0,2.2,0s1.4-0.1,2.2-0.1c0.6,0,1.3-0.1,1.9-0.1
		c0,0,0.1,0,0.1,0c0.2-0.2,0.5-0.1,0.7-0.1c0.2,0,0.5-0.1,0.7-0.1c0.3,0,0.7,0,1-0.1c0.2-0.1,0.5,0,0.6-0.1c0.2-0.1,0.4-0.1,0.6-0.1
		c0.1,0,0.1-0.1,0.2-0.1c0.3,0,0.6-0.2,0.9-0.1c-0.5,0.1-1,0.3-1.5,0.4c-0.5,0.1-0.9,0.2-1.4,0.3c-0.5,0.1-0.9,0.2-1.4,0.3
		c-0.2,0.1-0.5,0.1-0.7,0.1c-0.2,0.1-0.5,0.1-0.8,0.1c-0.3,0.1-0.6,0.1-0.9,0.1c-0.3,0-0.7,0.1-1,0.1c-0.8,0.1-1.7,0.1-2.5,0.1
		c-0.5,0-1,0-1.5,0c-0.6,0-1.3,0-1.9,0c-0.7,0-1.3-0.2-1.9-0.1c0,0-0.1,0-0.1,0c-0.2-0.2-0.5-0.1-0.7-0.1c-0.2,0-0.5-0.1-0.7-0.1
		c-0.5,0-0.9-0.1-1.4-0.2c-0.8-0.1-1.5-0.3-2.3-0.5c-0.7-0.1-1.3-0.4-1.9-0.6c-0.4-0.1-0.7-0.3-1-0.4c-0.8-0.2-1.6-0.7-2.4-1
		c-0.5-0.2-0.9-0.5-1.3-0.7c-0.3-0.2-0.7-0.4-1-0.5c-1-0.7-2-1.4-2.9-2.2c-0.8-0.7-1.5-1.5-2.2-2.4c-0.5-0.6-0.9-1.3-1.3-2
		c-0.4-0.8-0.8-1.6-1.1-2.4c-0.2-0.7-0.4-1.4-0.5-2.1c0-0.2,0-0.6-0.1-0.8c-0.1-0.3-0.1-0.6-0.1-0.8c0-0.3-0.2-0.6-0.1-0.9
		c0.1-0.7-0.1-1.4,0.1-2.1c0.1-0.3-0.1-0.6,0.1-0.9c0.1-0.2,0-0.6,0.1-0.9c0-0.6,0.3-1.2,0.4-1.8c0.1-0.3,0.2-0.7,0.3-1.1
		c0.1-0.3,0.3-0.7,0.4-1c0.1-0.4,0.3-0.7,0.5-1c0.4-0.9,0.9-1.9,1.5-2.7c0.4-0.7,0.8-1.3,1.4-1.9c0.5-0.6,0.9-1.3,1.5-1.8
		c1-1,2-2.1,3.1-3c0,0,0-0.1,0.1-0.1c0.7-0.5,1.3-1,2-1.5c0.5-0.3,1-0.7,1.5-1.1c1.1-0.8,2.2-1.5,3.4-2.1c0.1,0,0.1-0.1,0.1-0.2
		c-0.3-0.5-0.7-1-1-1.4c-0.5-0.7-0.9-1.3-1.2-2.1c-0.2-0.5-0.4-0.9-0.6-1.3c-0.2-0.4-0.3-0.9-0.4-1.3c-0.1-0.4-0.3-0.8-0.2-1.3
		c-0.2-0.2-0.1-0.5-0.1-0.8c0-0.2-0.1-0.5-0.1-0.8c0-0.7,0-1.3,0.1-2c0.1-0.4,0-0.8,0.1-1.2c0.2-0.6,0.2-1.2,0.4-1.7
		c0.3-0.9,0.5-1.7,0.9-2.6c0.4-0.8,0.7-1.6,1.2-2.3c0.3-0.6,0.7-1.1,1.1-1.6c0.2-0.3,0.5-0.7,0.7-1c0.2-0.2,0.5-0.4,0.6-0.7
		c0.2-0.4,0.6-0.6,0.8-0.9c0.3-0.3,0.5-0.7,0.9-1c0.5-0.4,0.9-0.8,1.3-1.2c0,0,0.1-0.1,0.1-0.1c0.5-0.4,1.1-0.9,1.6-1.3
		c0.5-0.4,1-0.7,1.5-1.1c0.4-0.2,0.7-0.4,1-0.7c0.9-0.6,1.9-1.1,2.8-1.7C130.9,187.1,131,187.1,131,186.9z M163.3,174.5
		c0-0.1,0-0.2,0.1-0.2c0.5-0.4,0.8-0.9,1.3-1.3c0.8-0.6,1.5-1.3,2.3-2c0.1-0.1,0.2-0.3,0.4-0.5c0.4-0.5,0.7-0.9,0.6-1.6
		c0-0.1,0-0.3,0-0.5c-0.2-0.6-0.6-1-1-1.4c-0.5-0.5-1-0.9-1.5-1.4c-0.2-1.3-0.9-2.1-2.1-2.6c-0.3,0-0.7,0-1,0
		c-0.7,0.6-1.1,1.4-1.3,2.5c-0.1,0.1-0.2,0.3-0.4,0.5c-0.5,0.5-1.1,1-1.7,1.5c-0.6,0.5-1.1,1-1.7,1.4c-0.4,0.3-0.8,0.7-1.2,1.1
		c0,0-0.1,0.1-0.1,0.1c-0.3,0.1-0.4,0.3-0.6,0.5c-0.2,0.2-0.5,0.3-0.7,0.5c-0.5,0.5-1.1,0.8-1.7,1.1c-0.3,0.2-0.7,0.3-1.1,0.5
		c-0.4,0.2-0.8,0.2-1.2,0.4c-0.4,0.1-0.8,0.3-1.3,0.3c-0.8,0.1-1.5,0.5-2.2,0.5c-0.2,0.2-0.4,0-0.6,0.1c-0.2,0.1-0.4,0.1-0.6,0.1
		c-0.1,0-0.2,0-0.2,0c-0.3,0.2-0.6,0.1-0.8,0c0.2-0.8,0.5-1.6,0.9-2.3c0.2,0,0.4,0.1,0.7,0.1s0.4,0.1,0.7,0.1c0.5,0,1,0,1.6,0.1
		c0.2,0.1,0.6,0,0.8-0.1c0.3,0,0.5-0.1,0.8-0.1c0.3,0,0.6-0.1,0.8-0.2c0.7-0.2,1.4-0.5,2-0.9c0.5-0.4,0.9-0.8,1.3-1.3
		c0.3-0.3,0.4-0.7,0.3-1.2c0-0.3,0-0.7,0-1c0-0.3-0.1-0.6-0.2-0.9c-0.3-0.7-0.7-1.2-1.3-1.7c-0.2-0.2-0.4-0.3-0.7-0.3
		c-0.2,0-0.4,0-0.6-0.1c-0.1,0-0.3,0.1-0.4,0.1c-0.6-0.1-1.1,0.1-1.6,0.3c-0.8,0.2-1.5,0.6-2.2,0.9c-0.4,0.2-0.8,0.4-1.2,0.7
		c-0.2,0.2-0.5,0.4-0.8,0.6c-0.5,0.3-1,0.7-1.4,1.1c-0.8,0.7-1.5,1.5-2.1,2.3c-0.3,0.4-0.6,0.7-0.8,1.2c-0.2,0.6-0.6,1.2-0.7,1.8
		c-0.2,0.5-0.2,1.1-0.1,1.6c0.2,0.8,0.8,1.4,1.3,2c0.3,0.3,0.7,0.6,1,0.8c0.4,0.1,0.7,0.1,1,0.1c0.6,0,1.1-0.1,1.6-0.1
		c0.2-0.2,0.5-0.1,0.7-0.2c0.6-0.2,1.2-0.3,1.8-0.5c0.8-0.2,1.5-0.5,2.3-0.7c0.2-0.1,0.3-0.1,0.5-0.1c0.3,0.3,0.6,0.6,0.9,0.8
		c0.4,0.3,0.8,0.6,1.4,0.5c0.4-0.4,0.8-0.7,1.2-1c2-2,3.9-3.9,6-5.8c0.8-0.8,1.5-1.6,2.5-2.3c0.2,0.2,0.3,0.3,0.5,0.5
		c0.2,0.2,0.4,0.3,0.5,0.6c-0.3,0.2-0.6,0.4-0.8,0.7c-0.6,0.6-1.2,1.2-1.8,1.8c-0.2,0.2-0.5,0.4-0.7,0.7c-0.2,0.3-0.4,0.5-0.6,0.7
		c-0.2,0.2-0.4,0.5-0.6,0.7c-0.3,0.4-0.7,0.8-0.7,1.3c0,0-0.1,0.1-0.1,0.1c0,0.1,0.1,0.1,0.1,0.2c0,0.5,0.3,0.8,0.6,1.2
		c0.3,0.4,0.8,0.7,1.2,1c0.7,0.5,1.5,0.5,2.2,0.5c0.3-0.2,0.6-0.1,0.9-0.3c0.3-0.2,0.6-0.2,0.9-0.4c1.2-0.5,2.4-1.2,3.5-2
		c0.8-0.6,1.5-1.2,2.3-1.9c0.6-0.5,1.1-1,1.6-1.5c0.1-0.2,0.3-0.3,0.4-0.5c0.1-0.4,0-0.7-0.2-0.9c-0.2-0.4-0.6-0.6-1.1-0.7
		c-0.6-0.1-1.1,0.3-1.6,0.6c-0.3,0.2-0.6,0.5-0.9,0.7c-0.7,0.3-1.2,0.8-1.9,1.1c-0.9,0.7-2,1.2-3,1.9
		C163.6,174.4,163.4,174.4,163.3,174.5z M116.6,152.9c0.1,0.1,0.1,0.1,0.2,0.1c0.2,0.8-0.1,1.4-0.3,2c-0.4,0.9-0.8,1.9-1.4,2.7
		c-0.8,1.2-1.5,2.4-2.5,3.4c-0.3,0.3-0.6,0.8-0.5,1.4c0,0.2,0.1,0.3,0.2,0.6c0.2,0.1,0.4,0.3,0.7,0.5c0.2,0.1,0.5,0.1,0.7,0.2
		c0.5,0.1,0.9-0.1,1.4-0.1c0.2-0.2,0.5-0.1,0.7-0.2c0.5-0.3,1-0.5,1.3-1c0.1-0.2,0.3-0.3,0.4-0.5c0.5-0.6,0.9-1.1,1.4-1.7
		c0.7-1.1,1.5-2.2,2-3.5c0.2-0.4,0.3-0.8,0.5-1.3c0.2-0.5,0.2-0.9,0.3-1.4c-0.1-0.7,0.1-1.4-0.1-2.1c-0.2-1.1-0.9-1.9-1.9-2.5
		c-0.8-0.4-1.6-0.6-2.5-0.7c-1.1,0-2.2-0.1-3.2,0.2c-0.4,0.1-0.9,0.1-1.3,0.3c-1,0.3-1.9,0.7-2.9,1.1c-0.6,0.3-1.3,0.6-1.9,1
		c-0.9,0.6-1.9,1.1-2.8,1.8c-0.4,0.3-0.8,0.6-1.2,0.9c-0.6,0.6-1.2,1.2-1.8,1.7c-0.2,0.2-0.3,0.5-0.5,0.7c-0.3,0.4-0.5,0.9-0.7,1.3
		c-0.4,0.7-0.7,1.9-0.7,2.6c0,0.5,0,1,0.1,1.5c0.1,0.5,0.3,0.9,0.6,1.4c0.2,0.5,0.5,0.9,0.9,1.3c0.6,0.6,1.2,1.2,1.8,1.7
		c0.5,0.3,0.9,0.8,1.3,1.3c0.3,0.4,0.7,0.8,0.8,1.4c0.1,0.4,0.2,0.8,0,1.2c-0.3,0.5-0.6,0.9-0.9,1.4c-0.3,0.5-0.8,0.9-1.2,1.3
		c-0.2,0.2-0.5,0.4-0.6,0.6c-0.4,0.4-0.9,0.7-1.4,1c-0.5,0.3-0.9,0.7-1.5,0.9c-0.2,0.2-0.5,0.3-0.7,0.4c-0.3,0.1-0.5,0.2-0.8,0.3
		c-0.2,0-0.3,0.2-0.5,0.2c-0.7,0.1-1.3,0.3-2,0.2c-0.2,0-0.4-0.1-0.7-0.1c0-0.2,0-0.3,0-0.4c0-0.1,0-0.1,0-0.2
		c0.3-0.9,0.7-1.7,1.3-2.6c0.6-0.8,1.1-1.6,1.6-2.4c0.2-0.3,0.5-0.6,0.7-1c0.2-0.3,0.4-0.6,0.6-0.9c0.2-0.4,0.2-0.8,0-1.2
		c-0.2-0.6-0.8-0.7-1.4-0.8c-0.2-0.1-0.5,0-0.7,0c-0.2,0-0.5,0.1-0.7,0.1c-0.3,0.1-0.6,0.1-0.9,0.3c-0.4,0.2-0.8,0.5-1.1,0.8
		c-0.6,0.6-1.2,1.2-1.7,1.9c-0.3,0.5-0.7,0.9-1,1.5c-0.7,1.3-0.8,1.6-1.1,3.1c-0.2,0.2-0.1,0.5-0.1,0.7c0,0.3-0.2,0.5-0.1,0.8
		c0.1,0.2,0.1,0.5,0.1,0.7c0,0.2,0,0.5,0.1,0.8c0.4,0.9,0.9,1.6,1.9,2c0.4,0.1,0.8,0.3,1.2,0.4c0.3,0.1,0.6-0.1,0.9,0.1
		c0.1,0,0.2,0,0.3,0c0.6,0,1.2,0,1.7-0.1c0.3-0.1,0.7-0.1,1.1-0.1c0.2,0,0.5-0.1,0.8-0.1c0.6-0.2,1.3-0.4,1.9-0.6
		c1.1-0.5,2.1-0.9,3.1-1.5c1-0.6,2-1.3,2.9-2.1c0.7-0.6,1.4-1.3,2-2c0.1-0.2,0.3-0.5,0.4-0.6c0.4-0.6,0.7-1.2,1-1.8
		c0.3-0.6,0.2-1.2,0.4-1.7c0-0.2-0.1-0.3-0.1-0.5c0-0.8-0.4-1.6-0.9-2.2c-0.2-0.3-0.5-0.5-0.7-0.8c-0.2-0.4-0.5-0.6-0.8-0.8
		c-0.2-0.2-0.4-0.4-0.6-0.6c-0.2-0.2-0.5-0.4-0.7-0.6c-0.2-0.2-0.4-0.3-0.7-0.5c-0.3-0.2-0.5-0.4-0.8-0.6c-0.5-0.3-0.8-0.8-0.8-1.5
		c0-0.8,0.4-1.5,0.8-2.1c0.4-0.6,0.9-1,1.4-1.5c0.3-0.3,0.6-0.5,0.9-0.8c0.4-0.3,0.9-0.6,1.3-0.9c0.7-0.6,1.6-1,2.4-1.5
		c0.7-0.4,1.4-0.7,2.1-1c0.5-0.2,1-0.3,1.6-0.4C115.6,152.9,116.2,152.9,116.6,152.9z M130.1,177.9c0.2,0,0.4-0.1,0.6-0.1
		c0.5,0,0.9-0.1,1.4-0.2c0.7-0.2,1.3-0.4,1.9-0.7c0.4-0.2,0.8-0.3,1.1-0.5c0.7-0.5,1.3-0.8,2-1.3c0.6-0.4,1.2-0.8,1.6-1.3
		c0.4-0.4,0.8-0.7,1.1-1.2c0.2-0.4,0.6-0.6,0.8-0.9c0.2-0.3,0.5-0.7,0.7-1c0.2-0.3,0.4-0.7,0.6-1.1c0.2-0.5,0.5-1,0.3-1.6
		c-0.1-0.6-0.4-1.2-0.8-1.6c-0.6-0.7-1.3-1.2-2.1-1.4c-0.4-0.1-0.9-0.3-1.3-0.3c-0.6,0-1.2,0.2-1.7,0.3c-0.1-0.4-0.4-0.5-0.7-0.6
		c-0.5-0.2-1.6-0.3-2.1-0.2c-0.3,0.1-0.6,0.2-0.8,0.4c-0.4,0.3-0.8,0.7-1.2,1c-0.8,0.8-1.5,1.6-2.3,2.5c-0.5,0.6-1,1.2-1.6,1.8
		c-0.6,0.7-1.1,1.4-1.7,2.2c-0.3,0.4-0.6,0.8-0.9,1.2c-0.2,0.2-0.4,0.6-0.6,0.8c-0.2,0.3-0.5,0.6-0.7,0.9c-0.3,0.4-0.6,0.7-0.8,1.1
		c-0.4,0.5-0.7,1-1.1,1.5c-0.3,0.4-0.6,0.8-0.9,1.2c-0.3,0.5-0.7,1-1.1,1.5c-0.4,0.5-0.8,1-1.2,1.6c-0.3,0.5-0.7,1-1.1,1.5
		c-0.4,0.5-0.8,1-1.1,1.5c-0.5,0.7-0.9,1.5-1.5,2.1c-0.6,0.7-1.1,1.5-1.6,2.3c-0.4,0.5-0.7,1-1,1.5c-0.3,0.5-0.7,1-1,1.5
		c-0.2,0.3-0.5,0.7-0.4,1.1c0.5,0.8,1.3,1.2,2,1.5c0.4,0.2,0.8,0.2,1.2,0.1c0.5-0.1,0.8-0.5,1-0.8c0.2-0.2,0.4-0.5,0.6-0.7
		c0.5-0.5,0.9-1.2,1.3-1.7c0.5-0.6,0.8-1.2,1.3-1.8c0.5-0.6,0.8-1.3,1.3-1.9c0.5-0.8,1-1.5,1.6-2.3c0.2-0.3,0.5-0.6,0.7-0.9
		c0.2-0.3,0.4-0.7,0.6-1c0.4-0.6,0.8-1.2,1.2-1.8c0.2-0.4,0.6-0.7,0.8-1.1c0.2-0.4,0.4-0.7,0.7-1c0.2-0.3,0.5-0.7,0.7-1
		c0.2-0.3,0.4-0.7,0.7-1c0.2-0.2,0.4-0.5,0.6-0.8c0.1-0.1,0.2-0.3,0.3-0.4c0.4,0.4,0.7,0.7,1.1,0.9
		C129.2,177.8,129.6,177.9,130.1,177.9z M118,164.9c-0.3,0.3-0.6,0.6-0.9,0.8c-0.9,0.6-1.6,1.3-2.4,2c-0.7,0.6-1.4,1.4-2,2.2
		c-0.5,0.6-0.9,1.3-1.3,2c-0.3,0.5-0.5,1.2-0.7,1.7c-0.1,0.4-0.1,0.8-0.1,1.1c0.1,0.3,0.2,0.7,0.5,1c0.2,0.4,0.5,0.8,0.8,1
		c0.4,0.4,0.9,0.7,1.4,0.9c0.3,0.1,0.6,0.2,0.9,0.2c0.3,0,0.7,0.2,1,0.1c0.1,0.1,0.2,0,0.4,0c0.2,0,0.4,0,0.5,0
		c0.5-0.2,1-0.3,1.5-0.6c0.6-0.3,1.1-0.6,1.7-0.9c0.9-0.5,2-1.3,2.4-1.8c0.8-0.8,1.7-1.6,2.4-2.5c0.5-0.6,1-1.3,1.5-1.9
		c0.6-0.7,1.1-1.4,1.6-2.2c0.4-0.6,0.8-1.2,0.6-2c0,0,0,0,0,0c0,0-0.1-0.1-0.1-0.1c-0.2-0.4-0.5-0.8-1-0.8c-0.2-0.2-0.5,0-0.7-0.1
		c-0.2-0.1-0.5,0-0.7,0c-0.4,0.1-0.7,0.3-0.9,0.6c-0.6,1-1.4,1.9-2.1,2.9c-0.5,0.7-1.2,1.3-1.7,2c-0.5,0.5-0.9,0.9-1.4,1.4
		c-0.7,0.6-1.3,1.2-2,1.7c-0.5,0.4-1.1,0.7-1.7,1c-0.1,0-0.2,0-0.3,0c0.1-0.3,0.2-0.6,0.3-0.8c0.2-0.6,0.6-1.1,1-1.6
		c0.2-0.3,0.4-0.6,0.6-0.8c0.3-0.5,0.7-0.9,1.1-1.3c0.7-0.8,1.5-1.6,2.4-2.2c0.3-0.2,0.5-0.5,0.7-0.8c0-0.1,0-0.2,0-0.3
		c0-0.4-0.1-0.7-0.3-0.9c-0.3-0.3-0.7-0.5-1-0.7c-0.4-0.2-0.8-0.3-1.2-0.4C118.6,164.8,118.3,164.9,118,164.9z M123.2,155
		c-0.1,0.5-0.2,1-0.4,1.4c-0.2,0.5-0.4,0.9-0.6,1.3c0.1,0,0.2,0,0.3,0c0.3-0.2,0.7-0.2,1-0.3c0.3-0.1,0.7-0.3,1-0.4
		c0.6-0.2,1.3-0.5,1.9-0.7c0.6-0.2,1.2-0.4,1.8-0.6c0.6-0.1,1.2-0.3,1.7-0.5c0.5-0.1,1-0.3,1.6-0.4c0.4-0.1,0.8-0.2,1.2-0.3
		c0.4-0.1,0.8-0.2,1.3-0.3c0.5-0.1,1-0.3,1.6-0.2c0.7-0.3,1.5-0.2,2.3-0.5c0.2-0.1,0.5,0,0.6-0.1c0.2-0.1,0.4-0.1,0.6-0.1
		c0.2,0,0.4-0.1,0.6-0.1c0.3,0,0.7-0.1,1-0.1c0.3-0.1,0.7,0,1-0.1c0.5-0.1,0.9,0,1.4-0.1c0.9,0.1,1.7-0.1,2.6-0.1c0.7,0,1.4,0,2.1,0
		c1,0,2.1-0.1,3.1,0.1c0.3,0.1,0.6,0,0.9,0c0.3,0,0.6,0.1,0.9,0.1c0.5,0,1,0,1.6,0.1c0.2,0,0.5,0.1,0.8,0.1c0.1,0,0.3,0.1,0.4,0.1
		c0.1,0,0.3,0,0.5,0c0.1,0.1,0.3,0,0.5,0.1c0.1,0,0.3,0.1,0.4,0.1c0.5,0,0.9,0.3,1.5,0.2c0.8,0.3,1.6,0.4,2.3,0.7
		c0.9,0.3,1.8,0.6,2.7,1c1.3,0.6,2.5,1.2,3.6,2.1c0.6,0.3,1.1,0.9,1.6,1.3c0.4,0.4,0.8,0.9,1.1,1.3c0.7,0.9,1.2,1.9,1.6,2.9
		c0.2,0.5,0.4,1,0.4,1.5c0,0.1,0.1,0.2,0.1,0.3c0,0.1,0,0.2,0,0.2c0,0,0.1,0,0.1,0c0-0.4-0.1-0.8-0.1-1.3c-0.2-0.2-0.1-0.4-0.1-0.6
		c-0.3-0.7-0.5-1.4-0.8-2c-0.6-1.2-1.3-2.3-2.3-3.3c-0.6-0.6-1.1-1.1-1.8-1.6c-0.7-0.5-1.5-1-2.3-1.4c-0.8-0.4-1.6-0.8-2.4-1.2
		c-0.5-0.2-1-0.4-1.5-0.6c-0.5-0.2-1-0.3-1.5-0.5c-0.4-0.1-0.9-0.2-1.3-0.3s-0.8-0.2-1.3-0.3c-0.3-0.1-0.7-0.1-1.1-0.2
		c-0.2,0-0.4,0-0.7-0.1c-0.2-0.1-0.5-0.1-0.7-0.1c-0.6-0.1-1.2-0.2-1.7-0.2c-0.3,0-0.7,0-1-0.1c-0.5-0.1-1,0-1.5-0.1
		c-0.7-0.1-1.4,0-2.1-0.1c-0.7-0.1-1.5,0-2.2,0c-0.7,0-1.4-0.1-2.2,0.1c-0.5,0.1-1,0-1.5,0c-0.5,0-1,0.2-1.5,0.1
		c-0.6-0.1-1.1,0.2-1.6,0.1c0,0,0,0-0.1,0c-0.2,0.2-0.5,0.1-0.7,0.1c-0.2,0-0.5,0.1-0.8,0.1c-0.4,0-0.9,0-1.3,0.1
		c-0.3,0.1-0.6,0-0.8,0.1c-0.3,0.2-0.7,0-0.9,0.2c-0.3-0.1-0.7,0.1-1,0.1c-0.3,0-0.6,0.1-0.8,0.1c-0.2,0.2-0.5,0-0.7,0.2
		c-0.3-0.1-0.5,0.1-0.8,0.1c-0.5,0.1-0.9,0.1-1.3,0.3c-0.7,0.2-1.4,0.3-2.1,0.6c-0.4,0.1-0.9,0.2-1.3,0.3c-0.4,0.1-0.8,0.2-1.2,0.3
		C124.4,154.7,123.8,154.9,123.2,155z M168.4,248.6c0.3,0,0.7-0.1,1-0.2c0.2,0,0.3-0.2,0.5-0.3c0.9-0.6,1.2-1.1,1.3-2
		c0.1-0.8-0.1-1.6-0.7-2.3c-0.4-0.5-0.9-0.8-1.6-0.8c-0.2,0-0.5-0.2-0.7-0.1c-0.2,0.1-0.5,0.2-0.7,0.2c-0.4,0-0.5,0.4-0.7,0.5
		c-0.6,0.3-1,1.4-1.1,1.9c0,0.3-0.1,0.6,0.1,0.9c0.1,0.8,0.6,1.4,1.3,1.9C167.3,248.5,167.8,248.6,168.4,248.6z"/>
	<path d="M130.8,187c-0.9,0.6-1.9,1.1-2.8,1.7c-0.3,0.2-0.7,0.4-1,0.7c-0.5,0.3-1,0.7-1.5,1.1c-0.6,0.4-1.1,0.8-1.6,1.3
		c0,0-0.1,0.1-0.1,0.1c-0.4,0.4-0.8,0.8-1.3,1.2c-0.4,0.3-0.6,0.6-0.9,1c-0.3,0.3-0.6,0.6-0.8,0.9c-0.1,0.2-0.4,0.5-0.6,0.7
		c-0.2,0.3-0.5,0.7-0.7,1c-0.4,0.5-0.7,1.1-1.1,1.6c-0.5,0.7-0.8,1.5-1.2,2.3c-0.4,0.8-0.6,1.7-0.9,2.6c-0.2,0.6-0.2,1.2-0.4,1.7
		c-0.1,0.4-0.1,0.8-0.1,1.2c-0.1,0.7-0.1,1.3-0.1,2c0,0.2,0.1,0.5,0.1,0.8c0,0.2-0.1,0.5,0.1,0.8c0,0.5,0.1,0.9,0.2,1.3
		c0.1,0.4,0.2,0.9,0.4,1.3c0.2,0.5,0.4,0.9,0.6,1.3c0.3,0.7,0.8,1.4,1.2,2.1c0.3,0.5,0.7,0.9,1,1.4c0,0-0.1,0.1-0.1,0.2
		c-1.2,0.7-2.3,1.4-3.4,2.1c-0.5,0.3-1,0.7-1.5,1.1c-0.7,0.5-1.3,1-2,1.5c0,0-0.1,0.1-0.1,0.1c-1.1,0.9-2.1,2-3.1,3
		c-0.5,0.6-1,1.2-1.5,1.8c-0.5,0.6-0.9,1.2-1.4,1.9c-0.6,0.9-1,1.8-1.5,2.7c-0.1,0.3-0.3,0.7-0.5,1c-0.1,0.3-0.3,0.7-0.4,1
		c-0.1,0.4-0.3,0.7-0.3,1.1c-0.1,0.6-0.4,1.2-0.4,1.8c-0.2,0.3,0,0.6-0.1,0.9c-0.1,0.3,0,0.6-0.1,0.9c-0.2,0.7,0,1.4-0.1,2.1
		c0,0.3,0.1,0.6,0.1,0.9c0,0.3,0,0.6,0.1,0.8c0.1,0.2,0.1,0.5,0.1,0.8c0.1,0.7,0.3,1.4,0.5,2.1c0.3,0.9,0.7,1.7,1.1,2.4
		c0.4,0.7,0.8,1.3,1.3,2c0.7,0.9,1.4,1.7,2.2,2.4c0.9,0.8,1.9,1.5,2.9,2.2c0.3,0.2,0.7,0.3,1,0.5c0.5,0.2,0.9,0.5,1.3,0.7
		c0.8,0.3,1.6,0.7,2.4,1c0.3,0.1,0.7,0.3,1,0.4c0.7,0.1,1.3,0.4,1.9,0.6c0.8,0.2,1.5,0.3,2.3,0.5c0.5,0.1,0.9,0.2,1.4,0.2
		c0.2,0,0.5,0.2,0.7,0.1c0.2,0,0.5-0.1,0.7,0.1c0,0,0.1,0,0.1,0c0.7-0.1,1.3,0.1,1.9,0.1c0.6,0,1.3,0,1.9,0c0.5,0,1,0,1.5,0
		c0.8,0,1.7,0,2.5-0.1c0.3,0,0.7-0.1,1-0.1c0.3,0,0.6-0.1,0.9-0.1c0.2-0.1,0.5,0,0.8-0.1c0.2-0.1,0.5,0,0.7-0.1
		c0.5-0.1,0.9-0.2,1.4-0.3c0.5-0.1,0.9-0.2,1.4-0.3c0.5-0.1,1-0.2,1.5-0.4c-0.4-0.2-0.7,0.1-0.9,0.1c-0.1,0-0.1,0.1-0.2,0.1
		c-0.2,0-0.4,0-0.6,0.1c-0.1,0.1-0.4,0-0.6,0.1c-0.3,0.1-0.7,0.1-1,0.1c-0.2,0-0.5,0.1-0.7,0.1c-0.2,0-0.5-0.1-0.7,0.1
		c0,0-0.1,0-0.1,0c-0.6,0-1.3,0.1-1.9,0.1c-0.7,0-1.4,0.2-2.2,0.1c-0.7,0-1.5,0-2.2,0c-0.7,0-1.4-0.2-2.1-0.1
		c-0.3-0.2-0.7-0.1-1-0.1c-0.6-0.1-1.2-0.2-1.7-0.2c-0.3,0-0.6-0.1-0.9-0.2c-0.3-0.1-0.6-0.1-0.9-0.2c-0.3-0.1-0.6-0.2-0.9-0.2
		c-1-0.2-1.9-0.6-2.9-0.9c-0.9-0.3-1.8-0.7-2.7-1.2c-0.9-0.5-1.8-0.9-2.6-1.5c-0.6-0.4-1.2-0.8-1.8-1.3c-0.5-0.4-0.9-0.9-1.4-1.3
		c-0.6-0.6-1.1-1.3-1.6-2c-0.8-1-1.3-2.2-1.9-3.4c-0.4-0.8-0.6-1.6-0.8-2.5c0-0.2,0-0.6-0.1-0.8c-0.1-0.3,0-0.5-0.1-0.8
		c-0.2-0.9-0.1-1.9-0.1-2.8c0-0.3,0-0.6,0.1-0.9c0.1-0.2,0-0.6,0.1-0.8c0.1-0.2,0.1-0.5,0.1-0.8c0.1-0.7,0.3-1.4,0.5-2.1
		c0.2-0.7,0.5-1.4,0.8-2.1c0.3-0.7,0.7-1.4,1-2.1c0.5-0.8,0.9-1.5,1.5-2.3c0.2-0.2,0.3-0.5,0.5-0.7c0.5-0.6,1-1.3,1.6-1.9
		c0.5-0.6,1.1-1.2,1.6-1.7c0.6-0.6,1.2-1.1,1.9-1.6c0.7-0.5,1.4-1.1,2.2-1.6c0.8-0.6,1.6-1.1,2.4-1.6c0.4-0.3,0.9-0.5,1.4-0.8
		c0.3-0.2,0.6-0.3,0.9-0.6c-0.1-0.2-0.2-0.4-0.4-0.6c-1-1.1-1.6-2.4-2.3-3.7c-0.3-0.7-0.6-1.4-0.7-2.2c-0.1-0.5-0.2-0.9-0.2-1.4
		c-0.1-0.5-0.1-0.9-0.1-1.4c0-0.5-0.1-1,0-1.4c0.1-0.5,0-0.9,0.2-1.3c0-0.7,0.3-1.4,0.5-2.1c0.4-1.4,1-2.8,1.7-4.1
		c0.5-0.9,1.1-1.8,1.7-2.7c0.3-0.5,0.7-0.9,1.1-1.4c0.7-0.9,1.6-1.7,2.4-2.5c0.7-0.7,1.4-1.2,2.2-1.8c0.8-0.6,1.6-1.2,2.4-1.7
		c0.6-0.3,1.2-0.7,1.7-1c0.8-0.5,1.6-0.9,2.4-1.3c1-0.5,2.1-0.9,3.2-1.3c0.7-0.2,1.5-0.5,2.2-0.7c0.5-0.2,1-0.3,1.5-0.4
		c0.4-0.1,0.8-0.2,1.2-0.3c0.1,0,0.1,0,0.2,0c0.2,0,0.5-0.1,0.7-0.1c0.5-0.1,1-0.2,1.5-0.3c0.3,0,0.6-0.1,0.9-0.1
		c0.2,0,0.4-0.1,0.6-0.1c0.2,0,0.4,0.1,0.5-0.1c0,0,0.1,0,0.2,0c1.2,0,2.3-0.2,3.5-0.1c0.9,0,1.7,0.2,2.6,0.1c0.3,0.2,0.8,0,1.1,0.1
		c0.6,0.1,1.2,0.1,1.8,0.3c0.2,0.1,0.5,0.1,0.8,0.1c0.8,0.1,1.7,0.4,2.5,0.6c0.5,0.1,0.9,0.3,1.4,0.5c0.7,0.3,1.4,0.6,2.1,0.9
		c1,0.5,2,1.2,2.9,1.8c0.3,0.2,0.6,0.5,0.9,0.8c0.3,0.3,0.6,0.5,0.9,0.8c0.9,0.9,1.7,1.9,2.3,2.9c0.4,0.6,0.7,1.4,1,2
		c0.4,0.8,0.5,1.7,0.8,2.5c0.1,0.2,0,0.6,0.1,0.8c-0.1,0.5,0.1,0.9,0.1,1.3c0,0.4,0,0.8,0,1.3c0,0.2-0.1,0.4-0.1,0.7
		c0,0.2,0,0.4-0.1,0.7c-0.1,0.3-0.1,0.6-0.1,0.9c-0.1,0.5-0.3,0.8-0.2,1.3c-0.2,0.1-0.1,0.3-0.1,0.5c-0.1,0.2-0.1,0.4-0.2,0.6
		c-0.1,0.2-0.1,0.3-0.2,0.5c-0.2,0.7-0.6,1.4-0.9,2.1c-0.4,0.8-0.8,1.6-1.3,2.3c-0.2,0.3-0.5,0.6-0.7,0.9c-0.2,0.3-0.5,0.6-0.8,0.9
		c-0.6,0.8-1.3,1.6-2,2.2c-0.6,0.6-1.2,1.1-1.8,1.6c-0.5,0.4-1,0.9-1.6,1.3c-0.3,0.2-0.7,0.5-1,0.7c0.3,0.3,0.6,0.6,0.9,0.8
		c0.3,0.2,0.5,0.6,0.9,0.8c0.1,0,0.2,0.1,0.2,0.2c0.2,0.3,0.5,0.6,0.7,0.8c0.7,0.7,1.3,1.5,1.8,2.3c0.6,0.8,1,1.7,1.4,2.7
		c0.2,0.5,0.4,1.1,0.6,1.7c0.1,0.4,0.2,0.8,0.3,1.2c0,0,0,0.1,0,0.1c0,0.5,0.1,1,0.1,1.5c0,0.3,0.2,0.7,0.1,1c0,0.3,0,0.7-0.1,1
		c-0.1,0.3,0.1,0.7-0.1,1c0,0,0,0.1,0,0.2c0,0.2,0.1,0.5-0.1,0.7c-0.1,0.2,0.1,0.5-0.2,0.6c-0.1,1-0.5,2-0.8,3
		c-0.1,0.2-0.2,0.5-0.2,0.7c-0.3,0.7-0.6,1.5-1,2.2c-0.5,0.8-0.9,1.6-1.5,2.4c-0.5,0.7-1,1.3-1.5,2c-0.3,0.3-0.6,0.7-0.9,1
		c-0.5,0.7-1.1,1.3-1.7,1.8c-1,0.9-2,2-3,2.9c-0.6,0.6-1.2,1.1-1.9,1.6c-0.8,0.6-1.6,1.3-2.5,1.9c-0.5,0.3-1,0.7-1.5,1
		c-0.5,0.3-1,0.6-1.4,0.9c-1.2,0.8-2.5,1.4-3.8,2c-0.9,0.5-1.9,0.8-2.9,1.3c-0.6,0-1,0.4-1.5,0.5c-0.5,0.1-1,0.4-1.5,0.5
		c-0.7,0.1-1.3,0.4-2,0.5c-0.5,0.1-1,0.3-1.5,0.3c-0.2,0.2-0.5,0.1-0.8,0.2c-0.2,0.1-0.5,0.1-0.8,0.1c-0.3,0-0.6,0.1-0.8,0.1
		c-0.6,0.1-1.1,0.2-1.7,0.2c-0.3,0.2-0.6,0-0.9,0.1c-0.5,0.1-0.9,0-1.4,0.1c-1.1,0.2-2.2,0-3.3,0.1c-0.5,0-1,0-1.5,0
		c-0.9,0.1-1.7-0.1-2.6-0.1c-0.3-0.1-0.6-0.1-0.9-0.1c-0.3-0.1-0.6,0-0.9-0.1c-0.3-0.1-0.7,0-1-0.2c-0.3-0.1-0.6-0.1-0.9-0.1
		c-0.8-0.2-1.7-0.4-2.5-0.7c-0.9-0.3-1.7-0.6-2.6-0.9c-1-0.4-2-0.8-2.9-1.4c-0.8-0.5-1.6-0.9-2.4-1.5c-0.6-0.5-1.2-0.9-1.7-1.4
		c-0.5-0.4-1-0.9-1.4-1.4c-0.6-0.7-1.2-1.4-1.7-2.2c-0.6-0.8-1-1.7-1.4-2.6c-0.3-0.6-0.5-1.2-0.7-1.9c-0.1-0.4-0.2-0.8-0.3-1.2
		c0-0.2-0.1-0.3-0.1-0.5c-0.1-0.3-0.1-0.7-0.1-1c-0.2-1.1,0-2.2-0.1-3.3c0-0.3,0.1-0.5,0.1-0.8c0-0.2,0-0.5,0.1-0.7
		c0.1-0.2,0.1-0.5,0.1-0.8c0-0.5,0.2-0.9,0.3-1.3c0.1-0.6,0.4-1.1,0.5-1.7c0.1-0.2,0.2-0.5,0.3-0.8c0.4-0.8,0.8-1.7,1.2-2.5
		c0.5-0.9,1-1.7,1.6-2.5c0.4-0.5,0.8-1,1.2-1.5c0.6-0.7,1.2-1.4,1.8-2c0.1-0.1,0.2-0.4,0.4-0.5c0.7-0.5,1.2-1.2,1.9-1.7
		c0.3-0.2,0.6-0.5,0.9-0.8c0.7-0.6,1.4-1.1,2.2-1.6c0.4-0.3,0.8-0.6,1.3-0.9c0.5-0.3,1-0.6,1.5-0.9c0.2-0.1,0.5-0.3,0.7-0.5
		c-0.8-1-1.5-2.1-2-3.2c-0.3-0.8-0.7-1.6-0.8-2.4c-0.2-0.2-0.1-0.5-0.2-0.7c-0.1-0.2,0-0.4-0.1-0.7c-0.1-0.2,0-0.5-0.1-0.7
		c-0.2-0.5-0.1-0.9-0.1-1.4c0-0.5,0-0.9,0-1.4c0-0.2,0.1-0.4,0.1-0.7c0-0.2-0.1-0.5,0.1-0.7c0.1-0.2,0-0.4,0.1-0.6
		c0.1-0.1,0-0.4,0.1-0.5c0.1-0.1,0-0.3,0.1-0.5c0-0.6,0.4-1.2,0.5-1.8c0.2-0.7,0.6-1.4,0.9-2.1c0,0,0-0.1,0-0.2c-0.6,0-1.2,0-1.8,0
		c-0.9,0-1.8-0.2-2.8-0.1c-0.5-0.2-0.9,0-1.4-0.1c-0.6-0.1-1.2-0.1-1.7-0.2c-0.6-0.1-1.2-0.1-1.7-0.3c-0.5,0-1-0.2-1.5-0.2
		c-0.3,0-0.7-0.1-1-0.2c-0.5-0.1-0.9-0.2-1.4-0.4c-0.5-0.2-0.9-0.2-1.3-0.4c-0.9-0.3-1.8-0.7-2.7-1.2c-1-0.5-2-1-2.9-1.7
		c-0.2-0.1-0.4-0.3-0.6-0.4c-0.3-0.3-0.7-0.6-1-0.9c-0.3-0.3-0.7-0.6-0.9-0.9c-0.6-0.8-1.2-1.5-1.7-2.4c-0.4-0.8-0.7-1.6-1-2.4
		c-0.1-0.2-0.1-0.4-0.1-0.6c-0.1-0.7-0.3-1.4-0.2-2.1c0-0.7,0-1.4,0-2.1c0.1-0.7,0.2-1.4,0.3-2.1c0-0.1,0.1-0.1,0.2-0.2
		c0.8,0.7,1.6,1.2,2.6,1.4c0,0.3,0,0.6-0.1,0.8c-0.2,0.9-0.1,1.7-0.1,2.6c0,0.2-0.1,0.5,0.1,0.7c0.1,0.2-0.1,0.5,0.1,0.7
		c0,0.5,0.2,1,0.3,1.5c0.2,0.6,0.5,1.3,0.9,1.9c0.6,1.1,1.4,2,2.3,2.9c0.9,0.8,1.9,1.5,2.9,2.1c0.5,0.3,1.1,0.6,1.6,0.8
		c0.9,0.5,1.9,0.8,2.9,1.2c0.5,0.2,1,0.3,1.5,0.5c0.5,0.1,1,0.2,1.5,0.4c0.3,0.1,0.6,0.1,0.9,0.2c0.3,0.1,0.6,0,0.9,0.1
		c0.3,0.1,0.6,0,0.9,0.1c0.3,0.1,0.6,0,0.8,0.1c0.3,0.1,0.6,0.1,0.9,0.1c0.2,0,0.5,0.1,0.7,0.1c0.2,0,0.5-0.1,0.7,0
		c0.5,0.2,0.9,0.1,1.4,0.1c0.4,0,0.8-0.1,1.2,0.1c0.1,0.1,0.3,0,0.5,0c0.3-0.6,0.7-1.2,1.1-1.7c0.3-0.5,0.7-1,1.1-1.5
		c0.5-0.7,1.1-1.4,1.8-2c0.2-0.2,0.4-0.6,0.7-0.8c0.5-0.4,0.9-0.9,1.4-1.3c0.6-0.6,1.3-1.1,2-1.6c0.6-0.5,1.3-0.9,2-1.3
		c0.8-0.6,1.7-1,2.5-1.5c0.8-0.4,1.5-0.8,2.3-1.2C130.6,187.1,130.7,187.1,130.8,187z M143.3,195c0,0.1,0,0.1-0.1,0.2
		c-0.4,0.5-0.7,1.1-1,1.7c-0.5,0.9-0.9,1.7-1.2,2.7c-0.2,0.6-0.5,1.2-0.7,1.8c-0.2,0.6-0.5,1.2-0.6,1.9c-0.2,0.2-0.1,0.5-0.2,0.7
		c-0.1,0.2,0,0.5-0.1,0.7c-0.1,0.2,0,0.5-0.1,0.7c-0.2,0.2,0,0.5-0.2,0.7c-0.1,0.2,0,0.6-0.1,0.9c-0.1,0.3,0,0.6-0.1,0.9
		c-0.1,0.3,0,0.7,0,1c0,0.3-0.1,0.6-0.1,0.9c-0.1,0.5,0.1,0.9,0.1,1.4c0,0.6,0.1,1.1,0.2,1.6c0.1,0.7,0.5,1.2,0.8,1.7
		c0.1,0.2,0.4,0.4,0.7,0.4c0-0.1,0-0.1,0.1-0.2c0.5-0.4,0.7-0.9,1-1.4c0.3-0.5,0.6-1,0.9-1.5c0.4-0.6,0.6-1.3,0.9-2
		c0.2-0.5,0.4-1.1,0.6-1.6c0.2-0.6,0.3-1.2,0.6-1.7c0.2-0.5,0.2-1,0.4-1.5c0.2-0.6,0.2-1.3,0.4-1.9c0.1-0.2,0-0.5,0.1-0.7
		c0.1-0.2,0-0.5,0.1-0.8c0-0.5,0.1-1,0.1-1.6c0-0.6,0.1-1.1-0.1-1.6c-0.1-0.3,0-0.7-0.1-1c-0.1-0.7-0.4-1.3-0.8-1.9
		c-0.1-0.2-0.4-0.4-0.7-0.4c-0.1,0-0.2-0.1-0.3-0.1C143.7,194.9,143.5,195,143.3,195z M131.8,247c0.2-0.2,0.4-0.3,0.5-0.5
		c0.3-0.5,0.6-1,1-1.5c0.3-0.5,0.6-1,0.8-1.6c0.3-0.7,0.7-1.3,0.9-2c0.1-0.3,0.2-0.7,0.4-1c0.1-0.3,0.2-0.7,0.3-1
		c0.2-0.8,0.5-1.5,0.6-2.3c0.1-0.4,0.1-0.8,0.2-1.1c0.1-0.5,0.2-0.9,0.3-1.4c0.1-0.7,0.2-1.4,0.2-2.1c0.1-0.9,0.1-2-0.2-3.4
		c-0.1-0.5-0.2-1-0.6-1.4c-0.1-0.2-0.2-0.3-0.4-0.5c-0.2-0.1-0.4-0.2-0.6-0.3c-0.2-0.1-0.3,0.1-0.5,0.1c-0.1,0-0.1,0-0.1,0
		c0,0.1-0.1,0.2-0.1,0.2c-0.3,0.5-0.6,0.9-0.9,1.4c-0.4,0.8-0.8,1.6-1.2,2.4c-0.2,0.5-0.4,1-0.6,1.5c-0.3,0.8-0.6,1.6-0.8,2.4
		c-0.1,0.4-0.2,0.9-0.4,1.3c-0.1,0.5-0.1,1.1-0.2,1.6c-0.1,0.3,0,0.6-0.1,0.9c-0.1,0.2-0.1,0.3-0.1,0.5c0,0.2-0.1,0.4-0.1,0.6
		c0,0.7,0,1.4,0,2c0,0.7,0,1.3,0.1,2c0.1,0.6,0.3,1.2,0.6,1.8C131.1,246.5,131.4,246.8,131.8,247z M132.8,247.4
		c0.2,0,0.5-0.1,0.6-0.1c0.7-0.1,1.2-0.5,1.7-0.9c0.6-0.5,1.1-1,1.5-1.6c0.6-0.8,1.1-1.6,1.5-2.4c0.3-0.7,0.7-1.4,0.9-2.1
		c0.2-0.5,0.4-0.9,0.6-1.4c0.3-0.8,0.6-1.6,0.8-2.4c0.1-0.5,0.3-1,0.4-1.5c0.1-0.4,0.2-0.8,0.3-1.2c0-0.3,0.1-0.6,0.2-0.9
		c0-0.4,0.2-0.7,0.1-1.1c0.2-0.3,0-0.8,0.1-1.1c0.1-0.4,0.1-0.8,0.1-1.2c0-0.6,0-1.2-0.1-1.8c-0.1-0.5-0.2-1-0.3-1.6
		c-0.2-0.7-0.6-1.2-1.1-1.7c-0.3-0.2-0.6-0.4-0.9-0.4c-0.6-0.1-1.2-0.1-1.8,0.3c-0.1,0.1-0.3,0.1-0.5,0.2c0.2,0.1,0.3,0.1,0.4,0.2
		c0.1,0,0.3,0,0.4,0.1c0.3,0.3,0.8,0.6,1,1.1c0.4,0.8,0.6,1.6,0.7,2.5c0.1,0.6,0,1.1,0,1.7c0,0.6,0.1,1.1-0.1,1.6
		c-0.1,0.3,0.1,0.6-0.1,0.9c-0.1,0.3-0.1,0.6-0.1,0.9c-0.1,0.4-0.1,0.8-0.2,1.2c-0.1,0.2-0.1,0.5-0.1,0.8c-0.1,0.4-0.2,0.7-0.3,1.1
		c-0.2,0.6-0.3,1.1-0.5,1.7c-0.2,0.6-0.4,1.1-0.6,1.7c-0.2,0.5-0.5,1-0.7,1.6c-0.6,1.4-1.1,2.3-1.7,3.2c-0.2,0.4-0.5,0.7-0.8,1
		c-0.4,0.5-0.8,1-1.4,1.4C132.8,247.2,132.8,247.2,132.8,247.4z M141.3,215.3c0.3,0,0.6,0.1,0.8,0c0.6-0.2,1.2-0.5,1.6-0.9
		c0.4-0.4,0.8-0.8,1.2-1.2c0.2-0.2,0.5-0.5,0.7-0.8c0.3-0.5,0.6-1.1,0.9-1.6c0.6-0.9,0.9-2,1.5-2.9c0.2-1,0.7-1.9,1-2.9
		c0.1-0.5,0.3-0.9,0.4-1.4c0.1-0.5,0.2-0.9,0.3-1.4c0-0.2,0.1-0.5,0.1-0.7c0-0.3,0.1-0.5,0.1-0.8c0-0.2,0.1-0.5,0.1-0.7
		c0-0.8,0.2-1.5,0.1-2.3c0-0.7,0-1.3,0-2c0-0.5-0.1-0.9-0.2-1.4c-0.2-0.6-0.4-1.3-0.9-1.7c-0.4-0.3-0.9-0.6-1.4-0.6
		c-0.4,0-0.8,0.1-1.1,0.2c-0.3,0.1-0.5,0.2-0.6,0.5c0.1,0,0.2,0,0.2,0c0.1,0,0.2,0.1,0.2,0.1c0.8,0.3,1.2,0.9,1.5,1.7
		c0.3,0.7,0.4,1.5,0.5,2.3c0.1,0.7,0.1,1.5-0.1,2.2c-0.1,0.2,0,0.5,0,0.8c0,0.2-0.1,0.5-0.1,0.7c0,0.4,0,0.9-0.1,1.3
		c-0.1,0.2,0,0.5-0.1,0.7c-0.2,0.4-0.1,0.9-0.3,1.3c0.1,0.4-0.2,0.7-0.2,1.1c-0.1,0.4-0.2,0.7-0.4,1.1c-0.2,0.6-0.4,1.1-0.6,1.6
		c-0.2,0.7-0.5,1.4-0.8,2.1c-0.4,0.9-0.9,1.8-1.4,2.7c-0.6,0.9-1.1,1.7-1.9,2.4C141.8,214.8,141.6,215,141.3,215.3z M140.5,256.2
		C140.5,256.2,140.5,256.2,140.5,256.2c-0.1-0.1-0.2-0.1-0.4-0.1c0,0,0,0,0,0.1C140.2,256.2,140.4,256.2,140.5,256.2z M139.7,256.3
		c0,0,0,0.1,0,0.1c0.1,0,0.2,0,0.3,0c0,0,0,0,0-0.1C139.9,256.3,139.8,256.3,139.7,256.3z"/>
	<path d="M116.6,152.9c-0.5,0-1-0.1-1.5,0s-1,0.2-1.6,0.4c-0.7,0.3-1.4,0.6-2.1,1c-0.8,0.5-1.6,0.9-2.4,1.5
		c-0.4,0.3-0.9,0.6-1.3,0.9c-0.3,0.2-0.7,0.5-0.9,0.8c-0.5,0.5-1,0.9-1.4,1.5c-0.5,0.6-0.8,1.3-0.8,2.1c0,0.6,0.3,1.1,0.8,1.5
		c0.3,0.2,0.5,0.4,0.8,0.6c0.2,0.2,0.4,0.3,0.7,0.5c0.2,0.2,0.5,0.4,0.7,0.6c0.2,0.2,0.4,0.4,0.6,0.6c0.3,0.2,0.6,0.5,0.8,0.8
		c0.2,0.3,0.5,0.5,0.7,0.8c0.5,0.7,0.9,1.4,0.9,2.2c0,0.2,0.1,0.4,0.1,0.5c-0.1,0.6-0.1,1.2-0.4,1.7c-0.3,0.6-0.6,1.3-1,1.8
		c-0.2,0.2-0.3,0.4-0.4,0.6c-0.6,0.7-1.2,1.4-2,2c-0.9,0.8-1.9,1.5-2.9,2.1c-1,0.6-2.1,1.1-3.1,1.5c-0.6,0.2-1.3,0.4-1.9,0.6
		c-0.2,0.1-0.5,0.1-0.8,0.1c-0.4,0.1-0.8,0.1-1.1,0.1c-0.6,0.1-1.2,0-1.7,0.1c-0.1,0-0.2,0-0.3,0c-0.3-0.2-0.6,0-0.9-0.1
		c-0.4-0.1-0.8-0.3-1.2-0.4c-0.9-0.4-1.5-1.2-1.9-2c-0.1-0.2-0.1-0.5-0.1-0.8c0-0.2-0.1-0.5-0.1-0.7c-0.1-0.3,0.1-0.5,0.1-0.8
		c0-0.2-0.1-0.5,0.1-0.7c0.3-1.4,0.5-1.8,1.1-3.1c0.3-0.5,0.6-1,1-1.5c0.5-0.7,1.1-1.3,1.7-1.9c0.3-0.3,0.7-0.6,1.1-0.8
		c0.2-0.2,0.6-0.2,0.9-0.3c0.2-0.1,0.5-0.1,0.7-0.1c0.2,0,0.5,0,0.7,0c0.6,0.1,1.2,0.2,1.4,0.8c0.2,0.4,0.2,0.8,0,1.2
		c-0.2,0.3-0.4,0.6-0.6,0.9c-0.2,0.3-0.5,0.6-0.7,1c-0.6,0.8-1.1,1.6-1.6,2.4c-0.5,0.8-1,1.6-1.3,2.6c0,0,0,0.1,0,0.2
		c0,0.1,0,0.2,0,0.4c0.2,0,0.5,0.1,0.7,0.1c0.7,0.1,1.3-0.1,2-0.2c0.2,0,0.3-0.2,0.5-0.2c0.3,0,0.5-0.2,0.8-0.3
		c0.2-0.1,0.5-0.2,0.7-0.4c0.6-0.2,1-0.6,1.5-0.9c0.5-0.4,1-0.6,1.4-1c0.2-0.2,0.5-0.4,0.6-0.6c0.4-0.4,0.8-0.8,1.2-1.3
		c0.4-0.4,0.6-0.9,0.9-1.4c0.2-0.4,0.1-0.8,0-1.2c-0.1-0.5-0.5-0.9-0.8-1.4c-0.4-0.5-0.8-0.9-1.3-1.3c-0.7-0.5-1.2-1.2-1.8-1.7
		c-0.4-0.4-0.7-0.8-0.9-1.3c-0.2-0.5-0.5-0.9-0.6-1.4c-0.1-0.5,0-1-0.1-1.5c-0.1-0.7,0.3-1.9,0.7-2.6c0.2-0.5,0.4-0.9,0.7-1.3
		c0.2-0.2,0.3-0.5,0.5-0.7c0.6-0.6,1.2-1.2,1.8-1.7c0.3-0.3,0.8-0.6,1.2-0.9c0.9-0.7,1.9-1.2,2.8-1.8c0.6-0.4,1.3-0.7,1.9-1
		c0.9-0.5,1.9-0.8,2.9-1.1c0.4-0.1,0.9-0.1,1.3-0.3c1-0.3,2.1-0.2,3.2-0.2c0.9,0,1.7,0.2,2.5,0.7c1,0.6,1.6,1.3,1.9,2.5
		c0.1,0.7,0,1.4,0.1,2.1c-0.2,0.5-0.2,0.9-0.3,1.4c-0.2,0.4-0.3,0.8-0.5,1.3c-0.5,1.3-1.3,2.3-2,3.5c-0.4,0.6-0.9,1.2-1.4,1.7
		c-0.1,0.2-0.3,0.3-0.4,0.5c-0.4,0.5-0.8,0.7-1.3,1c-0.2,0.1-0.5,0-0.7,0.2c-0.5,0-0.9,0.2-1.4,0.1c-0.2,0-0.5-0.1-0.7-0.2
		c-0.2-0.1-0.5-0.3-0.7-0.5c-0.1-0.2-0.1-0.4-0.2-0.6c-0.1-0.5,0.1-1,0.5-1.4c1-1,1.7-2.2,2.5-3.4c0.6-0.8,1-1.7,1.4-2.7
		c0.3-0.6,0.5-1.3,0.3-2C116.8,153,116.7,153,116.6,152.9z"/>
	<path d="M163.3,174.5c0.1,0,0.3-0.1,0.4-0.1c1-0.7,2-1.2,3-1.9c0.7-0.2,1.2-0.8,1.9-1.1c0.3-0.2,0.6-0.5,0.9-0.7
		c0.5-0.3,1-0.7,1.6-0.6c0.5,0.1,0.9,0.3,1.1,0.7c0.2,0.3,0.3,0.6,0.2,0.9c-0.1,0.1-0.2,0.3-0.4,0.5c-0.5,0.5-1,1-1.6,1.5
		c-0.8,0.6-1.5,1.3-2.3,1.9c-1.1,0.8-2.2,1.5-3.5,2c-0.3,0.1-0.6,0.2-0.9,0.4c-0.3,0.2-0.7,0.1-0.9,0.3c-0.8,0-1.6,0-2.2-0.5
		c-0.4-0.3-0.8-0.6-1.2-1c-0.3-0.4-0.6-0.7-0.6-1.2c0-0.1-0.1-0.1-0.1-0.2c0,0,0.1-0.1,0.1-0.1c0-0.6,0.4-0.9,0.7-1.3
		c0.2-0.2,0.4-0.5,0.6-0.7c0.2-0.2,0.5-0.5,0.6-0.7c0.2-0.2,0.4-0.5,0.7-0.7c0.6-0.6,1.2-1.2,1.8-1.8c0.2-0.2,0.5-0.4,0.8-0.7
		c-0.1-0.2-0.3-0.4-0.5-0.6c-0.2-0.2-0.3-0.3-0.5-0.5c-0.9,0.7-1.6,1.5-2.5,2.3c-2,1.9-4,3.9-6,5.8c-0.4,0.3-0.8,0.7-1.2,1
		c-0.5,0.1-0.9-0.2-1.4-0.5c-0.3-0.2-0.6-0.5-0.9-0.8c-0.1,0-0.3,0-0.5,0.1c-0.7,0.2-1.5,0.5-2.3,0.7c-0.6,0.2-1.2,0.3-1.8,0.5
		c-0.2,0.1-0.6-0.1-0.7,0.2c-0.6,0-1.1,0.1-1.6,0.1c-0.3,0-0.6-0.1-1-0.1c-0.3-0.2-0.7-0.5-1-0.8c-0.6-0.6-1.1-1.2-1.3-2
		c-0.1-0.5-0.1-1.1,0.1-1.6c0.2-0.6,0.5-1.2,0.7-1.8c0.2-0.4,0.5-0.8,0.8-1.2c0.6-0.8,1.3-1.6,2.1-2.3c0.5-0.4,0.9-0.8,1.4-1.1
		c0.3-0.2,0.5-0.4,0.8-0.6c0.4-0.3,0.8-0.5,1.2-0.7c0.7-0.4,1.4-0.7,2.2-0.9c0.5-0.1,1.1-0.3,1.6-0.3c0.1,0,0.2,0,0.4-0.1
		c0.2,0,0.4,0.1,0.6,0.1c0.3,0,0.5,0.1,0.7,0.3c0.6,0.5,1,1,1.3,1.7c0.1,0.3,0.2,0.6,0.2,0.9c0,0.3,0,0.7,0,1c0,0.5-0.1,0.9-0.3,1.2
		c-0.4,0.5-0.8,0.9-1.3,1.3c-0.6,0.5-1.3,0.7-2,0.9c-0.3,0.1-0.5,0.2-0.8,0.2c-0.3,0-0.6,0.1-0.8,0.1c-0.3,0-0.6,0.1-0.8,0.1
		c-0.5-0.1-1-0.1-1.6-0.1c-0.2,0-0.4-0.1-0.7-0.1c-0.2,0-0.4-0.1-0.7-0.1c-0.5,0.7-0.8,1.5-0.9,2.3c0.2,0.1,0.5,0.3,0.8,0
		c0,0,0.1,0,0.2,0c0.2,0,0.4,0.1,0.6-0.1c0.1-0.1,0.4,0.1,0.6-0.1c0.8,0,1.5-0.3,2.2-0.5c0.4-0.1,0.8-0.2,1.3-0.3
		c0.4-0.1,0.8-0.2,1.2-0.4c0.3-0.1,0.7-0.3,1.1-0.5c0.6-0.3,1.3-0.6,1.7-1.1c0.2-0.2,0.4-0.3,0.7-0.5c0.2-0.2,0.3-0.4,0.6-0.5
		c0,0,0.1-0.1,0.1-0.1c0.4-0.4,0.8-0.8,1.2-1.1c0.6-0.5,1.1-0.9,1.7-1.4c0.6-0.5,1.2-0.9,1.7-1.5c0.2-0.2,0.3-0.3,0.4-0.5
		c0.1-1,0.5-1.8,1.3-2.5c0.3,0,0.7,0,1,0c1.2,0.5,1.9,1.4,2.1,2.6c0.5,0.5,1,0.9,1.5,1.4c0.4,0.4,0.8,0.8,1,1.4c0,0.1,0,0.3,0,0.5
		c0.1,0.6-0.2,1.2-0.6,1.6c-0.1,0.1-0.2,0.3-0.4,0.5c-0.7,0.7-1.5,1.4-2.3,2c-0.5,0.4-0.9,0.8-1.3,1.3
		C163.3,174.3,163.3,174.4,163.3,174.5C163.3,174.5,163.3,174.5,163.3,174.5c0,0-0.1,0-0.1,0L163.3,174.5
		C163.3,174.5,163.3,174.5,163.3,174.5z M147.9,169.6c0.7,0,1.2,0,1.7,0c0.3,0,0.6,0,0.9-0.1c0.5-0.3,1-0.4,1.5-0.8
		c0.4-0.4,0.6-0.6,0.6-1.2c-0.1-0.1-0.2-0.2-0.2-0.3c-0.2,0-0.3,0-0.4-0.1c-0.1,0-0.3-0.1-0.4-0.1c-0.3,0.1-0.7,0.1-1,0.4
		c-0.5,0.4-1.1,0.7-1.5,1.2C148.5,168.8,148.2,169.2,147.9,169.6z"/>
	<path d="M130.1,177.9c-0.5-0.1-0.9-0.1-1.4-0.3c-0.5-0.2-0.8-0.6-1.1-0.9c-0.1,0.1-0.2,0.2-0.3,0.4c-0.2,0.3-0.3,0.6-0.6,0.8
		c-0.3,0.3-0.5,0.7-0.7,1c-0.2,0.3-0.5,0.7-0.7,1c-0.2,0.3-0.5,0.7-0.7,1c-0.2,0.4-0.6,0.7-0.8,1.1c-0.4,0.6-0.8,1.2-1.2,1.8
		c-0.2,0.3-0.4,0.7-0.6,1c-0.2,0.3-0.5,0.6-0.7,0.9c-0.5,0.8-1,1.5-1.6,2.3c-0.4,0.6-0.8,1.3-1.3,1.9c-0.5,0.6-0.8,1.2-1.3,1.8
		c-0.5,0.6-0.8,1.2-1.3,1.7c-0.2,0.2-0.4,0.5-0.6,0.7c-0.3,0.3-0.6,0.7-1,0.8c-0.4,0.1-0.8,0-1.2-0.1c-0.7-0.3-1.5-0.7-2-1.5
		c-0.1-0.4,0.2-0.8,0.4-1.1c0.3-0.5,0.7-1,1-1.5c0.3-0.5,0.6-1.1,1-1.5c0.6-0.7,1.1-1.5,1.6-2.3c0.5-0.7,1-1.4,1.5-2.1
		c0.3-0.5,0.8-1,1.1-1.5c0.3-0.5,0.7-1,1.1-1.5c0.4-0.5,0.8-1,1.2-1.6c0.3-0.5,0.7-1,1.1-1.5c0.3-0.4,0.6-0.8,0.9-1.2
		c0.4-0.5,0.7-1,1.1-1.5c0.3-0.4,0.6-0.7,0.8-1.1c0.2-0.3,0.4-0.6,0.7-0.9c0.2-0.3,0.4-0.6,0.6-0.8c0.4-0.4,0.6-0.8,0.9-1.2
		c0.6-0.7,1.1-1.4,1.7-2.2c0.5-0.6,1-1.2,1.6-1.8c0.7-0.9,1.5-1.7,2.3-2.5c0.4-0.4,0.8-0.7,1.2-1c0.2-0.2,0.6-0.3,0.8-0.3
		c0.4-0.1,1.6,0,2.1,0.2c0.3,0.1,0.6,0.2,0.7,0.6c0.6-0.2,1.1-0.3,1.7-0.3c0.5,0,0.9,0.1,1.3,0.3c0.8,0.2,1.5,0.7,2.1,1.4
		c0.4,0.5,0.6,1,0.8,1.6c0.1,0.6-0.1,1.1-0.3,1.6c-0.2,0.4-0.3,0.8-0.6,1.1c-0.2,0.3-0.5,0.7-0.7,1c-0.2,0.3-0.6,0.6-0.8,0.9
		c-0.3,0.5-0.7,0.8-1.1,1.2c-0.5,0.5-1.1,0.9-1.6,1.3c-0.6,0.5-1.3,0.9-2,1.3c-0.3,0.2-0.8,0.4-1.1,0.5c-0.6,0.3-1.3,0.5-1.9,0.7
		c-0.5,0.1-0.9,0.2-1.4,0.2C130.4,177.9,130.3,177.9,130.1,177.9z M130.5,175.1c0.6,0,1.1-0.2,1.6-0.5c0.1-0.1,0.2-0.2,0.3-0.2
		c1-0.5,1.9-1.3,2.8-2c0.5-0.5,1-1,1.4-1.5c0.3-0.4,0.6-0.8,0.7-1.3c0.1-0.4,0.2-0.8,0.4-1.2c0.1-0.3,0.2-0.7,0.1-1
		c0,0,0-0.1-0.1-0.1c-0.3,0-0.6,0.1-0.8,0.1c-0.6,0.1-1,0.3-1.5,0.6c-0.8,0.5-1.4,1.1-2.1,1.6c-0.7,0.6-1.3,1.2-1.8,1.9
		c-0.5,0.6-0.9,1.3-1.2,2.1C130,174.1,130,174.6,130.5,175.1z"/>
	<path d="M118,164.9c0.3,0,0.6-0.1,0.9-0.1c0.4,0.1,0.8,0.2,1.2,0.3c0.4,0.2,0.7,0.4,1,0.7c0.2,0.2,0.4,0.5,0.4,0.9
		c0,0.1,0,0.2,0,0.3c-0.2,0.3-0.4,0.6-0.7,0.8c-0.9,0.6-1.7,1.4-2.4,2.2c-0.4,0.4-0.8,0.8-1.1,1.3c-0.2,0.3-0.4,0.6-0.6,0.8
		c-0.3,0.5-0.7,1-1,1.6c-0.1,0.2-0.2,0.5-0.4,0.8c0.1,0,0.3,0,0.4,0c0.6-0.3,1.2-0.6,1.7-1c0.7-0.6,1.3-1.2,2-1.7
		c0.5-0.5,1-0.9,1.4-1.4c0.6-0.7,1.2-1.3,1.7-2c0.7-0.9,1.5-1.9,2.1-2.9c0.2-0.3,0.5-0.5,0.9-0.6c0.2,0,0.5-0.1,0.7,0
		c0.2,0.1,0.5-0.1,0.7,0.1c0.5,0,0.8,0.4,1,0.8c0,0,0,0.1,0.1,0.1l0,0c0.1,0.8-0.2,1.4-0.6,2c-0.5,0.7-1,1.5-1.6,2.2
		c-0.5,0.6-1,1.3-1.5,1.9c-0.7,0.9-1.6,1.7-2.4,2.5c-0.5,0.5-1.6,1.3-2.4,1.8c-0.6,0.3-1.1,0.6-1.7,0.9c-0.5,0.2-1,0.4-1.5,0.6
		c-0.1,0.1-0.4,0-0.5,0c-0.1,0-0.2,0.1-0.4,0c-0.3,0.1-0.7-0.1-1-0.1c-0.3,0-0.6-0.1-0.9-0.2c-0.5-0.2-1-0.5-1.4-0.9
		c-0.3-0.3-0.6-0.7-0.8-1c-0.2-0.3-0.4-0.7-0.5-1c-0.1-0.4-0.1-0.7,0.1-1.1c0.2-0.6,0.4-1.2,0.7-1.7c0.4-0.7,0.8-1.3,1.3-2
		c0.6-0.8,1.2-1.5,2-2.2c0.8-0.7,1.5-1.4,2.4-2C117.4,165.4,117.7,165.2,118,164.9z"/>
	<path d="M123.2,155c0.6-0.2,1.1-0.4,1.7-0.5c0.4-0.1,0.8-0.2,1.2-0.3c0.4-0.1,0.9-0.2,1.3-0.3c0.7-0.2,1.4-0.3,2.1-0.6
		c0.5-0.1,0.9-0.2,1.3-0.3c0.2,0,0.5-0.2,0.8-0.1c0.2-0.2,0.5,0,0.7-0.2c0.3,0,0.6-0.1,0.8-0.1c0.3,0,0.7-0.2,1-0.1
		c0.2-0.2,0.6,0,0.9-0.2c0.2-0.1,0.5,0,0.8-0.1c0.4-0.1,0.8-0.1,1.3-0.1c0.2,0,0.5-0.1,0.8-0.1c0.2,0,0.5,0.1,0.7-0.1c0,0,0,0,0.1,0
		c0.6,0.1,1.1-0.2,1.6-0.1c0.5,0,1-0.1,1.5-0.1c0.5,0,1,0.1,1.5,0c0.7-0.2,1.4-0.1,2.2-0.1c0.7,0,1.5-0.1,2.2,0
		c0.7,0.1,1.4,0,2.1,0.1c0.5,0.1,1,0,1.5,0.1c0.3,0.1,0.7,0,1,0.1c0.6,0.1,1.1,0.2,1.7,0.2c0.2,0,0.5,0,0.7,0.1
		c0.2,0.1,0.5,0.1,0.7,0.1c0.4,0.1,0.8,0.1,1.1,0.2c0.4,0.1,0.8,0.2,1.3,0.3c0.4,0.1,0.9,0.2,1.3,0.3c0.5,0.2,1,0.3,1.5,0.5
		c0.5,0.2,1,0.4,1.5,0.6c0.8,0.3,1.6,0.7,2.4,1.2c0.8,0.4,1.5,0.9,2.3,1.4c0.7,0.5,1.2,1,1.8,1.6c1,0.9,1.7,2.1,2.3,3.3
		c0.3,0.7,0.5,1.4,0.8,2c0.1,0.2-0.1,0.5,0.1,0.6c0,0.4,0.1,0.8,0.1,1.3c0,0-0.1,0-0.1,0c0-0.1,0-0.2,0-0.2c0-0.1-0.1-0.2-0.1-0.3
		c0-0.6-0.2-1-0.4-1.5c-0.4-1-0.9-2.1-1.6-2.9c-0.4-0.5-0.7-0.9-1.1-1.3c-0.5-0.5-1-1-1.6-1.3c-1-0.9-2.3-1.5-3.6-2.1
		c-0.9-0.4-1.8-0.8-2.7-1c-0.8-0.2-1.6-0.4-2.3-0.7c-0.5,0-0.9-0.3-1.5-0.2c-0.1,0-0.3-0.1-0.4-0.1s-0.3,0-0.5-0.1
		c-0.1-0.1-0.3,0-0.5,0c-0.1,0-0.3-0.1-0.4-0.1c-0.2,0-0.5-0.1-0.8-0.1c-0.5-0.1-1-0.1-1.6-0.1c-0.3,0-0.6-0.2-0.9-0.1
		c-0.3,0-0.6,0.1-0.9,0c-1-0.2-2.1-0.1-3.1-0.1c-0.7,0-1.4,0-2.1,0c-0.9,0-1.7,0.2-2.6,0.1c-0.5,0.2-0.9,0-1.4,0.1
		c-0.3,0.1-0.7,0.1-1,0.1c-0.3,0.1-0.7,0.1-1,0.1c-0.2,0-0.4,0.1-0.6,0.1c-0.2,0-0.3,0-0.6,0.1c-0.2,0.1-0.4,0-0.6,0.1
		c-0.7,0.2-1.5,0.2-2.3,0.5c-0.6-0.1-1,0.2-1.6,0.2c-0.4,0.1-0.8,0.2-1.3,0.3c-0.4,0.1-0.8,0.2-1.2,0.3c-0.5,0.1-1.1,0.2-1.6,0.4
		c-0.6,0.2-1.2,0.3-1.7,0.5c-0.6,0.2-1.2,0.3-1.8,0.6c-0.6,0.2-1.3,0.5-1.9,0.7c-0.3,0.1-0.7,0.3-1,0.4c-0.4,0.1-0.7,0.2-1,0.3
		c-0.1,0-0.1,0-0.3,0c0.2-0.5,0.4-0.9,0.6-1.3C123,156,123.1,155.6,123.2,155z"/>
	<path d="M168.4,248.6c-0.5,0-1.1-0.1-1.5-0.4c-0.6-0.5-1.2-1-1.3-1.9c-0.2-0.3-0.1-0.6-0.1-0.9c0-0.5,0.5-1.6,1.1-1.9
		c0.2-0.1,0.4-0.5,0.7-0.5c0.2,0,0.5-0.1,0.7-0.2c0.3-0.1,0.5,0,0.7,0.1c0.7,0,1.2,0.4,1.6,0.8c0.6,0.7,0.9,1.4,0.7,2.3
		c-0.1,0.9-0.5,1.5-1.3,2c-0.2,0.1-0.3,0.3-0.5,0.4C169.1,248.5,168.7,248.5,168.4,248.6z M166.1,245.1c0,0.3,0,0.6,0,0.9
		c0,0.8,0.4,1.4,1.1,1.8c0.6,0.4,0.9,0.4,1.7,0.2c0.6-0.1,1-0.5,1.4-1c0.2-0.3,0.3-0.7,0.3-1.1c0-0.3,0-0.6,0-0.8
		c-0.5-1.2-1.3-1.7-2.5-1.6C167.1,243.5,166.5,244.1,166.1,245.1z"/>
	<path d="M131.5,186.6c0.1,0,0.1,0,0.2,0c0,0,0,0,0,0.1C131.6,186.6,131.6,186.7,131.5,186.6C131.5,186.7,131.5,186.6,131.5,186.6z"
		/>
	<path d="M131.3,186.8c0-0.2,0.1-0.1,0.2-0.1C131.5,186.9,131.4,186.8,131.3,186.8z"/>
	<path d="M131,186.9c0-0.2,0.1-0.1,0.2-0.1C131.2,187,131.1,186.9,131,186.9z"/>
	<path d="M130.8,187.1c0-0.2,0.1-0.1,0.2-0.1C131,187.1,130.9,187.1,130.8,187.1z"/>
	<path class="st0" d="M143.3,195c0.2,0,0.4-0.1,0.6-0.1c0.1,0,0.2,0.1,0.3,0.1c0.3,0,0.6,0.2,0.7,0.4c0.4,0.6,0.6,1.2,0.8,1.9
		c0.1,0.3,0,0.7,0.1,1c0.1,0.6,0.1,1.1,0.1,1.6c0,0.5-0.1,1-0.1,1.6c-0.2,0.2-0.1,0.5-0.1,0.8c-0.1,0.2,0,0.5-0.1,0.7
		c-0.2,0.6-0.2,1.3-0.4,1.9c-0.1,0.5-0.2,1-0.4,1.5c-0.2,0.6-0.3,1.2-0.6,1.7c-0.2,0.5-0.4,1.1-0.6,1.6c-0.3,0.7-0.5,1.4-0.9,2
		c-0.3,0.5-0.6,1-0.9,1.5s-0.6,1-1,1.4c0,0,0,0.1-0.1,0.2c-0.3,0-0.6-0.1-0.7-0.4c-0.3-0.5-0.6-1.1-0.8-1.7
		c-0.1-0.6-0.2-1.1-0.2-1.6c0-0.5-0.2-0.9-0.1-1.4c0-0.3,0.1-0.6,0.1-0.9c0-0.3-0.1-0.7,0-1c0.1-0.3,0-0.7,0.1-0.9
		c0.1-0.3,0-0.7,0.1-0.9c0.1-0.2,0-0.5,0.2-0.7c0.1-0.2,0-0.5,0.1-0.7c0.1-0.2,0-0.5,0.1-0.7c0.1-0.2,0-0.5,0.2-0.7
		c0.1-0.7,0.4-1.2,0.6-1.9c0.2-0.6,0.4-1.2,0.7-1.8c0.3-0.9,0.8-1.8,1.2-2.7c0.3-0.6,0.6-1.2,1-1.7
		C143.3,195.1,143.3,195.1,143.3,195z"/>
	<path class="st0" d="M131.8,247c-0.5-0.2-0.7-0.6-0.9-1c-0.3-0.6-0.4-1.2-0.6-1.8c-0.1-0.7-0.1-1.3-0.1-2c0-0.7,0-1.4,0-2
		c0-0.2,0.1-0.4,0.1-0.6c0-0.2,0-0.4,0.1-0.5c0.1-0.3,0-0.6,0.1-0.9c0.1-0.5,0.1-1.1,0.2-1.6c0.1-0.5,0.2-0.9,0.3-1.3
		c0.2-0.8,0.5-1.6,0.8-2.4c0.2-0.5,0.3-1,0.6-1.5c0.3-0.8,0.8-1.6,1.2-2.4c0.2-0.5,0.6-1,0.9-1.4c0-0.1,0.1-0.1,0.1-0.2
		c0,0,0.1,0,0.1,0c0.2,0,0.4-0.2,0.5-0.1c0.2,0.1,0.5,0.1,0.6,0.3c0.2,0.1,0.2,0.3,0.4,0.5c0.3,0.4,0.5,0.9,0.6,1.4
		c0.3,1.4,0.3,2.4,0.2,3.4c0,0.7-0.1,1.4-0.2,2.1c-0.1,0.5-0.2,0.9-0.3,1.4c-0.1,0.3-0.2,0.7-0.2,1.1c-0.1,0.8-0.4,1.5-0.6,2.3
		c-0.1,0.3-0.2,0.7-0.3,1s-0.2,0.7-0.4,1c-0.3,0.7-0.6,1.3-0.9,2c-0.3,0.5-0.5,1.1-0.8,1.6c-0.3,0.5-0.7,1-1,1.5
		C132.2,246.7,132,246.9,131.8,247z"/>
	<path class="st0" d="M132.8,247.4c0.1-0.1,0.1-0.2,0.2-0.3c0.5-0.3,1-0.8,1.4-1.4c0.3-0.4,0.6-0.7,0.8-1c0.6-0.9,1.1-1.8,1.7-3.2
		c0.2-0.5,0.5-1,0.7-1.6c0.2-0.6,0.4-1.1,0.6-1.7c0.2-0.6,0.4-1.1,0.5-1.7c0.1-0.3,0.2-0.7,0.3-1.1c0.1-0.2,0-0.5,0.1-0.8
		c0.1-0.4,0.2-0.8,0.2-1.2c0.1-0.3,0-0.6,0.1-0.9c0.1-0.3,0-0.6,0.1-0.9c0.2-0.6,0.1-1.1,0.1-1.6c0-0.6,0.1-1.1,0-1.7
		c-0.1-0.9-0.3-1.7-0.7-2.5c-0.2-0.5-0.6-0.8-1-1.1c-0.1-0.1-0.3-0.1-0.4-0.1c-0.1,0-0.2-0.1-0.4-0.2c0.2-0.1,0.3-0.1,0.5-0.2
		c0.5-0.4,1.2-0.4,1.8-0.3c0.3,0,0.6,0.2,0.9,0.4c0.5,0.5,0.9,1,1.1,1.7c0.1,0.5,0.2,1,0.3,1.6c0.1,0.6,0.1,1.2,0.1,1.8
		c0,0.4,0,0.8-0.1,1.2c-0.1,0.3,0.1,0.8-0.1,1.1c0.1,0.4-0.1,0.7-0.1,1.1c0,0.3-0.1,0.6-0.2,0.9c-0.1,0.4-0.2,0.8-0.3,1.2
		c-0.1,0.5-0.3,1-0.4,1.5c-0.2,0.8-0.5,1.6-0.8,2.4c-0.2,0.5-0.3,0.9-0.6,1.4c-0.3,0.7-0.6,1.4-0.9,2.1c-0.5,0.8-0.9,1.7-1.5,2.4
		c-0.5,0.6-1,1.1-1.5,1.6c-0.5,0.4-1,0.8-1.7,0.9C133.2,247.3,133,247.4,132.8,247.4z"/>
	<path class="st0" d="M141.3,215.3c0.3-0.2,0.5-0.5,0.8-0.7c0.8-0.7,1.4-1.5,1.9-2.4c0.6-0.8,1-1.7,1.4-2.7c0.3-0.7,0.6-1.4,0.8-2.1
		c0.2-0.5,0.4-1.1,0.6-1.6c0.1-0.3,0.3-0.7,0.3-1.1c0.1-0.4,0.4-0.7,0.2-1.1c0.2-0.4,0.2-0.8,0.3-1.3c0.1-0.2,0-0.5,0.1-0.7
		c0.1-0.4,0.1-0.8,0.1-1.3c0-0.2,0.1-0.5,0.1-0.7c0-0.2-0.1-0.5,0-0.8c0.2-0.7,0.1-1.5,0.1-2.2c-0.1-0.8-0.1-1.6-0.5-2.3
		c-0.3-0.7-0.7-1.4-1.5-1.7c-0.1,0-0.2-0.1-0.2-0.1c-0.1,0-0.1,0-0.2,0c0.1-0.3,0.4-0.4,0.6-0.5c0.4-0.1,0.7-0.3,1.1-0.2
		c0.6,0,1,0.2,1.4,0.6c0.6,0.5,0.8,1.1,0.9,1.7c0.1,0.5,0.2,0.9,0.2,1.4c0,0.7,0,1.3,0,2c0,0.8-0.1,1.6-0.1,2.3
		c0,0.2-0.1,0.5-0.1,0.7c0,0.3-0.2,0.5-0.1,0.8c0,0.2-0.1,0.5-0.1,0.7c-0.1,0.5-0.2,0.9-0.3,1.4c-0.1,0.5-0.3,0.9-0.4,1.4
		c-0.2,1-0.7,1.9-1,2.9c-0.6,0.9-0.9,2-1.5,2.9c-0.3,0.5-0.6,1-0.9,1.6c-0.2,0.3-0.4,0.6-0.7,0.8c-0.4,0.4-0.8,0.8-1.2,1.2
		c-0.5,0.4-1,0.7-1.6,0.9C141.8,215.3,141.6,215.3,141.3,215.3z"/>
	<path class="st0" d="M140.5,256.2c-0.1,0-0.2,0-0.4,0c0,0,0,0,0-0.1C140.2,256.2,140.4,256.2,140.5,256.2
		C140.5,256.2,140.5,256.2,140.5,256.2z"/>
	<path class="st0" d="M139.7,256.3c0.1,0,0.2,0,0.3,0c0,0,0,0,0,0.1c-0.1,0-0.2,0-0.3,0C139.7,256.3,139.7,256.3,139.7,256.3z"/>
	<path class="st0" d="M147.9,169.6c0.3-0.4,0.6-0.7,0.9-1c0.5-0.5,1-0.8,1.5-1.2c0.3-0.2,0.7-0.2,1-0.4c0.1,0,0.3,0,0.4,0.1
		c0.1,0,0.2,0,0.4,0.1c0.1,0.1,0.2,0.2,0.2,0.3c0,0.5-0.1,0.7-0.6,1.2c-0.4,0.4-1,0.6-1.5,0.8c-0.2,0.1-0.6,0.1-0.9,0.1
		C149.1,169.6,148.5,169.6,147.9,169.6z"/>
	<path class="st0" d="M163.3,174.5c0,0-0.1,0.1-0.1,0.1l0,0C163.2,174.5,163.3,174.5,163.3,174.5
		C163.3,174.5,163.3,174.5,163.3,174.5z"/>
	<path class="st0" d="M130.5,175.1c-0.5-0.5-0.5-0.9-0.3-1.5c0.3-0.7,0.7-1.4,1.2-2.1c0.5-0.7,1.2-1.3,1.8-1.9
		c0.7-0.6,1.3-1.2,2.1-1.6c0.5-0.3,0.9-0.5,1.5-0.6c0.3,0,0.5-0.1,0.8-0.1c0,0,0,0,0.1,0.1c0.1,0.3,0,0.7-0.1,1
		c-0.1,0.4-0.3,0.8-0.4,1.2c-0.1,0.5-0.4,0.9-0.7,1.3c-0.4,0.5-0.9,1-1.4,1.5c-0.8,0.8-1.7,1.5-2.8,2c-0.1,0.1-0.2,0.2-0.3,0.2
		C131.6,174.9,131.1,175,130.5,175.1z"/>
	<path class="st0" d="M166.1,245.1c0.4-0.9,1-1.5,2-1.6c1.2-0.1,2,0.5,2.5,1.6c0,0.2,0,0.6,0,0.8c0,0.4-0.1,0.7-0.3,1.1
		c-0.4,0.5-0.8,0.9-1.4,1c-0.8,0.1-1.1,0.1-1.7-0.2c-0.6-0.4-1.1-0.9-1.1-1.8C166.1,245.7,166.1,245.4,166.1,245.1z M167.1,244.1
		c0,1,0,2.1,0,3.1c0.2,0,0.5,0,0.7,0c0-0.2,0-0.4,0-0.6c0-0.2,0-0.4,0-0.6c0.3,0,0.6,0,0.9,0c0.1,0.1,0.2,0.2,0.3,0.3
		c0,0.3,0,0.6,0,0.8c0.2,0,0.5,0,0.7,0c-0.2-0.2-0.1-0.5-0.1-0.7c0-0.3-0.1-0.6-0.5-0.7c0.2-0.1,0.3-0.3,0.5-0.5
		c0.2-0.3-0.1-0.6,0-0.8c-0.2-0.1-0.5-0.2-0.7-0.4C168.4,244.1,167.8,244.1,167.1,244.1z"/>
	<path d="M167.1,244.1c0.6,0,1.2,0,1.8,0c0.2,0.1,0.5,0.2,0.7,0.4c-0.1,0.3,0.3,0.5,0,0.8c-0.1,0.2-0.3,0.4-0.5,0.5
		c0.3,0.1,0.5,0.4,0.5,0.7c0,0.2-0.1,0.5,0.1,0.7c-0.2,0-0.4,0-0.7,0c0-0.3,0-0.6,0-0.8c-0.1-0.1-0.2-0.2-0.3-0.3
		c-0.2,0-0.5,0-0.9,0c0,0.2,0,0.4,0,0.6c0,0.2,0,0.3,0,0.6c-0.2,0-0.5,0-0.7,0C167.1,246.2,167.1,245.2,167.1,244.1z M169,245.4
		c0-0.2,0-0.4,0-0.6c-0.1-0.1-0.3-0.1-0.4-0.2c-0.2,0-0.5,0-0.8,0c0,0.3,0,0.7,0,1C168.3,245.7,168.6,245.6,169,245.4z"/>
	<path class="st0" d="M169,245.4c-0.4,0.2-0.7,0.3-1.1,0.2c0-0.3,0-0.7,0-1c0.3,0,0.5,0,0.8,0c0.1,0.1,0.2,0.1,0.4,0.2
		C169,245,169,245.2,169,245.4z"/>
</g>
</svg>
