<?xml version="1.0" encoding="utf-8"?>
<!-- Generator: Adobe Illustrator 16.0.3, SVG Export Plug-In . SVG Version: 6.00 Build 0)  -->
<!DOCTYPE svg PUBLIC "-//W3C//DTD SVG 1.1//EN" "http://www.w3.org/Graphics/SVG/1.1/DTD/svg11.dtd">
<svg version="1.1" id="Icons" xmlns="http://www.w3.org/2000/svg" xmlns:xlink="http://www.w3.org/1999/xlink" x="0px" y="0px"
	 viewBox="-14.5 -14.5 114.5 114.5" enable-background="new -14.5 -14.5 114.5 114.5"
	 xml:space="preserve">
<path fill="#020202" d="M42.75-11C13.065-11-11,13.065-11,42.75c0,29.686,24.065,53.75,53.75,53.75
	c29.686,0,53.75-24.064,53.75-53.75C96.5,13.065,72.436-11,42.75-11z M72.36,44.178c-6.345,25.706-48.917,36.61-68.501,9.923
	c7.501,7.158,20.563,7.785,28.851-0.771c-4.857,0.71-8.392-4.054-2.423-6.627c-5.369,0.585-8.354-2.268-9.576-4.692
	c1.257-1.317,2.646-1.928,5.331-2.105c-5.875-1.389-8.046-4.261-8.71-7.747c1.631-0.391,3.672-0.724,4.788-0.575
	c-5.149-2.69-6.937-6.736-6.654-9.78c9.197,3.415,15.056,6.156,19.957,8.784c1.747,0.931,3.693,2.607,5.89,4.736
	c2.797-7.394,6.254-15.016,12.173-18.797c-0.099,0.858-0.56,1.655-1.167,2.309c1.684-1.525,3.861-2.574,6.08-2.878
	c-0.257,1.664-2.651,2.601-4.1,3.146c1.097-0.34,6.923-2.94,7.557-1.459c0.751,1.683-4.019,2.459-4.83,2.75
	c-0.605,0.201-1.213,0.426-1.81,0.667c7.385-0.735,14.433,5.354,16.491,12.913c0.146,0.545,0.293,1.147,0.426,1.783
	c2.701,1.005,7.593-0.051,9.168-1.019c-1.141,2.695-4.104,4.681-8.472,5.041c2.104,0.876,6.074,1.357,8.813,0.893
	C79.908,42.533,77.113,44.22,72.36,44.178z"/>
</svg>
